<svg viewBox="0 0 32 32" fill="none" xmlns="http://www.w3.org/2000/svg" id="Calendar--Streamline-Radix.svg" height="32" width="32"><desc>Calendar Streamline Icon: https://streamlinehq.com</desc><path fill-rule="evenodd" clip-rule="evenodd" d="M9.6 2.1333333333333333c0.5890986666666667 0 1.0666666666666667 0.477568 1.0666666666666667 1.0666666666666667V4.266666666666667h10.666666666666666v-1.0666666666666667c0 -0.5890986666666667 0.4776533333333333 -1.0666666666666667 1.0666666666666667 -1.0666666666666667s1.0666666666666667 0.477568 1.0666666666666667 1.0666666666666667V4.266666666666667h3.2c1.7672533333333333 0 3.2 1.4326826666666665 3.2 3.2v19.2c0 1.7672533333333333 -1.4327466666666666 3.2 -3.2 3.2h-21.333333333333332c-1.7673173333333334 0 -3.2 -1.4327466666666666 -3.2 -3.2v-19.2C2.1333333333333333 5.699349333333333 3.566016 4.266666666666667 5.333333333333333 4.266666666666667H8.533333333333333v-1.0666666666666667c0 -0.5890986666666667 0.477568 -1.0666666666666667 1.0666666666666667 -1.0666666666666667ZM21.333333333333332 6.4v1.0666666666666667c0 0.5890986666666667 0.4776533333333333 1.0666666666666667 1.0666666666666667 1.0666666666666667s1.0666666666666667 -0.477568 1.0666666666666667 -1.0666666666666667V6.4h3.2c0.5890133333333334 0 1.0666666666666667 0.477568 1.0666666666666667 1.0666666666666667V10.666666666666666H4.266666666666667V7.466666666666667c0 -0.5890986666666667 0.477568 -1.0666666666666667 1.0666666666666667 -1.0666666666666667H8.533333333333333v1.0666666666666667c0 0.5890986666666667 0.477568 1.0666666666666667 1.0666666666666667 1.0666666666666667s1.0666666666666667 -0.477568 1.0666666666666667 -1.0666666666666667V6.4h10.666666666666666ZM4.266666666666667 12.8v13.866666666666667c0 0.5890133333333334 0.477568 1.0666666666666667 1.0666666666666667 1.0666666666666667h21.333333333333332c0.5890133333333334 0 1.0666666666666667 -0.4776533333333333 1.0666666666666667 -1.0666666666666667V12.8H4.266666666666667Zm10.666666666666666 3.2c0 -0.5890986666666667 0.477568 -1.0666666666666667 1.0666666666666667 -1.0666666666666667s1.0666666666666667 0.477568 1.0666666666666667 1.0666666666666667 -0.477568 1.0666666666666667 -1.0666666666666667 1.0666666666666667 -1.0666666666666667 -0.477568 -1.0666666666666667 -1.0666666666666667ZM20.266666666666666 14.933333333333334c-0.5890986666666667 0 -1.0666666666666667 0.477568 -1.0666666666666667 1.0666666666666667s0.477568 1.0666666666666667 1.0666666666666667 1.0666666666666667 1.0666666666666667 -0.477568 1.0666666666666667 -1.0666666666666667 -0.477568 -1.0666666666666667 -1.0666666666666667 -1.0666666666666667Zm3.2 1.0666666666666667c0 -0.5890986666666667 0.4776533333333333 -1.0666666666666667 1.0666666666666667 -1.0666666666666667s1.0666666666666667 0.477568 1.0666666666666667 1.0666666666666667 -0.4776533333333333 1.0666666666666667 -1.0666666666666667 1.0666666666666667 -1.0666666666666667 -0.477568 -1.0666666666666667 -1.0666666666666667Zm1.0666666666666667 3.2c-0.5890133333333334 0 -1.0666666666666667 0.477568 -1.0666666666666667 1.0666666666666667s0.4776533333333333 1.0666666666666667 1.0666666666666667 1.0666666666666667 1.0666666666666667 -0.477568 1.0666666666666667 -1.0666666666666667 -0.4776533333333333 -1.0666666666666667 -1.0666666666666667 -1.0666666666666667ZM19.2 20.266666666666666c0 -0.5890986666666667 0.477568 -1.0666666666666667 1.0666666666666667 -1.0666666666666667s1.0666666666666667 0.477568 1.0666666666666667 1.0666666666666667 -0.477568 1.0666666666666667 -1.0666666666666667 1.0666666666666667 -1.0666666666666667 -0.477568 -1.0666666666666667 -1.0666666666666667ZM16 19.2c-0.5890986666666667 0 -1.0666666666666667 0.477568 -1.0666666666666667 1.0666666666666667s0.477568 1.0666666666666667 1.0666666666666667 1.0666666666666667 1.0666666666666667 -0.477568 1.0666666666666667 -1.0666666666666667 -0.477568 -1.0666666666666667 -1.0666666666666667 -1.0666666666666667ZM10.666666666666666 20.266666666666666c0 -0.5890986666666667 0.477568 -1.0666666666666667 1.0666666666666667 -1.0666666666666667s1.0666666666666667 0.477568 1.0666666666666667 1.0666666666666667 -0.477568 1.0666666666666667 -1.0666666666666667 1.0666666666666667 -1.0666666666666667 -0.477568 -1.0666666666666667 -1.0666666666666667ZM7.466666666666667 19.2c-0.5890986666666667 0 -1.0666666666666667 0.477568 -1.0666666666666667 1.0666666666666667s0.477568 1.0666666666666667 1.0666666666666667 1.0666666666666667 1.0666666666666667 -0.477568 1.0666666666666667 -1.0666666666666667 -0.477568 -1.0666666666666667 -1.0666666666666667 -1.0666666666666667ZM6.4 24.53333333333333c0 -0.5890133333333334 0.477568 -1.0666666666666667 1.0666666666666667 -1.0666666666666667s1.0666666666666667 0.4776533333333333 1.0666666666666667 1.0666666666666667 -0.477568 1.0666666666666667 -1.0666666666666667 1.0666666666666667 -1.0666666666666667 -0.4776533333333333 -1.0666666666666667 -1.0666666666666667Zm5.333333333333333 -1.0666666666666667c-0.5890986666666667 0 -1.0666666666666667 0.4776533333333333 -1.0666666666666667 1.0666666666666667s0.477568 1.0666666666666667 1.0666666666666667 1.0666666666666667 1.0666666666666667 -0.4776533333333333 1.0666666666666667 -1.0666666666666667 -0.477568 -1.0666666666666667 -1.0666666666666667 -1.0666666666666667Zm3.2 1.0666666666666667c0 -0.5890133333333334 0.477568 -1.0666666666666667 1.0666666666666667 -1.0666666666666667s1.0666666666666667 0.4776533333333333 1.0666666666666667 1.0666666666666667 -0.477568 1.0666666666666667 -1.0666666666666667 1.0666666666666667 -1.0666666666666667 -0.4776533333333333 -1.0666666666666667 -1.0666666666666667Zm5.333333333333333 -1.0666666666666667c-0.5890986666666667 0 -1.0666666666666667 0.4776533333333333 -1.0666666666666667 1.0666666666666667s0.477568 1.0666666666666667 1.0666666666666667 1.0666666666666667 1.0666666666666667 -0.4776533333333333 1.0666666666666667 -1.0666666666666667 -0.477568 -1.0666666666666667 -1.0666666666666667 -1.0666666666666667Z" fill="#000000" stroke-width="1"></path></svg>