<svg aria-hidden="true" style="position: absolute; width: 0; height: 0; overflow: hidden;" version="1.1" xmlns="http://www.w3.org/2000/svg" xmlns:xlink="http://www.w3.org/1999/xlink">
<defs>
<symbol id="icon-svg1" viewBox="0 0 41 32">
<path d="M29.247 13.049c0.381 0.242 0.761 0.484 1.142 0.727 0.035-0.035 0.035-0.035 0.069-0.069 0.381-0.588 0.934-0.969 1.592-1.211 0.346-0.138 0.692-0.242 1.038-0.208 0.277 0.035 0.519 0.104 0.796 0.173s0.554 0.173 0.761 0.346c0.035 0 0.035 0.035 0.069 0.035 0.208-0.173 0.45-0.242 0.692-0.311s0.519-0.069 0.761-0.035c0.242 0.035 0.485 0.069 0.727 0.138 0.104 0.035 0.173 0 0.242-0.069 0.104-0.104 0.207-0.173 0.311-0.242 0.346-0.208 0.796-0.138 1.073 0.138 0.381 0.381 0.415 0.934 0.138 1.384-0.346 0.519-1.177 0.623-1.592 0.138-0.069-0.069-0.104-0.173-0.173-0.242-0.035-0.104-0.069-0.208-0.104-0.311s-0.035-0.208-0.035-0.311c-0.45-0.242-1.453-0.208-1.765 0.069 0 0 0 0.035 0 0.069 0.207 0.346 0.311 0.761 0.45 1.177 0.035 0.104 0.069 0.173 0.173 0.173 0.657 0.138 1.004 0.934 0.657 1.592-0.346 0.588-1.073 0.727-1.592 0.311-0.207-0.173-0.346-0.415-0.311-0.692 0-0.173 0-0.346 0.069-0.484 0.069-0.242 0.173-0.45 0.415-0.554 0.104-0.069 0.138-0.138 0.104-0.242-0.069-0.242-0.069-0.484-0.173-0.692-0.138-0.415-0.45-0.692-0.865-0.831-0.45-0.138-0.9-0.104-1.349 0.069-0.588 0.208-1.038 0.554-1.453 1.004-0.069 0.069-0.138 0.138-0.208 0.242 0 0.035 0.035 0.069 0.069 0.104 0.519 0.554 1.073 1.107 1.592 1.661 0.173 0.173 0.381 0.346 0.554 0.519 0.45 0.381 1.004 0.588 1.592 0.727 0.208 0.035 0.415 0.104 0.623 0.173 0.588 0.208 0.969 0.657 1.177 1.246 0.138 0.381 0.208 0.796 0.173 1.211-0.035 0.346-0.173 0.623-0.415 0.865s-0.554 0.381-0.9 0.45c-0.138 0.035-0.277 0.069-0.415 0.069-0.519 0.035-1.003-0.104-1.488-0.346-0.415-0.208-0.761-0.484-1.073-0.865-0.311-0.346-0.623-0.727-0.9-1.073-0.346-0.45-0.692-0.934-1.038-1.419-0.035-0.069-0.069-0.104-0.138-0.138 0 0.761 0.035 1.523 0.035 2.284 0.069 0 0.104 0.035 0.138 0.035 0.277 0.035 0.415 0.173 0.554 0.381 0.138 0.277 0.208 0.554 0.208 0.865 0 0.104-0.035 0.242-0.104 0.346-0.069 0.069-0.069 0.138-0.069 0.242 0.035 0.311 0.104 0.588 0.277 0.865 0.381 0.623 0.761 1.246 1.211 1.799 0.346 0.415 0.727 0.761 1.107 1.142 0.104 0.069 0.173 0.173 0.277 0.242 0.242 0.242 0.277 0.415 0.104 0.727-0.104 0.208-0.277 0.381-0.381 0.588-0.623 0.9-1.246 1.799-1.869 2.699-0.104 0.173-0.208 0.346-0.312 0.519-0.277 0.484-0.588 0.9-0.934 1.349-0.104 0.104-0.173 0.208-0.312 0.311-0.138 0.138-0.277 0.104-0.381-0.069-0.069-0.104-0.104-0.208-0.138-0.311-0.173-0.554-0.346-1.107-0.623-1.626s-0.588-1.038-0.969-1.488c-0.381-0.45-0.83-0.796-1.315-1.107-0.277-0.173-0.554-0.311-0.83-0.45-0.346-0.173-0.415-0.381-0.173-0.727 0.242-0.311 0.519-0.623 0.761-0.934 0.588-0.692 1.177-1.384 1.626-2.18 0.138-0.242 0.277-0.519 0.45-0.761 0.138-0.242 0.277-0.484 0.415-0.727 0-0.035-0.035-0.035-0.035-0.069-0.277-0.173-0.277-0.623-0.069-0.9 0.104-0.138 0.208-0.277 0.346-0.381 0.277-0.208 0.346-0.519 0.346-0.831 0.035-0.588 0.035-1.142-0.035-1.73-0.035-0.242-0.035-0.519-0.069-0.761 0-0.173-0.069-0.311-0.208-0.415-0.277-0.208-0.588-0.381-0.934-0.45-0.173-0.035-0.381-0.069-0.554-0.104-0.069 0-0.104 0-0.208 0 0.035 0.104 0.069 0.173 0.104 0.277 0.311 0.623 0.519 1.246 0.657 1.938 0.035 0.138 0.035 0.277 0.035 0.415 0 0.173-0.069 0.311-0.138 0.415-0.035 0.035-0.104 0.069-0.138 0.069-0.104 0.035-0.173 0.035-0.277 0.035-0.761 0-1.523 0-2.249 0-0.069 0-0.138-0.035-0.173-0.035-0.173-0.035-0.242-0.138-0.277-0.311-0.035-0.208-0.035-0.381-0.069-0.588-0.035-0.277-0.069-0.554-0.138-0.831-0.069-0.311-0.104-0.623-0.173-0.9-0.138-0.623-0.346-1.211-0.623-1.799-0.035-0.104-0.138-0.208-0.208-0.242-0.277-0.208-0.554-0.311-0.9-0.381-0.277-0.069-0.588-0.069-0.865-0.069-0.623 0.035-1.177 0.208-1.661 0.588-0.104 0.104-0.173 0.173-0.173 0.346 0 0.311 0 0.623 0 0.934 0.035 0.311 0.069 0.623 0.104 0.934 0.069 0.415 0.173 0.83 0.242 1.246 0.069 0.311 0.173 0.657 0.242 0.969 0.035 0.173 0.069 0.381 0.104 0.554 0.035 0.138-0.069 0.277-0.242 0.346-0.138 0.069-0.277 0.104-0.415 0.138-0.45 0.138-0.9 0.242-1.35 0.381-0.242 0.069-0.45 0.173-0.692 0.242-0.277 0.104-0.484 0.035-0.554-0.277-0.069-0.173-0.104-0.311-0.138-0.484-0.277-1.073-0.381-2.145-0.311-3.253 0-0.311 0.035-0.657 0.069-0.969 0-0.069 0-0.104 0-0.173-0.346 0-0.692 0.035-1.003 0.035-0.104 0-0.242 0-0.346 0-0.138 0-0.173 0.035-0.173 0.173 0 0.346-0.035 0.692-0.035 1.038 0 0.519-0.035 1.073-0.035 1.592-0.035 0.692-0.069 1.419-0.104 2.111 0 0.035 0 0.104 0 0.138 0.381 0.277 0.623 0.623 0.761 1.038 0.069 0.208 0.035 0.415-0.173 0.588l-0.035 0.035c0 0 0-0 0 0.035 0.104 0.311 0.242 0.623 0.45 0.934 0.242 0.381 0.519 0.727 0.796 1.107 0.173 0.208 0.311 0.415 0.45 0.657s0.104 0.415-0.069 0.623c-0.208 0.173-0.415 0.346-0.588 0.519-0.346 0.346-0.692 0.692-1.038 1.038s-0.554 0.796-0.796 1.176c-0.104 0.138-0.208 0.277-0.311 0.415-0.069 0.069-0.138 0.069-0.208 0-0.035-0.035-0.069-0.104-0.104-0.138-0.104-0.415-0.277-0.83-0.45-1.246-0.346-0.865-0.83-1.661-1.419-2.388-0.104-0.138-0.242-0.277-0.346-0.45-0.173-0.242-0.138-0.415 0.069-0.623 0.311-0.277 0.623-0.519 0.934-0.796 0.242-0.208 0.484-0.45 0.727-0.692 0.035-0.035 0.035-0.069 0.069-0.104-0.035-0.069-0.104-0.104-0.138-0.138-0.138-0.138-0.173-0.346-0.069-0.519 0.173-0.381 0.45-0.727 0.83-0.934 0.138-0.069 0.208-0.173 0.208-0.311 0-0.346 0.035-0.692 0.035-1.073 0.035-0.9 0.035-1.834 0.035-2.734 0-0.104-0.035-0.242-0.035-0.346 0-0.173 0-0.381 0-0.554 0-0.104-0.035-0.173-0.138-0.173s-0.208 0-0.311 0.069c-0.623 0.277-1.038 0.727-1.211 1.384-0.035 0.069-0.035 0.173-0.035 0.242 0 0.242 0 0.484 0 0.727 0 0.346-0.035 0.657-0.138 0.969-0.138 0.346-0.311 0.692-0.554 0.969-0.277 0.311-0.623 0.45-1.038 0.381-0.692-0.138-1.073-0.588-1.28-1.211-0.173-0.623-0.104-1.211 0.104-1.799 0.069-0.208 0.208-0.415 0.311-0.623 0.035-0.035 0.069-0.104 0.104-0.173-0.104 0-0.138 0.035-0.208 0.104-0.346 0.277-0.727 0.554-1.073 0.865s-0.657 0.657-1.004 0.969c-0.173 0.173-0.346 0.311-0.519 0.484-0.45 0.381-0.969 0.588-1.557 0.657-0.83 0.104-1.661-0.035-2.422-0.311-0.173-0.069-0.311-0.138-0.484-0.242-0.623-0.45-1.177-1.003-1.522-1.73s-0.484-1.488-0.346-2.284c0.069-0.45 0.242-0.865 0.554-1.177 0.484-0.484 1.107-0.45 1.557 0.035 0.242 0.277 0.415 0.623 0.519 0.969 0.104 0.311 0.208 0.623 0.311 0.934s0.242 0.623 0.45 0.9c0.311 0.45 0.761 0.554 1.28 0.484 0.45-0.104 0.796-0.311 1.073-0.657 0.138-0.208 0.277-0.415 0.415-0.623 0.727-1.246 1.765-2.111 3.045-2.734 0.415-0.208 0.865-0.381 1.315-0.484 0.035 0 0.069-0.035 0.104-0.069-0.104-0.104-0.242-0.138-0.346-0.138-0.346-0.069-0.692-0.138-1.038-0.208-0.138-0.035-0.277-0.035-0.381-0.104-0.346-0.104-0.692-0.069-1.038 0.035-0.796 0.242-1.453 0.761-1.972 1.384-0.138 0.138-0.242 0.311-0.346 0.45-0.035 0.035-0.069 0.104-0.104 0.138 0.035 0.035 0.069 0.104 0.069 0.138 0.381 0.519 0.173 1.177-0.45 1.384-0.554 0.173-1.038-0.069-1.246-0.554-0.173-0.381-0.069-0.692 0.242-0.969 0.208-0.173 0.45-0.242 0.727-0.242 0.173 0 0.242-0.069 0.311-0.173 0.277-0.415 0.554-0.796 0.9-1.177 0.311-0.311 0.657-0.554 1.038-0.761 0.035 0 0.069-0.035 0.104-0.069 0 0 0-0.035 0.035-0.035-0.035-0.035-0.069-0.035-0.104-0.069-0.554-0.104-1.142-0.173-1.73-0.104-0.381 0.069-0.761 0.104-1.176 0.138-0.588 0.069-1.177 0.138-1.765 0.035-0.242-0.035-0.519-0.035-0.761-0.104-0.277-0.035-0.588-0.138-0.83-0.311-0.588-0.381-0.761-1.004-0.484-1.626 0.069-0.138 0.138-0.242 0.208-0.381 0.035-0.035 0.069-0.069 0.104-0.138-0.069-0.035-0.104-0.069-0.173-0.069-0.692-0.208-1.349-0.519-1.938-0.969-0.208-0.173-0.381-0.381-0.45-0.623-0.069-0.311 0.035-0.519 0.277-0.727 0.173-0.138 0.381-0.242 0.623-0.311 0.381-0.104 0.761-0.173 1.177-0.173 0.381 0 0.727 0.069 1.073 0.173 0.484 0.104 0.969 0.277 1.453 0.519 0.588 0.311 1.142 0.692 1.557 1.211 0.208 0.242 0.45 0.45 0.692 0.657 0 0 0.035 0 0.069 0.035-0.035-0.104-0.069-0.173-0.104-0.242-0.173-0.311-0.381-0.623-0.623-0.9-0.242-0.242-0.45-0.519-0.692-0.761-0.069-0.069-0.173-0.104-0.242-0.138-0.623-0.173-1.211-0.415-1.799-0.692-1.246-0.657-2.18-1.626-2.734-2.907-0.208-0.519-0.45-1.073-0.657-1.592-0.035-0.069-0.035-0.104-0.069-0.173-0.069-0.277 0-0.484 0.277-0.588 0.104-0.035 0.208-0.069 0.311-0.104 0.484-0.104 0.969-0.069 1.453 0 0.727 0.104 1.419 0.346 2.007 0.796 0.692 0.519 1.142 1.211 1.384 2.042 0.173 0.519 0.242 1.073 0.242 1.626 0 0.277 0 0.554 0 0.83 0 0.346 0.104 0.657 0.346 0.9 0.138 0.173 0.311 0.311 0.45 0.484 0.208 0.242 0.415 0.519 0.623 0.761 0.035 0.035 0.069 0.104 0.138 0.173 0.069-0.069 0.035-0.138 0.035-0.208-0.035-0.311-0.104-0.588-0.138-0.9-0.035-0.346 0.035-0.727 0.138-1.073 0.035-0.104 0.035-0.173-0.035-0.242-0.173-0.208-0.277-0.45-0.311-0.727-0.138-0.519 0.104-1.28 0.83-1.523 0.311-0.104 0.588-0.069 0.865 0.104 0.623 0.45 0.796 1.523-0.035 2.042-0.173 0.104-0.381 0.173-0.588 0.173s-0.242 0-0.277 0.242c-0.104 0.519-0.173 1.038-0.069 1.592 0.138 0.796 0.415 1.523 0.83 2.249 0.208 0.381 0.519 0.657 0.9 0.865 0.277 0.138 0.519 0.242 0.796 0.381 0.035 0 0.069 0.035 0.138 0.035 0-0.069-0.035-0.104-0.035-0.104-0.484-0.761-0.761-1.592-1.004-2.422-0.138-0.554-0.138-1.107 0.035-1.661 0.242-0.9 0.657-1.73 1.246-2.457 0.311-0.415 0.692-0.761 1.211-0.969 0.208-0.069 0.415-0.138 0.623-0.104 0.415 0.069 0.727 0.381 0.796 0.83 0.069 0.415-0.035 0.796-0.208 1.142-0.173 0.381-0.415 0.727-0.588 1.073-0.242 0.415-0.415 0.865-0.519 1.315-0.138 0.692 0.035 1.28 0.554 1.799 0.035 0.035 0.069 0.069 0.104 0.104 0.381 0.311 0.9 0.242 1.177-0.173 0.138-0.208 0.242-0.484 0.346-0.727 0.138-0.346 0.242-0.727 0.381-1.073 0.069-0.242 0.208-0.45 0.381-0.623 0.138-0.173 0.311-0.277 0.519-0.311 0.381-0.069 0.692 0.035 0.934 0.346 0.208 0.277 0.311 0.554 0.415 0.865 0.035 0.138 0.104 0.277 0.138 0.415 0.035 0 0.069 0 0.138 0 0.588-0.035 1.142 0.069 1.696 0.208 0.346 0.069 0.692 0.208 1.073 0.311 0.104 0.035 0.242 0.035 0.346 0 0.346-0.138 0.727-0.173 1.107-0.104 0.104 0 0.173 0.035 0.242 0.069 0.138 0.035 0.242 0.035 0.346-0.069 0.623-0.415 1.28-0.692 1.972-0.934 0.277-0.104 0.519-0.173 0.796-0.208 0.242 0 0.346 0.069 0.415 0.277s0.104 0.415 0.173 0.623c0.069 0.277 0.138 0.519 0.173 0.796 0.035 0.138 0.069 0.242 0.104 0.346 0 0.035 0.035 0.104 0.069 0.138 0.104 0.104 0.207 0.104 0.277 0s0.138-0.208 0.138-0.311c0.035-0.242 0-0.45 0-0.692 0-0.138 0-0.277-0.035-0.45-0.035-0.588 0.657-0.969 1.177-0.692 0.173 0.104 0.346 0.242 0.45 0.415s0.207 0.381 0.311 0.554c0.035 0.035 0.035 0.104 0.104 0.173 0.035-0.069 0.069-0.104 0.104-0.173 0.346-0.519 0.381-1.073 0.346-1.696-0.069-0.796-0.311-1.523-0.588-2.215-0.207-0.484-0.381-0.969-0.588-1.453-0.069-0.208-0.138-0.415-0.173-0.623-0.035-0.242 0.035-0.484 0.138-0.657 0.415-0.623 0.934-0.692 1.557-0.45 0.242 0.104 0.415 0.242 0.588 0.415 0.311 0.277 0.554 0.623 0.761 0.969 0.346 0.554 0.623 1.177 0.9 1.765 0.208 0.45 0.381 0.934 0.485 1.419 0.138 0.761 0.208 1.523 0.104 2.318-0.035 0.311-0.069 0.623-0.104 0.934-0.035 0.277-0.138 0.554-0.173 0.83 0 0.069-0.035 0.104-0.035 0.173 0.138-0.138 0.208-0.346 0.277-0.519 0.277-0.657 0.381-1.315 0.45-2.007 0.069-0.727 0-1.419-0.069-2.111-0.035-0.381-0.104-0.727-0.138-1.107 0-0.104-0.069-0.173-0.173-0.208-0.554-0.173-0.969-0.865-0.761-1.453 0.069-0.173 0.069-0.346 0.173-0.484 0.208-0.277 0.484-0.381 0.83-0.346 0.485 0.069 0.796 0.415 0.969 0.865 0.104 0.242 0.138 0.519 0.035 0.796s-0.242 0.484-0.519 0.623c-0.035 0-0.069 0.035-0.104 0.069-0.035 0.173 0 0.381 0.035 0.554 0.138 0.9 0.242 1.834 0.173 2.768-0.069 0.83-0.208 1.661-0.588 2.457 0 0.035-0.035 0.069-0.035 0.104 0 0 0 0.035 0 0.069 0.035 0 0.104 0 0.138-0.035 0.381-0.208 0.796-0.415 1.177-0.588 0.069-0.035 0.104-0.104 0.138-0.208 0.069-0.346 0.138-0.657 0.242-1.004 0.035-0.138 0.035-0.242 0-0.381-0.207-0.9-0.207-1.799 0.138-2.699 0.208-0.554 0.554-1.003 1.038-1.349 0.104-0.069 0.208-0.138 0.346-0.173 0.415-0.138 0.761 0.069 0.796 0.519 0.035 0.208 0 0.415-0.035 0.623-0.035 0.069-0.035 0.173-0.069 0.242 0.104 0 0.138-0.069 0.173-0.138 0.069-0.138 0.138-0.277 0.173-0.45 0.242-0.865 0.138-1.73-0.311-2.526-0.208-0.415-0.554-0.692-0.934-0.9 0 0-0.035 0-0.069-0.035 0 0-0.035 0-0.069 0-0.035 0.035-0.069 0.104-0.104 0.173-0.173 0.208-0.346 0.346-0.623 0.381-0.346 0.035-0.623-0.104-0.796-0.381-0.069-0.104-0.104-0.242-0.173-0.346-0.035-0.104-0.069-0.173-0.104-0.277-0.069-0.138-0.069-0.277 0-0.415 0.173-0.415 0.588-0.657 1.038-0.623 0.415 0.035 0.761 0.381 0.83 0.83 0.035 0.138 0.069 0.208 0.208 0.277 0.796 0.45 1.349 1.142 1.626 2.042 0.035 0.173 0.069 0.346 0.069 0.519 0 0.381 0 0.761 0 1.142 0 0.069-0.035 0.138-0.035 0.208 0 0.035 0 0.069 0 0.138 0.173-0.035 0.242-0.069 0.277-0.242 0.104-0.381 0.208-0.761 0.381-1.142 0.277-0.554 0.657-0.969 1.177-1.315 0.173-0.104 0.346-0.242 0.519-0.346 0.138-0.104 0.138-0.104 0.069-0.242-0.138-0.346-0.035-0.623 0.208-0.9 0.104-0.104 0.208-0.208 0.311-0.242 0.415-0.208 1.177 0.104 1.28 0.761 0.035 0.346-0.208 0.761-0.588 0.9-0.242 0.104-0.485 0.104-0.727 0-0.069-0.035-0.138-0.035-0.242 0.035-0.45 0.381-0.9 0.727-1.211 1.211-0.242 0.346-0.415 0.692-0.519 1.073 0 0.035 0 0.069-0.035 0.138 0.069 0 0.138 0 0.207 0 0.346 0 0.692 0.069 1.038 0.242 0.311 0.173 0.484 0.484 0.45 0.83-0.035 0.208-0.138 0.415-0.312 0.588-0.277 0.346-0.657 0.519-1.073 0.623-0.346 0.069-0.692 0.138-1.073 0.208-0.554 0.104-1.073 0.311-1.522 0.657-0.45 0.311-0.865 0.692-1.211 1.142-0.035 0.069-0.104 0.138-0.138 0.242 0 0.035 0 0.035-0.035 0.069 0.069 0.035 0.138-0.035 0.173-0.069 0.554-0.311 1.107-0.588 1.696-0.796 0.657-0.242 1.315-0.346 2.007-0.311 0.138 0 0.277 0.069 0.415 0.104 0.311 0.138 0.588 0.346 0.761 0.657 0.346 0.554 0.138 1.211-0.346 1.557-0.242 0.173-0.519 0.277-0.796 0.311-0.346 0.069-0.727 0.138-1.107 0.208-0.242 0.035-0.519 0.069-0.761 0.104-0.9 0.035-1.8 0.069-2.699 0.138-0.796 0.035-1.557 0.104-2.318 0.277-0.173 0.035-0.311 0.104-0.45 0.242-0.346 0.45-0.796 0.796-1.28 1.107 0.173 0.035 0.138 0.035 0.104 0.069zM9.489 16.821c-0.104-0.035-0.138-0.069-0.208-0.104s-0.173-0.069-0.242-0.138c-0.104-0.069-0.138-0.138-0.069-0.208s0.138-0.069 0.208-0.035c0.035 0 0.069 0.035 0.104 0.035 0.069 0.035 0.138 0.069 0.208 0.104 0.208 0.104 0.277 0.069 0.415-0.138-0.035-0.035-0.069-0.069-0.104-0.104-0.069-0.035-0.138-0.069-0.173-0.138-0.104-0.069-0.104-0.173-0.069-0.242 0.035-0.035 0.138-0.069 0.242 0 0.069 0.035 0.104 0.069 0.173 0.104 0.035 0.035 0.069 0.069 0.104 0.069s0.104 0 0.138 0c0.104-0.069 0.208-0.138 0.277-0.277-0.069-0.035-0.104-0.069-0.173-0.104s-0.138-0.069-0.242-0.138c-0.069-0.035-0.069-0.104-0.035-0.173s0.104-0.069 0.173-0.069c0.035 0 0.104 0.035 0.138 0.069 0.104 0.035 0.173 0.104 0.277 0.138 0.035 0.035 0.104 0.035 0.173 0.035 0.104-0.069 0.242-0.138 0.346-0.242-0.104-0.069-0.208-0.138-0.277-0.242-0.069-0.069-0.069-0.138-0.035-0.208s0.104-0.069 0.208 0c0.069 0.069 0.173 0.104 0.242 0.173 0.104 0.104 0.242 0.104 0.381 0.035 0.311-0.173 0.657-0.311 1.003-0.346 0.311-0.069 0.623-0.138 0.969-0.138 0.519 0 1.073 0 1.592 0.035s1.003 0.069 1.523 0.104c0.311 0.035 0.623 0.035 0.934 0.069 0.138-0.45 0.242-0.9 0.381-1.35-0.069-0.035-0.104-0.035-0.173-0.069-0.657-0.173-1.35-0.277-2.007-0.346-0.519-0.069-1.038-0.138-1.592-0.208-0.035 0-0.104 0-0.138 0-0.138 0-0.311 0.035-0.45 0.035-0.346 0-0.692 0.069-1.038 0.138-0.588 0.173-1.142 0.415-1.661 0.692-0.9 0.519-1.626 1.177-2.18 2.076-0.138 0.242-0.311 0.484-0.484 0.727-0.415 0.554-0.934 0.9-1.661 0.969-0.484 0.035-0.934-0.069-1.28-0.45-0.277-0.277-0.484-0.623-0.623-1.004-0.173-0.415-0.311-0.865-0.45-1.28-0.069-0.242-0.173-0.45-0.346-0.623-0.346-0.415-0.761-0.415-1.107 0.035-0.208 0.311-0.311 0.623-0.346 1.004-0.035 0.588 0.035 1.107 0.277 1.661 0.346 0.796 0.865 1.419 1.661 1.799 0.588 0.277 1.211 0.381 1.869 0.311 0.727-0.069 1.384-0.346 1.938-0.796 0.035-0.035 0.035-0.069 0.069-0.104-0.069-0.035-0.138-0.035-0.208-0.069-0.138-0.069-0.311-0.104-0.45-0.173-0.104-0.035-0.138-0.104-0.104-0.173s0.104-0.104 0.208-0.069c0.069 0.035 0.138 0.035 0.208 0.069 0.173 0.035 0.311 0.104 0.484 0.138 0.208 0.035 0.311-0.035 0.415-0.242-0.035 0-0.035-0.035-0.069-0.035-0.138-0.035-0.242-0.069-0.381-0.104-0.069-0.035-0.138-0.035-0.208-0.069-0.035-0.035-0.069-0.104-0.035-0.138 0-0.035 0.069-0.069 0.104-0.104 0.069 0 0.138 0 0.208 0.035 0.138 0.035 0.277 0.069 0.415 0.104s0.277 0.069 0.381-0.069c0.035-0.069 0.104-0.138 0.173-0.242zM27.863 2.218c-0.035 0.104-0.069 0.173-0.104 0.242-0.069 0.311 0 0.588 0.104 0.865 0.173 0.484 0.381 0.934 0.588 1.419 0.381 0.9 0.657 1.799 0.727 2.768 0.035 0.623 0 1.28-0.242 1.869-0.173 0.484-0.519 0.83-0.934 1.107-0.173 0.104-0.415-0.035-0.415-0.208 0-0.069 0-0.104 0-0.173 0.069-0.277 0.035-0.588-0.035-0.865-0.069-0.311-0.173-0.588-0.381-0.796-0.104-0.104-0.242-0.173-0.415-0.173-0.138 0-0.242 0.069-0.242 0.208s0 0.277 0.035 0.381c0.035 0.208 0.138 0.415 0.173 0.657 0.035 0.277 0.069 0.588-0.069 0.865-0.138 0.311-0.415 0.623-0.934 0.588-0.035 0-0.069 0-0.104 0.035 0 0.45 0.069 0.45-0.242 0.9-0.069 0.069-0.035 0.138 0.035 0.173 0.104 0.069 0.208 0.104 0.311 0.173 0.138 0.069 0.208 0.035 0.312-0.069s0.207-0.242 0.311-0.346c0.035-0.035 0.069-0.104 0.104-0.104 0.035-0.035 0.104-0.035 0.138 0s0.035 0.104 0.035 0.138-0.035 0.104-0.069 0.138c-0.069 0.104-0.173 0.208-0.242 0.277-0.035 0.035-0.035 0.069-0.069 0.104 0.208 0.138 0.242 0.138 0.381-0.069 0.104-0.138 0.173-0.242 0.277-0.381 0.035-0.035 0.069-0.104 0.104-0.104 0.035-0.035 0.104-0.035 0.138 0s0.069 0.104 0.035 0.138c0 0.069-0.035 0.104-0.069 0.173-0.069 0.138-0.173 0.277-0.277 0.381 0.138 0.069 0.242 0.069 0.346 0 0.138-0.069 0.242-0.208 0.311-0.311 0.104-0.138 0.173-0.311 0.277-0.45 0.035-0.035 0.069-0.104 0.104-0.138s0.104-0.035 0.138-0.035c0.069 0 0.069 0.069 0.069 0.138-0.035 0.069-0.035 0.104-0.069 0.173-0.104 0.173-0.208 0.346-0.311 0.519-0.035 0.035-0.035 0.069-0.069 0.138 0.138-0.035 0.208-0.035 0.311-0.035 0.173-0.035 0.277-0.138 0.346-0.277 0.069-0.173 0.138-0.346 0.173-0.484 0.035-0.035 0.035-0.104 0.069-0.138s0.104-0.069 0.138-0.035 0.069 0.069 0.104 0.138c0 0.035 0 0.069-0.035 0.104-0.035 0.138-0.104 0.277-0.138 0.381 0 0.035 0 0.069 0 0.138 0.104-0.069 0.208-0.104 0.311-0.138 0.035 0 0.069-0.069 0.069-0.069 0.104-0.311 0.242-0.588 0.277-0.934 0-0.104 0.035-0.173 0.035-0.277 0-0.069 0.069-0.104 0.138-0.104s0.104 0.035 0.104 0.104c0.035 0.242 0.035 0.45-0.035 0.692-0.035 0.104-0.035 0.208-0.069 0.311 0.242-0.104 0.346-0.242 0.45-0.415 0 0 0-0.035 0-0.069 0-0.346-0.035-0.692-0.035-1.038 0-0.104-0.035-0.173 0-0.277 0-0.035 0.035-0.069 0.069-0.104 0.035 0 0.104-0 0.138 0.035s0.035 0.069 0.035 0.104c0.035 0.208 0.069 0.415 0.104 0.623 0 0.035 0 0.104 0.035 0.208 0.138-0.173 0.242-0.346 0.242-0.519s0-0.311-0.035-0.484c-0.035-0.208 0-0.415-0.069-0.623 0-0.035 0.035-0.104 0.069-0.138s0.104 0 0.138 0.035c0.069 0.069 0.104 0.173 0.138 0.242s0.069 0.138 0.104 0.242c0.035-0.035 0.035-0.069 0.069-0.069 0.035-0.069 0.035-0.104 0.069-0.173 0.138-0.45 0.173-0.9 0.208-1.384 0.035-0.588-0.035-1.176-0.138-1.73-0.173-1.073-0.554-2.042-1.107-2.976-0.242-0.381-0.485-0.727-0.796-1.038-0.173-0.173-0.381-0.311-0.657-0.381-0.035 0-0.069 0-0.138 0 0.104 0.104 0.173 0.208 0.277 0.311 0.485 0.588 0.83 1.246 1.107 1.938 0.311 0.727 0.519 1.523 0.588 2.318 0.069 0.865-0.069 1.73-0.381 2.561-0.035 0.035-0.035 0.104-0.069 0.138-0.069 0.104-0.138 0.138-0.242 0.104s-0.138-0.104-0.138-0.208c0-0.069 0.035-0.138 0.069-0.208 0.173-0.45 0.277-0.9 0.346-1.349 0.069-0.484 0.035-0.969-0.035-1.453-0.138-0.796-0.415-1.557-0.761-2.284-0.277-0.519-0.588-1.038-1.004-1.453-0.069-0.104-0.104-0.138-0.208-0.208zM25.545 12.599c-0.035 0.173 0.069 0.242 0.138 0.311 0.415 0.45 0.796 0.969 1.177 1.453 0.104 0.138 0.208 0.277 0.311 0.415s0.242 0.208 0.415 0.208c0.277 0 0.554 0.035 0.83 0.104 0.761 0.208 1.349 0.623 1.799 1.246 0.311 0.45 0.657 0.9 0.969 1.349 0.277 0.381 0.519 0.761 0.83 1.107 0.519 0.588 1.107 1.073 1.8 1.419 0.415 0.208 0.83 0.311 1.315 0.173 0.969-0.242 1.211-1.28 0.796-1.903-0.069-0.104-0.104-0.173-0.173-0.277-0.138-0.208-0.311-0.381-0.554-0.45-0.207-0.069-0.45-0.138-0.692-0.173-0.588-0.138-1.107-0.346-1.592-0.727-0.415-0.311-0.761-0.692-1.142-1.073-0.519-0.554-1.003-1.073-1.557-1.557-0.83-0.727-1.765-1.107-2.837-1.177-0.554-0.035-1.107-0.138-1.592-0.381-0.035 0.035-0.138 0-0.242-0.069zM12.050 11.526c-0.035-0.069-0.035-0.104-0.035-0.138-0.104-0.277-0.173-0.588-0.208-0.9-0.035-0.138 0.035-0.208 0.104-0.242 0.069 0 0.138 0.069 0.173 0.208 0.035 0.173 0.035 0.311 0.069 0.484 0.069 0.277 0.173 0.554 0.346 0.796 0.035 0.069 0.069 0.104 0.173 0.104-0.035-0.138-0.069-0.277-0.069-0.415 0-0.069-0.035-0.138 0-0.208 0-0.035 0.069-0.069 0.138-0.104 0.035 0 0.104 0.035 0.104 0.069 0.035 0.069 0.035 0.104 0.035 0.173 0 0.173 0.069 0.346 0.173 0.519 0.069 0.138 0.208 0.208 0.381 0.242 0-0.035 0-0.035 0-0.035-0.035-0.069-0.035-0.104-0.069-0.173s-0.035-0.138-0.035-0.208-0-0.173 0.104-0.208c0.104 0 0.138 0.035 0.173 0.138 0.035 0.069 0.035 0.138 0.069 0.173 0.069 0.138 0.138 0.277 0.242 0.381 0.069 0.104 0.208 0.138 0.346 0.069-0.035-0.069-0.069-0.104-0.104-0.173-0.104-0.173-0.208-0.381-0.277-0.554-0.035-0.104 0-0.208 0.035-0.242 0.069-0.035 0.138 0 0.208 0.138s0.138 0.311 0.208 0.45c0.104 0.173 0.208 0.311 0.381 0.45 0.069 0.035 0.138 0.069 0.242 0.035-0.069-0.173-0.138-0.346-0.208-0.519-0.035-0.069-0.035-0.173-0.035-0.242s0.035-0.138 0.104-0.138c0.035 0 0.104 0.035 0.138 0.069 0.035 0.069 0.069 0.138 0.069 0.208 0.069 0.242 0.173 0.415 0.346 0.588 0.104 0.104 0.208 0.138 0.346 0.069 0-0.069-0.035-0.104-0.035-0.173-0.035-0.104-0.069-0.208-0.069-0.277-0.035-0.104 0-0.173 0.069-0.173 0.069-0.035 0.138 0.035 0.173 0.138 0 0.035-0 0.035 0.035 0.069 0.035 0.138 0.104 0.277 0.138 0.381 0.069 0.173 0.104 0.173 0.346 0.173 0-0.035-0.035-0.104-0.035-0.138 0-0.069-0.035-0.138 0-0.208 0-0.035 0.069-0.104 0.104-0.104s0.104 0 0.138 0.035c0.035 0.035 0.035 0.069 0.069 0.104 0.069 0.104 0.104 0.208 0.173 0.311s0.138 0.138 0.277 0.173c0.208 0.035 0.415 0.069 0.623 0.138 0.138 0.035 0.311 0.069 0.45 0.104 0.104-0.138 0.104-0.277 0.104-0.45-0.069 0-0.138 0-0.208 0.035-0.173 0.035-0.381 0.035-0.554 0-0.277-0.069-0.519-0.208-0.623-0.519-0.104-0.277-0.173-0.588-0.242-0.865-0.035-0.242-0.069-0.484-0.104-0.727-0.069-0.311-0.035-0.657 0-0.969 0.035-0.45 0-0.9-0.138-1.315-0.035-0.173-0.138-0.311-0.242-0.45-0.173-0.242-0.415-0.208-0.588 0-0.104 0.138-0.208 0.311-0.242 0.484-0.069 0.242-0.104 0.519-0.138 0.796s-0.104 0.588-0.208 0.831c-0.242 0.554-0.657 0.9-1.246 0.969-0.83 0.104-1.523-0.311-1.834-1.073-0.242-0.623-0.277-1.28-0.138-1.938 0.104-0.554 0.346-1.038 0.623-1.488 0.173-0.346 0.346-0.727 0.519-1.073 0.069-0.173 0.138-0.346 0.104-0.554-0.035-0.277-0.173-0.45-0.484-0.45-0.208 0-0.381 0-0.554 0.138-0.035 0.035-0.104 0.035-0.138 0.069-0.242 0.138-0.45 0.311-0.623 0.519-0.381 0.484-0.657 1.038-0.865 1.626-0.208 0.623-0.311 1.211-0.208 1.869 0.069 0.45 0.173 0.865 0.381 1.28 0.035 0.035 0.035 0.104 0.104 0.104 0-0.035 0.035-0.035 0.035-0.069 0-0.069-0-0.138 0.035-0.173 0-0.173 0.104-0.277 0.173-0.242 0.104 0 0.138 0.138 0.104 0.277-0.035 0.104-0.035 0.208-0.035 0.311 0 0.138 0.035 0.277 0.035 0.415 0.035 0.173 0.138 0.346 0.311 0.484 0-0.069 0-0.138 0-0.208 0-0.104-0.035-0.242 0-0.346 0-0.069 0.035-0.138 0.104-0.138s0.138 0.069 0.138 0.138c0 0.069 0 0.104 0 0.173 0.035 0.242 0.035 0.45 0.138 0.657 0 0.173 0.104 0.346 0.381 0.45zM26.41 26.233c1.003 0.381 1.799 1.038 2.457 1.834 0.415-0.104 1.419-1.28 1.661-2.041-0.173-0.242-0.104-0.277 0.138-0.312 0.035-0.104 0.069-0.207 0.104-0.277s0.035-0.138-0.035-0.208c-0.035-0.069-0.069-0.104 0-0.173 0.035-0.069 0.104-0.069 0.208-0.035 0.035 0 0.035 0.035 0.069 0.035 0.484 0.208 0.969 0.381 1.419 0.588 0.311 0.138 0.623 0.277 0.934 0.45 0.035 0.035 0.069 0.035 0.104 0.035s0.104-0.035 0.104-0.035c0.035-0.035 0-0.069 0-0.104-0.035-0.035-0.069-0.069-0.104-0.104-0.173-0.138-0.346-0.312-0.485-0.45-0.069-0.035-0.104-0.104-0.173-0.138-0.588-0.312-1.211-0.554-1.869-0.761-0.173-0.069-0.208-0.035-0.277 0.138-0.173 0.415-0.346 0.796-0.588 1.211-0.035 0.069-0.069 0.138-0.138 0.173-0.035 0.035-0.104 0.035-0.138 0-0.035 0-0.069-0.104-0.035-0.138 0-0.069 0.069-0.138 0.104-0.208 0.173-0.381 0.381-0.761 0.554-1.142 0.035-0.035 0.035-0.069 0.035-0.138-0.035-0.035-0.069-0.035-0.104-0.069-0.242-0.104-0.311-0.069-0.415 0.173-0.035 0.069-0.069 0.173-0.138 0.242-0.035 0.035-0.104 0.035-0.138 0.035-0.069 0-0.069-0.069-0.069-0.138 0.035-0.069 0.035-0.138 0.069-0.207 0.207-0.45 0.415-0.9 0.588-1.315 0.069-0.138 0.138-0.242 0.104-0.415-0.104-0.035-0.173-0.035-0.242-0.069-0.104-0.035-0.138 0-0.173 0.104s-0.069 0.208-0.138 0.311c-0.207 0.484-0.381 0.934-0.588 1.419-0.035 0.035-0.035 0.104-0.069 0.138-0.035 0.069-0.104 0.104-0.173 0.069s-0.104-0.104-0.069-0.138c0-0.069 0.035-0.104 0.035-0.173 0.104-0.277 0.208-0.519 0.311-0.796 0.277-0.588 0.519-1.211 0.692-1.869 0.035-0.069 0.035-0.138 0.035-0.242-0.173-0.035-0.277 0.035-0.346 0.173-0.242 0.45-0.484 0.9-0.761 1.35-0.657 1.073-1.419 2.041-2.249 3.011-0.069 0.035-0.138 0.104-0.207 0.207zM18.313 20.039c0.069 0 0.069 0 0.104-0.035 0.381-0.138 0.796-0.277 1.176-0.45 0.208-0.069 0.415-0.138 0.623-0.242 0.138-0.069 0.173-0.104 0.138-0.242 0-0.035 0-0.069-0.035-0.104-0.104-0.45-0.242-0.865-0.346-1.315-0.173-0.657-0.242-1.315-0.242-1.972 0-0.692 0.069-1.384 0.242-2.076 0.104-0.519 0.277-1.038 0.519-1.557 0.069-0.138 0.173-0.277 0.242-0.415-0.173-0.173-0.173-0.173-0.346-0.069-0.069 0.035-0.104 0.069-0.173 0.104-0.761 0.415-1.315 1.003-1.695 1.799-0.173 0.381-0.277 0.796-0.381 1.246-0.138 0.727-0.242 1.453-0.242 2.215 0 0.9 0.069 1.765 0.277 2.63 0.035 0.138 0.069 0.311 0.138 0.484zM22.811 11.803c0 0 0 0.035-0.035 0.035 0.035 0.035 0.104 0.104 0.138 0.138 0.311 0.242 0.623 0.519 0.9 0.761 0.45 0.415 0.83 0.934 1.107 1.488 0.484 0.934 0.726 1.903 0.865 2.941 0.035 0.242 0.069 0.484 0.138 0.761 0.069 0.242 0.138 0.311 0.415 0.346 0.484 0.035 0.934 0.035 1.419 0.035 0.311 0 0.346-0.069 0.311-0.381-0.104-0.588-0.346-1.107-0.588-1.626-0.311-0.657-0.727-1.28-1.142-1.869-0.588-0.83-1.246-1.592-2.111-2.145-0.138-0.104-0.311-0.173-0.484-0.242-0.242-0.069-0.519-0.138-0.761-0.208-0.104-0.069-0.138-0.035-0.173-0.035zM12.776 15.713c0-0.035 0-0.035 0 0-0.069 0-0.138 0-0.173 0.035-0.623 0.381-1.073 0.865-1.35 1.557-0.173 0.45-0.242 0.9-0.138 1.384 0.035 0.242 0.138 0.484 0.311 0.657 0.45 0.519 1.003 0.415 1.315-0.035 0.173-0.208 0.242-0.45 0.277-0.692 0.069-0.484 0.069-0.969 0.069-1.453 0-0.415 0.104-0.83 0.311-1.211 0.035-0.069 0.035-0.104 0.069-0.173-0.035 0-0.035 0-0.035 0l-0.035 0.035c-0.381 0.346-0.692 0.727-0.83 1.211-0.104 0.311-0.138 0.657-0.173 1.003 0 0.069-0.035 0.138-0.035 0.173-0.035 0.069-0.104 0.104-0.173 0.104-0.104 0-0.173-0.035-0.173-0.138-0.035-0.069-0.035-0.138-0.035-0.173 0.035-0.208 0.035-0.415 0.069-0.623 0.069-0.554 0.311-1.038 0.657-1.453 0-0.104 0.035-0.173 0.069-0.208zM13.192 24.087c0.035 0.069 0.035 0.069 0.035 0.069 0.381 0.415 0.727 0.865 1.003 1.315 0.035 0.035 0.069 0.069 0.104 0.104 0.104-0.069 0.173-0.104 0.277-0.173-0.035-0.069-0.069-0.138-0.104-0.208-0.104-0.173-0.173-0.346-0.277-0.554-0.069-0.138-0.035-0.242 0.035-0.277s0.138 0 0.208 0.138c0.104 0.173 0.173 0.346 0.277 0.554 0.035 0.035 0.069 0.069 0.104 0.138 0.035 0 0.035 0 0.069 0 0.069-0.069 0.104-0.104 0.173-0.173 0.415-0.45 0.761-0.934 1.004-1.488 0.035-0.104 0.035-0.208-0.035-0.311-0.208-0.277-0.346-0.588-0.484-0.934-0.069-0.208-0.242-0.242-0.381-0.069-0.484 0.519-1.003 0.969-1.557 1.419-0.173 0.138-0.311 0.311-0.45 0.45zM21.981 10.108c0.035 0 0.069-0.035 0.069-0.035 0.346-0.173 0.727-0.346 1.073-0.519 0.069-0.035 0.104-0.035 0.173-0.035 0.104 0 0.173 0.035 0.208 0.104s0.035 0.173-0.035 0.242c-0.035 0.035-0.104 0.104-0.173 0.138s-0.173 0.069-0.242 0.104-0.069 0.104-0.035 0.173c0.069 0.104 0.173 0.173 0.311 0.173 0.104 0 0.173 0 0.277 0.035 0.069 0 0.138 0.035 0.173 0.069s0.069 0.104 0.069 0.173-0.069 0.138-0.138 0.173c-0.069 0-0.138 0-0.208 0-0.311 0-0.657 0-0.969 0-0.138 0-0.277 0.035-0.415 0.069-0.035 0-0.069 0.035-0.173 0.069 0.104 0.035 0.173 0.104 0.242 0.104 0.692 0.173 1.384 0.346 2.076 0.484 0.138 0.035 0.277 0.035 0.45 0 0.311-0.035 0.415-0.208 0.381-0.519-0.035-0.277-0.173-0.519-0.277-0.761-0.035-0.069-0.069-0.104-0.069-0.173-0.069-0.242-0.104-0.484-0.104-0.727 0-0.138 0-0.277 0-0.415 0-0.173-0.069-0.242-0.242-0.242s-0.346 0-0.519 0.035c-0.45 0.104-0.865 0.277-1.28 0.484-0.242 0.138-0.45 0.311-0.657 0.519-0.035 0.104-0.069 0.173 0.035 0.277zM33.849 10.142c0.104 0 0.173 0 0.277 0 0.692-0.138 1.349-0.242 2.041-0.381 0.138-0.035 0.242 0.035 0.312 0.104s0.069 0.173-0.035 0.242c-0.069 0.035-0.138 0.069-0.242 0.104-0.311 0.069-0.623 0.138-0.934 0.208-0.554 0.138-1.107 0.242-1.626 0.381-0.035 0-0.069 0.035-0.138 0.069 0.104 0.035 0.208 0.035 0.312 0.035 0.623-0.069 1.245-0.104 1.868-0.208 0.415-0.069 0.83-0.138 1.28-0.242 0.311-0.069 0.623-0.173 0.9-0.381 0.242-0.173 0.45-0.381 0.554-0.657 0.104-0.311 0-0.554-0.311-0.657-0.173-0.035-0.346-0.069-0.519-0.069-0.554 0-1.073 0.138-1.592 0.311-0.727 0.277-1.384 0.623-2.041 1.004 0 0.069-0.069 0.104-0.104 0.138zM20.112 9.762c-0.069-0.035-0.104-0.069-0.138-0.069-0.692-0.208-1.384-0.45-2.076-0.554-0.208-0.035-0.415-0.035-0.623 0-0.138 0.035-0.242 0.104-0.277 0.242-0.035 0.208-0.104 0.381-0.069 0.588 0.035 0.346 0.069 0.692 0.138 1.038 0.035 0.277 0.104 0.519 0.277 0.761 0.104 0.173 0.277 0.242 0.484 0.208 0.069 0 0.104-0.035 0.173-0.035 0.761-0.208 1.419-0.554 2.076-0.934 0.035 0 0.035-0.069 0.069-0.104-0.138-0.069-0.242-0.035-0.311 0-0.311 0.104-0.588 0.208-0.9 0.311-0.138 0.035-0.242 0.104-0.381 0.138s-0.242 0-0.277-0.104c-0.035-0.104 0-0.208 0.138-0.277 0.069-0.035 0.138-0.069 0.208-0.104 0.173-0.069 0.277-0.208 0.277-0.415-0.069-0.035-0.104-0.069-0.173-0.104-0.104-0.035-0.208-0.069-0.311-0.104s-0.173-0.035-0.277-0.104c-0.173-0.104-0.208-0.277 0-0.381 0.069-0.035 0.138-0.069 0.208-0.069 0.173 0 0.346 0.035 0.519 0.035 0.415 0.035 0.796 0.104 1.177 0.242 0 0 0.035 0 0.069 0-0.069-0.035-0.035-0.104 0-0.208zM7.967 10.454c0 0 0-0.035 0.035-0.035-0.035-0.035-0.104-0.104-0.138-0.138-0.208-0.138-0.415-0.277-0.623-0.415-0.83-0.554-1.799-0.796-2.803-0.727-0.346 0.035-0.657 0.104-0.969 0.277-0.173 0.104-0.311 0.208-0.381 0.381-0.069 0.138-0.069 0.277 0 0.415 0.104 0.138 0.242 0.242 0.381 0.311 0.242 0.104 0.484 0.173 0.727 0.208 0.623 0.104 1.246 0.138 1.869 0.104 0.242 0 0.484-0.035 0.692 0 0.277 0 0.519 0.035 0.796 0.035 0.069 0 0.104 0 0.173 0-0.035-0.069-0.104-0.069-0.138-0.104-0.934-0.311-1.903-0.484-2.907-0.588-0.138 0-0.277-0.035-0.381-0.069s-0.173-0.104-0.138-0.208c0-0.104 0.069-0.173 0.173-0.173 0.035 0 0.104 0 0.138 0 0.346 0.035 0.657 0.069 1.003 0.104 0.623 0.069 1.246 0.208 1.869 0.381 0.208 0.104 0.415 0.173 0.623 0.242zM5.89 8.308c0.035 0 0.035 0 0 0 0-0.069-0.035-0.104-0.069-0.138-0.346-0.346-0.727-0.657-1.176-0.83-1.003-0.415-2.042-0.554-3.114-0.415-0.208 0.035-0.45 0.104-0.657 0.173-0.069 0.035-0.104 0.069-0.173 0.138 0.069 0.138 0.138 0.208 0.242 0.277 0.311 0.242 0.657 0.381 1.003 0.554 0.484 0.208 0.969 0.346 1.488 0.381 0.484 0.035 1.003 0.104 1.488 0.138 0.035 0 0.104 0 0.173 0 0-0.035 0-0.035-0.035-0.035-0.035-0.035-0.069-0.035-0.104-0.069-0.657-0.277-1.315-0.45-2.007-0.554-0.104 0-0.208-0.035-0.311-0.104-0.138-0.069-0.138-0.277 0-0.381 0.069-0.035 0.173-0.069 0.242-0.069 0.173 0 0.346 0.035 0.484 0.069 0.83 0.173 1.592 0.45 2.353 0.796 0.069 0.035 0.138 0.069 0.173 0.069zM4.333 2.149c0.035 0.346 0.069 0.657 0.104 1.003 0.035 0.311-0.035 0.657-0.104 0.969 0.173 0.208 0.346 0.415 0.554 0.657 0.035-0.035 0.035-0.069 0.069-0.104 0.104-0.208 0.208-0.415 0.242-0.623 0.035-0.138 0.069-0.311 0-0.45-0.173-0.484-0.415-0.9-0.727-1.28-0.035-0.069-0.069-0.104-0.138-0.173zM3.226 1.422c0.035 0.104 0.035 0.173 0.069 0.242 0.035 0.138 0.104 0.277 0.104 0.415 0.035 0.346 0.069 0.657 0.104 1.003 0.035 0.415-0.035 0.311 0.311 0.588 0.069 0.069 0.173 0.138 0.277 0.208 0.035-0.069 0.035-0.138 0.035-0.173 0-0.104 0-0.242 0.035-0.346 0-0.415-0.069-0.796-0.138-1.211-0.035-0.311-0.173-0.45-0.415-0.554-0.069-0.035-0.138-0.069-0.208-0.104-0.035-0.035-0.104-0.035-0.173-0.069zM2.915 5.021c0 0-0 0.035-0.035 0.035 0.173 0.138 0.346 0.277 0.519 0.381s0.381 0.208 0.588 0.311c0.208 0.104 0.415 0.173 0.623 0.277 0.208 0.069 0.381 0.173 0.623 0.208-0.035-0.069-0.035-0.104-0.035-0.104-0.208-0.346-0.45-0.657-0.657-1.003-0.104-0.138-0.208-0.173-0.381-0.138-0.346 0.069-0.657 0.069-1.003 0.035-0.035 0-0.138 0-0.242 0zM3.226 3.222c0-0.138 0-0.208 0-0.277-0.035-0.311-0.069-0.623-0.138-0.934-0.035-0.208-0.138-0.381-0.173-0.588-0.035-0.069-0.069-0.138-0.138-0.173-0.242-0.035-0.45-0.104-0.692-0.138 0 0-0.035 0-0.069 0.035 0.035 0.035 0.035 0.104 0.069 0.138 0.069 0.138 0.138 0.277 0.208 0.415 0.173 0.346 0.277 0.692 0.346 1.038 0 0.069 0.035 0.138 0.069 0.173 0.173 0.069 0.311 0.173 0.519 0.311zM38.659 5.575c-0.104-0.138-0.208-0.208-0.415-0.208-0.346-0.035-0.657 0.035-0.969 0.138-0.796 0.311-1.419 0.796-1.972 1.384-0.035 0.035-0.035 0.069-0.069 0.104 0.035 0 0.069 0 0.104-0.035 0.208-0.138 0.415-0.242 0.623-0.381 0.796-0.484 1.661-0.9 2.63-1.003 0 0.035 0.035 0.035 0.069 0zM34.784 6.786c0.173-0.173 0.346-0.311 0.415-0.484 0.173-0.415 0.312-0.796 0.381-1.211 0.035-0.104 0-0.242 0-0.346s-0.069-0.138-0.173-0.138c-0.173 0.035-0.346 0.138-0.45 0.311-0.138 0.208-0.173 0.45-0.173 0.692 0 0.346 0 0.692 0 1.073-0.035 0-0.035 0 0 0.104zM1.876 3.914c0 0.035 0 0.069 0.035 0.104 0.138 0.173 0.277 0.311 0.381 0.484 0.035 0.035 0.069 0.069 0.104 0.069 0.173 0.069 0.346 0.138 0.554 0.138 0.381 0.069 0.727 0.069 1.107 0 0.035 0 0.104-0.035 0.173-0.035-0.069-0.173-0.208-0.242-0.311-0.381-0.346-0.346-0.242-0.277-0.727-0.242-0.311 0.035-0.657-0-0.969-0.069-0.104 0-0.208-0.035-0.346-0.069zM20.631 10.938c0.208 0.069 0.381 0.035 0.588 0.035 0.138 0 0.173-0.035 0.208-0.173 0.035-0.173 0.069-0.311 0.069-0.484s-0.035-0.381-0.173-0.554c-0.104-0.138-0.277-0.208-0.45-0.138-0.173 0.035-0.381 0.208-0.381 0.415 0.035 0.311 0.035 0.588 0.138 0.9zM38.728 5.921c-0.45-0.138-2.388 0.623-2.872 1.142 0.069 0 0.104-0.035 0.138-0.035 0.277-0.069 0.588-0.138 0.865-0.208 0.346-0.104 0.727-0.173 1.073-0.277 0.208-0.069 0.381-0.138 0.554-0.277 0.104-0.104 0.208-0.208 0.242-0.346zM2.292 2.633c0-0.035 0.035-0.069 0.035-0.069-0.104-0.484-0.311-0.969-0.623-1.349-0.069-0.069-0.138-0.104-0.242-0.104-0.173 0-0.381 0.035-0.554 0.035-0.035 0-0.069 0.035-0.138 0.069 0.415 0.588 0.934 1.038 1.523 1.419zM30.804 20.904c0-0.035 0-0.104 0-0.138-0.035-0.138-0.069-0.311-0.138-0.45-0.069-0.173-0.208-0.242-0.381-0.208-0.069 0-0.138 0.035-0.208 0.035-0.242 0-0.381 0.173-0.519 0.311-0.069 0.069-0.138 0.173-0.104 0.277 0.173 0.104 1.073 0.242 1.349 0.173zM30.977 27.617c0.104-0.138 0.173-0.277 0.242-0.381-0.069-0.069-0.104-0.104-0.173-0.138s-0.104-0.069-0.173-0.138-0.069-0.138-0.035-0.173c0.035-0.069 0.104-0.069 0.173-0.035 0.035 0.035 0.069 0.035 0.104 0.069 0.069 0.035 0.138 0.069 0.173 0.104 0.104-0.104 0.208-0.277 0.242-0.485-0.208-0.104-0.415-0.208-0.657-0.277-0.173 0.277-0.311 0.554-0.45 0.831 0 0.035 0 0.104 0.035 0.138 0.069 0.069 0.138 0.138 0.208 0.208 0.104 0.104 0.208 0.173 0.311 0.277zM14.818 21.596c0.035 0.035 0.069 0.035 0.104 0.035 0.311 0 0.588 0.035 0.9 0.035 0.138 0 0.208-0.104 0.173-0.208-0.035-0.173-0.138-0.311-0.242-0.415-0.138-0.104-0.277-0.138-0.45-0.069-0.208 0.104-0.346 0.277-0.45 0.484 0 0.069 0 0.104-0.035 0.138zM29.144 28.447c0.069 0.173 0.277 0.519 0.381 0.588 0.242-0.138 0.484-0.311 0.657-0.519-0.104-0.208-0.312-0.484-0.45-0.554-0.138 0.173-0.311 0.381-0.588 0.484zM32.154 24.675c0.035-0.035 0.035 0 0 0 0-0.069-0.035-0.104-0.069-0.173-0.069-0.069-0.138-0.173-0.208-0.242-0.138-0.242-0.381-0.346-0.623-0.45-0.104-0.035-0.208-0.104-0.346-0.069-0.069 0.138-0.138 0.311-0.138 0.484 0.519 0.138 0.969 0.277 1.384 0.45zM21.704 11.803c-0.138 0.069-0.242 0.104-0.311 0.173-0.069 0.035-0.104 0.104-0.069 0.208 0.035 0.138 0.069 0.277 0.138 0.381 0.069 0.173 0.173 0.346 0.346 0.484 0.104 0.069 0.104 0.069 0.242 0-0.104-0.415-0.242-0.796-0.346-1.246zM3.191 3.845v-0.035c-0.173-0.104-0.311-0.208-0.484-0.277-0.035-0.035-0.069 0-0.104 0-0.381 0-0.727-0.138-1.038-0.346-0.069-0.035-0.104-0.069-0.173-0.104 0 0.173 0.069 0.311 0.173 0.415 0 0.035 0.035 0.035 0.069 0.035 0.346 0.208 0.692 0.311 1.107 0.346 0.138-0.035 0.277-0.035 0.45-0.035zM22.050 11.907c0 0.069 0 0.104 0 0.138 0.104 0.311 0.173 0.623 0.277 0.934 0.035 0.104 0.138 0.138 0.208 0.069 0.069-0.035 0.138-0.104 0.138-0.173 0.035-0.138 0.035-0.311 0-0.45-0.035-0.104-0.138-0.173-0.242-0.242s-0.208-0.138-0.311-0.208c0-0.035-0.035-0.035-0.069-0.069zM38.417 13.257c0-0.208-0.138-0.346-0.311-0.381-0.208 0-0.381 0.208-0.381 0.45 0 0.208 0.104 0.311 0.346 0.311 0.208 0.035 0.346-0.138 0.346-0.381zM34.092 7.755c0.069-0.104 0.138-0.208 0.173-0.311 0.069-0.104 0.069-0.173 0.069-0.277-0.069-0.381-0.069-0.796-0.035-1.177 0-0.035 0-0.104-0.035-0.173-0.173 0.311-0.277 0.865-0.242 1.592 0 0.138-0.035 0.242 0.069 0.346zM31.912 25.713c-0.242-0.104-0.415-0.173-0.623-0.242-0.104-0.035-0.138 0-0.173 0.069-0.035 0.104-0.069 0.208-0.104 0.346 0.242 0.104 0.45 0.208 0.727 0.311 0.035-0.173 0.104-0.311 0.173-0.485zM31.981 3.533c0.173 0 0.311-0.104 0.346-0.242 0.069-0.242-0.208-0.45-0.415-0.415s-0.381 0.277-0.242 0.484c0.035 0.104 0.173 0.173 0.311 0.173zM30.424 21.457c-0.138-0.035-0.138 0-0.173 0.069-0.035 0.173-0.104 0.346-0.138 0.519-0.035 0.104-0.035 0.173-0.069 0.311 0.138 0.035 0.277 0.069 0.381 0.104 0.104-0.208 0.173-0.381 0.104-0.554-0.035-0.173-0.069-0.311-0.104-0.45zM30.251 27.375c-0.277 0.277-0.277 0.311-0.069 0.554 0.035 0.069 0.104 0.138 0.138 0.208 0.035 0.035 0.069 0.104 0.138 0.173 0.104-0.138 0.173-0.242 0.277-0.346-0.138-0.242-0.311-0.415-0.485-0.588zM40.632 1.561c-0.035-0.208-0.242-0.415-0.485-0.242-0.069 0.069-0.138 0.173-0.104 0.277s0.104 0.208 0.208 0.242c0.069 0.035 0.173 0.069 0.242 0.035s0.104-0.138 0.138-0.208c0-0.035 0-0.069 0-0.104zM21.462 13.222c-0.138-0.277-0.277-0.588-0.45-0.865-0.242 0.277-0.242 0.484-0.035 0.727 0.035 0.035 0.069 0.069 0.104 0.104 0.173 0.104 0.242 0.104 0.381 0.035zM16.202 24.33c0.069 0.138 0.138 0.277 0.277 0.346 0.104-0.138 0.208-0.277 0.346-0.415-0.104-0.138-0.208-0.277-0.346-0.381-0.104 0.173-0.173 0.311-0.277 0.45zM32.915 26.856c0.138-0.173 0.242-0.311 0.346-0.485-0.138-0.104-0.277-0.173-0.45-0.208-0.069 0.173-0.208 0.312-0.208 0.485 0.104 0.069 0.208 0.138 0.311 0.208zM30.355 29.935c-0.104 0.104-0.208 0.173-0.277 0.242-0.035 0.035-0.035 0.104-0.035 0.173 0.035 0.138 0.104 0.277 0.138 0.415 0 0.035 0.035 0.069 0.069 0.104 0.104-0.138 0.173-0.277 0.242-0.415 0-0.035 0-0.069 0-0.104 0-0.138-0.069-0.242-0.138-0.415zM16.963 25.264c0.138-0.138 0.277-0.242 0.415-0.381-0.104-0.173-0.208-0.242-0.346-0.346-0.104 0.138-0.208 0.277-0.311 0.415 0.035 0.173 0.104 0.242 0.242 0.311zM35.683 16.094c0.138 0 0.242-0.104 0.242-0.311 0-0.346-0.346-0.415-0.484-0.104 0 0.035-0.035 0.069-0.035 0.138 0 0.173 0.104 0.277 0.277 0.277zM29.974 29.105c-0.138 0.069-0.208 0.138-0.311 0.208 0.104 0.208 0.173 0.381 0.277 0.623 0.104-0.104 0.173-0.173 0.242-0.242 0.035-0.035 0.035-0.104 0-0.104-0.035-0.173-0.104-0.311-0.208-0.485zM32.154 25.817c-0.069 0.173-0.104 0.311-0.173 0.45 0.104 0.104 0.208 0.173 0.346 0.208 0.104-0.138 0.207-0.312 0.207-0.485-0.104-0.035-0.207-0.104-0.381-0.173zM31.842 26.613c-0.069 0.173-0.173 0.312-0.242 0.519 0.104 0.069 0.173 0.138 0.277 0.208 0.138-0.173 0.208-0.346 0.312-0.554-0.104-0.104-0.173-0.173-0.346-0.173zM32.361 27.686c0.138-0.173 0.277-0.381 0.381-0.554-0.104-0.069-0.208-0.138-0.311-0.207-0.138 0.208-0.242 0.381-0.311 0.588 0.035 0.035 0.035 0.069 0.069 0.069 0.069 0.035 0.104 0.035 0.173 0.104zM8.382 4.606c0.035 0 0.069 0 0.104-0.035 0.069-0.035 0.173-0.242 0.138-0.346-0.035-0.138-0.346-0.277-0.45-0.138-0.069 0.104-0.104 0.208-0.069 0.311s0.173 0.242 0.277 0.208zM30.839 28.897c0.035-0.035 0.069-0.035 0.069-0.035 0.035-0.069 0.104-0.104 0.138-0.173 0.173-0.208 0.138-0.208-0.035-0.415-0.035-0.035-0.069-0.035-0.104-0.069-0.138 0.104-0.207 0.242-0.311 0.381 0.104 0.069 0.173 0.173 0.242 0.311zM31.427 28.101c0.138-0.173 0.242-0.312 0.312-0.485-0.138-0.138-0.138-0.138-0.312-0.208-0.069 0.104-0.138 0.242-0.207 0.346 0 0.035 0 0.104 0 0.138 0.069 0.069 0.138 0.104 0.207 0.208zM5.406 4.537c-0.035 0-0.035 0-0.069 0-0.035 0.069-0.069 0.138-0.104 0.173-0.173 0.208-0.138 0.415 0.035 0.623 0.035 0.035 0.069 0.138 0.173 0.173 0-0.346 0-0.657-0.035-0.969zM30.493 24.087c0.104-0.138 0.138-0.311 0.173-0.484-0.104-0.035-0.208-0.069-0.311-0.104-0.104 0.173-0.173 0.312-0.208 0.485 0.104 0.104 0.242 0.104 0.346 0.104zM6.998 14.952c0-0.138-0.069-0.277-0.208-0.277s-0.277 0.138-0.277 0.277c0 0.173 0.208 0.277 0.381 0.208 0.069-0.035 0.104-0.104 0.104-0.208zM14.852 26.613c0.104-0.104 0.138-0.173 0.208-0.242-0.104-0.173-0.104-0.311-0.242-0.45-0.069 0.035-0.173 0.069-0.242 0.138 0.069 0.173 0.173 0.346 0.277 0.554zM31.981 27.79c-0.104 0.138-0.173 0.277-0.242 0.415-0.104 0.138-0.104 0.173 0.069 0.311 0.104-0.138 0.207-0.277 0.311-0.415 0.069-0.173 0.069-0.208-0.138-0.312zM31.393 28.69c-0.138 0.138-0.242 0.277-0.311 0.415-0.069 0.104 0 0.173 0.104 0.277 0.104-0.138 0.208-0.277 0.311-0.415 0.069-0.138 0.069-0.173-0.104-0.277zM30.735 23.326c0.069-0.173 0.138-0.311 0.138-0.45-0.104-0.035-0.173-0.035-0.242-0.069-0.069 0.138-0.138 0.277-0.138 0.45 0.069 0 0.173 0.035 0.242 0.069zM15.198 26.786c-0.069 0.035-0.138 0.104-0.208 0.138 0.069 0.173 0.104 0.346 0.208 0.484 0.208-0.208 0.242-0.277 0-0.623zM30.424 28.759c-0.104 0.069-0.208 0.104-0.173 0.208 0.035 0.138 0.104 0.277 0.208 0.415 0.069-0.069 0.104-0.104 0.138-0.173 0.035-0.035 0.035-0.104 0-0.138-0.035-0.104-0.104-0.208-0.173-0.312zM15.441 25.368c0.069 0.138 0.138 0.242 0.208 0.381 0.069-0.069 0.138-0.138 0.208-0.208 0.035-0.035 0.035-0.104 0-0.104-0.069-0.104-0.104-0.173-0.208-0.277-0.069 0.035-0.138 0.104-0.208 0.208zM22.915 13.084c0.173 0.035 0.346 0.104 0.519 0.138-0.104-0.208-0.242-0.381-0.415-0.554-0.035 0.138-0.069 0.277-0.104 0.415zM16.098 25.229c0.069-0.069 0.104-0.138 0.138-0.173s0.035-0.104 0-0.104c-0.069-0.104-0.138-0.173-0.208-0.242-0.173 0.104-0.208 0.173-0.173 0.277 0.104 0.035 0.173 0.138 0.242 0.242zM33.538 0.8c0 0.069 0 0.138 0.035 0.173 0 0.035 0.035 0.069 0.035 0.104 0.035 0.035 0.104 0.035 0.138 0 0.381-0.173-0.173-0.623-0.208-0.277zM16.133 25.783c-0.069 0.104-0.138 0.138-0.173 0.208-0.104 0.138-0.104 0.208 0.069 0.346 0.104-0.104 0.173-0.242 0.277-0.346-0.069-0.069-0.104-0.104-0.173-0.208zM30.735 30.039c0.208-0.208 0.242-0.415 0.069-0.554-0.242 0.173-0.242 0.242-0.069 0.554zM15.060 25.713c0.069 0.173 0.138 0.277 0.208 0.415 0.138-0.069 0.173-0.104 0.138-0.173-0.035-0.104-0.069-0.242-0.242-0.346-0.035 0-0.069 0.035-0.104 0.104zM16.721 25.506c-0.069-0.069-0.104-0.138-0.173-0.173-0.242 0.173-0.242 0.346-0.035 0.415 0.069-0.069 0.138-0.173 0.208-0.242zM15.441 26.579c0.035 0.104 0.104 0.208 0.138 0.277 0.208-0.138 0.208-0.277 0.035-0.45-0.069 0.035-0.104 0.104-0.173 0.173zM20.7 13.153c-0.069 0.138-0.138 0.242-0.069 0.415 0.104-0.035 0.173-0.104 0.311-0.173-0.104-0.069-0.173-0.138-0.242-0.242zM31.289 23.499l0.035-0.035c-0.069-0.069-0.104-0.173-0.173-0.242h-0.035c0 0.069-0.035 0.104-0.035 0.208 0.069 0 0.138 0.035 0.207 0.069z"></path>
<path d="M3.226 15.644c0-0.104 0.035-0.208 0.035-0.311 0.035-0.173 0.069-0.277 0.208-0.381 0.069-0.069 0.138-0.035 0.208 0s0.104 0.104 0.104 0.208c0 0.035 0 0.104-0.035 0.138-0.138 0.311-0.104 0.657 0 0.969 0.173 0.484 0.484 0.831 0.934 1.107 0.208 0.138 0.381 0.242 0.588 0.346 0.069 0.035 0.138 0.069 0.173 0.138 0.069 0.069 0.069 0.173 0.035 0.242s-0.138 0.104-0.242 0.104c-0.035 0-0.069 0-0.104-0.035-0.484-0.242-0.969-0.519-1.35-0.934-0.173-0.208-0.311-0.45-0.415-0.692-0.069-0.173-0.138-0.381-0.173-0.588 0.035-0.104 0.035-0.208 0.035-0.311z"></path>
<path d="M14.472 13.914c-0.45-0.035-0.9-0-1.35 0.104-0.346 0.104-0.692 0.208-1.038 0.346-0.069 0.035-0.138 0.035-0.208 0.069-0.138 0.035-0.242-0.035-0.277-0.138s-0-0.208 0.138-0.277c0.035 0 0.035-0.035 0.069-0.035 0.623-0.242 1.211-0.45 1.869-0.519 0.242-0.035 0.484 0 0.727 0 0.069 0 0.138 0.035 0.208 0.069 0.104 0.035 0.138 0.138 0.138 0.242s-0.104 0.138-0.208 0.173c0-0.035-0.035-0.035-0.069-0.035z"></path>
<path d="M15.821 13.533c0.311 0.035 0.692 0.069 1.038 0.138 0.069 0 0.173 0.069 0.242 0.104s0.069 0.104 0.035 0.173c-0.035 0.069-0.069 0.138-0.173 0.138-0.035 0-0.104 0-0.138 0-0.415-0.104-0.796-0.104-1.211-0.104-0.069 0-0.138 0-0.173-0.035-0.104-0.035-0.173-0.104-0.173-0.208s0.035-0.173 0.173-0.173c0.104 0 0.242 0 0.381-0.035z"></path>
<path d="M27.24 13.637c0.138 0.035 0.346 0.104 0.554 0.173 0.796 0.277 1.523 0.692 2.18 1.211 0.208 0.173 0.415 0.311 0.623 0.484 0.069 0.069 0.138 0.104 0.173 0.173 0.069 0.104 0.069 0.208-0.035 0.277-0.069 0.069-0.138 0.104-0.277 0-0.208-0.173-0.415-0.346-0.623-0.519-0.415-0.346-0.9-0.623-1.419-0.83-0.381-0.173-0.761-0.346-1.177-0.45-0.138-0.035-0.277-0.208-0.277-0.381-0.035-0.104 0.035-0.138 0.277-0.138z"></path>
<path d="M34.749 19.035c-0.035 0-0.069-0.035-0.138-0.035-0.9-0.208-1.661-0.727-2.353-1.28-0.104-0.069-0.173-0.138-0.277-0.208-0.104-0.104-0.069-0.242 0.034-0.311 0.069-0.035 0.138-0.069 0.208 0 0.069 0.035 0.173 0.104 0.242 0.173 0.415 0.311 0.831 0.623 1.28 0.865 0.311 0.173 0.623 0.277 0.969 0.346 0.069 0.035 0.173 0.069 0.208 0.138 0.069 0.069 0.069 0.138 0.035 0.242 0 0.035-0.069 0.069-0.208 0.069z"></path>
<path d="M31.289 16.302c0 0.104-0.104 0.173-0.173 0.173-0.104 0-0.173-0.069-0.173-0.173s0.104-0.173 0.208-0.173c0.069 0.035 0.138 0.104 0.138 0.173z"></path>
<path d="M10.666 8.066c0.035-0.415 0.069-0.865 0.138-1.28 0.104-0.692 0.415-1.315 0.9-1.834 0.069-0.069 0.138-0.173 0.208-0.242 0.104-0.104 0.208-0.104 0.277-0.035s0.104 0.208 0.035 0.311c-0.035 0.069-0.069 0.104-0.138 0.173-0.415 0.484-0.761 1.038-0.865 1.661-0.069 0.311-0.069 0.623-0.104 0.934 0 0.138 0 0.277-0.035 0.381-0.035 0.173-0.138 0.277-0.242 0.277-0.138 0-0.208-0.138-0.208-0.311 0.035 0 0.035 0 0.035-0.035z"></path>
<path d="M16.064 9.035c0 0 0 0.035 0 0.069-0.138 0.623-0.104 1.246 0.069 1.869 0.035 0.104 0.035 0.208 0.035 0.311s-0.069 0.173-0.173 0.208c-0.104 0-0.173-0.035-0.242-0.138-0.035-0.035-0.035-0.069-0.035-0.138-0.104-0.484-0.208-1.004-0.173-1.523 0-0.208 0.035-0.381 0.069-0.588 0-0.069 0.035-0.138 0.069-0.208 0.035-0.104 0.138-0.173 0.242-0.138 0.069 0.069 0.138 0.138 0.138 0.277z"></path>
<path d="M19.835 18.62c0 0.173-0.138 0.277-0.311 0.208-0.035-0.035-0.104-0.069-0.104-0.104-0.035-0.069-0.069-0.138-0.104-0.242-0.138-0.519-0.208-1.073-0.242-1.626-0.035-0.242-0.035-0.484-0.069-0.727 0-0.069 0-0.138 0-0.242s0.069-0.138 0.173-0.173c0.069 0 0.173 0.035 0.208 0.138 0.035 0.035 0.035 0.104 0.035 0.173 0.035 0.484 0.104 0.969 0.138 1.419 0.035 0.381 0.104 0.727 0.208 1.073 0.035 0.035 0.035 0.069 0.069 0.104z"></path>
<path d="M26.929 17.478c0 0.069-0.035 0.104-0.035 0.173-0.035 0.104-0.138 0.138-0.208 0.138s-0.173-0.069-0.173-0.173c-0.035-0.104-0.035-0.208-0.035-0.311-0.138-0.623-0.277-1.211-0.415-1.834 0-0.069-0.035-0.104-0.035-0.173 0-0.104 0.069-0.208 0.173-0.242 0.069-0.035 0.173 0 0.208 0.104 0.035 0.069 0.069 0.104 0.069 0.173 0.138 0.623 0.277 1.246 0.45 1.834-0.035 0.138-0.035 0.242 0 0.311z"></path>
</symbol>
<symbol id="icon-svg2" viewBox="0 0 9 32">
<path d="M8.769 5.553c-0.336 1.077-0.875 2.019-1.952 2.49-0.067 0.067-0.135 0.067-0.202 0.135-0.135 0.135-0.135 0.269 0 0.336 0.269 0.135 0.471 0.269 0.606 0.471 0.269 0.269 0.404 0.606 0.404 0.942 0 0.202 0 0.404 0 0.606-0.135 0.74-0.202 1.48-0.404 2.221-0.135 0.673-0.202 1.346-0.336 2.019-0.067 0.202-0.135 0.471-0.202 0.673-0.135 0.942-0.269 1.951-0.471 2.894-0.067 0.336-0.135 0.74-0.202 1.077-0.336 1.682-0.673 3.432-1.077 5.114-0.202 0.875-0.336 1.682-0.538 2.557-0.135 0.673-0.269 1.413-0.404 2.086-0.067 0.471-0.269 0.942-0.471 1.413-0.269 0.538-0.606 0.942-1.211 1.211-0.336 0.135-0.74 0.202-1.144 0.135-0.336-0.067-0.606-0.202-0.808-0.471-0.202-0.202-0.336-0.471-0.336-0.74 0-0.336 0-0.74 0.135-1.077 0.067-0.202 0.067-0.404 0.135-0.606 0.202-1.211 0.404-2.355 0.606-3.567 0.202-1.279 0.404-2.49 0.606-3.768 0.135-0.942 0.269-1.952 0.404-2.894 0.067-0.673 0.202-1.346 0.336-2.019 0.269-1.211 0.538-2.423 0.808-3.634 0.135-0.538 0.202-1.144 0.336-1.682 0.067-0.471 0.202-1.009 0.336-1.48 0.135-0.404 0.202-0.808 0.538-1.077 0.202-0.202 0.337-0.336 0.606-0.404 0.202-0.067 0.404-0.067 0.606-0.135s0.269-0.202 0.135-0.336c-0.135-0.135-0.269-0.269-0.404-0.471-0.404-0.404-0.606-0.942-0.673-1.48s0-1.009 0.202-1.48c0.202-0.471 0.404-0.875 0.673-1.279 0.606-0.942 1.144-1.884 1.75-2.826 0.067-0.135 0.135-0.202 0.202-0.336 0.202-0.269 0.471-0.202 0.606 0.135 0 0.067 0.067 0.135 0.067 0.202 0.202 1.211 0.471 2.49 0.673 3.701 0.135 0.471 0.135 0.875 0.067 1.346zM6.751 7.37h0.067c0.135-0.135 0.269-0.202 0.404-0.336 0.404-0.404 0.606-0.875 0.74-1.346 0.135-0.606 0.135-1.279 0.067-1.884-0.135-0.875-0.269-1.682-0.404-2.557 0-0.067 0-0.067-0.067-0.135-0.067 0.067-0.067 0.135-0.135 0.135-0.538 1.009-1.077 1.952-1.548 2.961-0.337 0.606-0.538 1.279-0.538 2.019 0 0.404 0.202 0.74 0.471 1.009 0 0 0.067 0 0.135 0 0-0.067 0-0.135 0.067-0.202 0.135-0.673 0.269-1.413 0.471-2.086 0-0.067 0.067-0.202 0.135-0.269 0.135-0.202 0.404-0.135 0.471 0.067 0 0.067 0.067 0.135 0.067 0.202 0 0.135-0.067 0.269-0.067 0.404-0.067 0.538-0.135 1.077-0.202 1.615-0.135 0.202-0.135 0.269-0.135 0.404zM0.896 30.116c-0.067 0.471 0.269 0.875 0.74 1.009s1.009-0.269 1.211-0.673c0.135-0.336 0.202-0.74 0.336-1.077 0.067-0.202 0-0.202-0.135-0.202-0.202 0-0.471 0-0.673-0.067-0.336-0.067-0.606-0.202-0.942-0.269-0.202-0.067-0.202 0-0.269 0.135-0.135 0.067-0.202 0.875-0.269 1.144zM3.386 15.917c-0.135 0.135-0.135 0.269-0.135 0.404 0 0.202 0 0.404 0 0.606 0 0.269 0.067 0.538 0.336 0.673 0.538 0.404 1.077 0.74 1.682 1.144 0 0 0.067 0 0.135 0.067 0-0.067 0.067-0.135 0.067-0.202 0.067-0.269 0.135-0.606 0.135-0.875 0.067-0.202-0-0.202-0.135-0.336-0.067 0-0.067-0.067-0.135-0.067-0.538-0.471-1.144-0.875-1.75-1.279-0.067-0.067-0.135-0.067-0.202-0.135zM4.395 24.059c0-0.067 0.067-0.135 0.067-0.135 0.067-0.269 0.135-0.606 0.202-0.875 0.067-0.135 0-0.269-0.135-0.404-0.067 0-0.067-0.067-0.135-0.135-0.404-0.404-0.74-0.74-1.144-1.144-0.202-0.202-0.404-0.336-0.606-0.538-0.135-0.067-0.202-0.067-0.202 0.067-0.067 0.269-0.135 0.538 0 0.808 0.135 0.336 0.269 0.673 0.538 0.942 0.404 0.471 0.875 0.875 1.413 1.279-0.067 0.067-0.067 0.067 0 0.135zM5.741 16.522c0.135-0.202 0.269-0.808 0.202-1.009-0.067 0-0.135-0.067-0.135-0.067-0.067 0-0.135-0.067-0.135-0.135-0.471-0.538-1.077-0.942-1.682-1.346-0.067-0.067-0.135-0.067-0.202-0.067 0 0.067-0.067 0.067-0.067 0.135-0.067 0.269-0.067 0.606-0.135 0.875 0 0.202 0.067 0.336 0.202 0.404 0.336 0.202 0.673 0.471 1.009 0.673s0.606 0.404 0.942 0.538zM4.866 21.435c0-0.067 0.067-0.135 0.067-0.202 0-0.269 0.067-0.606 0.067-0.875s-0.067-0.471-0.269-0.606c-0.404-0.337-0.808-0.673-1.279-0.942-0.067-0.067-0.202-0.135-0.269-0.135-0.135-0.067-0.135 0-0.202 0.067 0 0.135-0.067 0.269-0.067 0.404-0.067 0.337 0 0.606 0.269 0.875 0.538 0.471 1.009 0.942 1.548 1.413 0-0.067 0.067-0.067 0.135 0zM4.059 25.943c0-0.067 0.067-0.202 0.067-0.269 0-0.135 0-0.202-0.067-0.269-0.404-0.404-0.74-0.875-1.144-1.279-0.202-0.202-0.404-0.404-0.606-0.606-0.135-0.135-0.202-0.135-0.269 0-0.135 0.337-0.202 0.606 0 0.942 0.404 0.673 0.808 1.211 1.346 1.75 0.067 0.067 0.202 0.135 0.269 0.202 0.135 0.067 0.202 0.067 0.269-0.135 0.067-0.067 0.135-0.202 0.135-0.337zM4.193 11.744c-0.067 0.269-0.135 0.471-0.135 0.673 0 0.336 0.067 0.606 0.336 0.808 0.538 0.404 1.077 0.808 1.615 1.211 0.067 0 0.067 0.067 0.135 0.067 0.067-0.135 0.202-0.74 0.202-0.808s-0.067-0.135-0.135-0.135-0.269-0.135-0.336-0.269c-0.471-0.404-1.009-0.875-1.481-1.279-0.067-0.135-0.135-0.202-0.202-0.269zM3.319 28.097c-0.067-0.135-0.067-0.202-0.135-0.336-0.135-0.135-0.269-0.337-0.404-0.471-0.336-0.404-0.673-0.74-1.009-1.144-0.067-0.067-0.067-0.135-0.202-0.135s-0.135 0.067-0.202 0.202c-0.067 0.337-0.135 0.673-0.135 1.009 0 0.135 0 0.269 0.202 0.336 0.067 0.067 0.202 0.067 0.269 0.135 0.471 0.202 0.875 0.336 1.413 0.404 0 0 0.067 0 0.202 0zM6.549 12.35c0-0.135 0.067-0.202 0.067-0.269 0-0.135-0-0.202 0.067-0.337 0.067-0.269 0.067-0.269-0.202-0.404-0.538-0.336-1.144-0.538-1.682-0.74-0.135-0.067-0.202-0-0.202 0.067-0.067 0.135 0 0.202 0.067 0.336 0.067 0.067 0.202 0.135 0.269 0.269 0.471 0.337 0.875 0.606 1.346 0.942 0.067 0 0.135 0.067 0.269 0.135zM5.136 9.927c0.202 0 0.471 0.067 0.74 0.067s0.538 0 0.74-0.067c0.135 0 0.202-0.135 0.135-0.269-0.067-0.067-0.135-0.067-0.269-0.067-0.202 0.067-0.404 0.067-0.606 0s-0.404-0.135-0.538-0.269c-0.202-0.135-0.404-0.067-0.538 0.135-0.067 0.269 0 0.471 0.337 0.471z"></path>
</symbol>
<symbol id="icon-svg3" viewBox="0 0 21 32">
<path d="M11.829 8.496c-0.089 0.089-0.089 0.089-0.089 0.178-0.356 1.335-0.712 2.58-1.068 3.915 0.178 0 0.267 0.089 0.356 0.089 1.157 0.089 2.313 0.445 3.203 1.157 0.445 0.356 0.801 0.712 1.068 1.157 0.178 0.267 0.267 0.534 0.267 0.801 0.089 0.623-0.178 1.157-0.801 1.512-0.267 0.178-0.623 0.267-0.979 0.267-0.534 0-1.068-0.089-1.512-0.356-0.89-0.445-1.601-1.157-2.135-1.957-0.089-0.089-0.178-0.267-0.267-0.445l-0.089 0.089c-0.356 1.068-0.712 2.135-1.068 3.203 0 0.089 0 0.089 0 0.178 0.089 0 0.178 0.089 0.267 0.089 1.335 0.712 2.224 1.779 2.669 3.114 0.089 0.267 0.089 0.445 0.178 0.712 0 0.267 0 0.445-0.089 0.712-0.178 0.534-0.623 0.801-1.157 0.801-0.445 0-0.801-0.178-1.157-0.445-0.712-0.534-1.157-1.246-1.335-2.046-0.089-0.178-0.089-0.356-0.178-0.534-0.089 0-0.089 0.089-0.178 0.178-0.267 0.712-0.534 1.423-0.801 2.135-0.089 0.178-0.089 0.356-0.089 0.534 0 0.356 0 0.623 0 0.979-0.267 1.957-1.068 3.737-2.313 5.338-0.356 0.445-0.712 0.979-1.157 1.335-0.267 0.178-0.534 0.356-0.712 0.534-0.267 0.178-0.623 0.267-0.979 0.267-0.623 0-1.157-0.267-1.423-0.89s-0.267-1.157-0.178-1.779c0.089-0.534 0.356-0.979 0.623-1.512 0.623-1.068 1.335-2.046 2.135-3.025 0.89-0.979 1.868-1.868 3.025-2.491 0.089-0.089 0.178-0.178 0.267-0.267 0.178-0.623 0.445-1.157 0.623-1.868-0.178 0.089-0.267 0.089-0.356 0.089-0.445 0.178-0.979 0.445-1.424 0.623-0.356 0.089-0.801 0.178-1.157 0.267s-0.623-0-0.979-0.089c-0.623-0.267-0.979-0.712-0.89-1.423 0-0.445 0.178-0.89 0.534-1.246 0.267-0.356 0.623-0.712 1.068-0.979 1.246-0.712 2.58-0.979 3.915-0.445 0.089 0 0.178 0.089 0.356 0.089 0 0 0 0 0.089 0l0.089-0.089c0.267-0.89 0.534-1.779 0.89-2.669 0-0.089 0-0.089 0-0.178-0.178 0-0.356 0-0.445 0-0.623 0-1.246 0-1.868-0.089-0.712-0.089-1.335-0.356-1.957-0.801-1.246-0.89-1.157-2.491 0.089-3.292 0.623-0.445 1.246-0.534 1.957-0.534 0.89 0.089 1.69 0.445 2.313 1.068 0.178 0.178 0.356 0.356 0.623 0.534 0.089 0.089 0.089 0.089 0.178 0.089 0.267-0.534 0.801-2.491 0.801-3.025-0.178 0-0.267-0.089-0.445-0.089-0.979-0.089-1.957-0.356-2.936-0.712-1.335-0.445-2.58-1.157-3.737-2.135-0.445-0.356-0.801-0.89-1.157-1.424-0.089-0.267-0.178-0.445-0.267-0.712-0.089-0.623 0.178-1.068 0.801-1.335 0.178-0.089 0.445-0.089 0.712-0.089 0.445 0 0.89 0.089 1.335 0.178 0.89 0.267 1.69 0.712 2.491 1.246 1.246 0.89 2.402 1.868 3.47 3.025 0 0.089 0.089 0.089 0.178 0.178 0.089-0.178 0.089-0.356 0.178-0.534 0.356-1.423 0.712-2.847 1.068-4.271 0.089-0.267 0.089-0.445 0.178-0.712 0-0.089 0.089-0.267 0.178-0.356 0.089-0.178 0.356-0.267 0.534-0.267 0.178 0.089 0.356 0.267 0.356 0.534 0 0.178-0 0.267-0.089 0.445-0.356 1.335-0.712 2.758-1.068 4.093-0.089 0.356-0.178 0.712-0.267 1.157 0.178 0 0.267-0.089 0.445-0.089 2.402-0.623 4.626-0.178 6.673 1.157 0.534 0.356 0.979 0.712 1.335 1.335 0.089 0.178 0.267 0.445 0.267 0.623 0.089 0.445-0.089 0.801-0.445 1.068-0.267 0.178-0.534 0.267-0.801 0.267-0.356 0-0.712 0-1.068 0-0.712-0.089-1.335-0.267-2.046-0.445-1.512-0.534-3.025-1.157-4.448-1.868 0.089 0.267-0.089 0.178-0.178 0.178zM5.601 24.155c-0.089 0.089-0.178 0.089-0.178 0.178-1.157 0.979-2.135 2.046-2.936 3.292-0.445 0.623-0.712 1.246-0.979 1.957-0.089 0.267-0.178 0.534-0.178 0.801 0 0.445 0.178 0.623 0.623 0.534 0.089 0 0.178-0.089 0.356-0.089 0.356-0.178 0.712-0.445 0.979-0.801 0.356-0.445 0.712-0.979 0.979-1.424 0.801-1.157 1.246-2.491 1.423-3.915 0-0.178 0-0.356-0.089-0.534zM10.228 7.161c-0.178-0.178-0.267-0.356-0.356-0.445-0.445-0.445-0.979-0.979-1.512-1.423-0.801-0.623-1.601-1.246-2.491-1.69-0.534-0.267-1.068-0.534-1.69-0.623-0.267 0-0.445 0-0.712 0-0.178 0-0.267 0.178-0.178 0.356 0.089 0.356 0.267 0.623 0.534 0.89 0.445 0.445 0.89 0.89 1.512 1.246 1.423 0.89 2.936 1.424 4.537 1.69 0.089 0 0.178 0 0.356 0zM12.719 7.695c0.178 0.089 0.178 0.178 0.267 0.178 0.356 0.178 0.712 0.356 1.068 0.445 0.979 0.445 1.957 0.89 3.025 1.157 0.623 0.178 1.246 0.356 1.868 0.445 0.178 0 0.445 0 0.623 0 0.089 0 0.178 0 0.267-0.178 0-0.089-0.089-0.178-0.089-0.178-0.267-0.267-0.534-0.623-0.89-0.801-1.424-1.068-3.025-1.513-4.804-1.335-0.356 0-0.801 0.089-1.335 0.267zM9.249 13.122c0.267-0.267 0.178-0.534 0-0.801-0.089-0.089-0.089-0.178-0.178-0.178-0.445-0.445-0.89-0.89-1.424-1.157-0.445-0.267-0.89-0.356-1.424-0.267-0.445 0-0.89 0.178-1.157 0.534-0.356 0.356-0.356 0.801 0 1.157 0.178 0.178 0.267 0.267 0.445 0.356 0.267 0.178 0.623 0.267 0.979 0.356 0.979 0.178 1.868 0.178 2.758 0zM7.559 18.372c-1.512-0.801-3.292-0.089-4.093 0.712-0.178 0.178-0.356 0.445-0.445 0.712s0.089 0.445 0.267 0.534c0.089 0 0.267 0.089 0.356 0 0.267 0 0.534-0.089 0.801-0.089 0.712-0.178 1.335-0.445 1.957-0.89 0.356-0.178 0.623-0.445 0.89-0.623 0.178 0 0.356-0.178 0.267-0.356zM10.85 13.656c0 0.445 0.089 0.712 0.267 0.979 0.356 0.623 0.89 1.068 1.512 1.424 0.356 0.178 0.623 0.267 1.068 0.356 0.178 0 0.445-0 0.623-0.089 0.267-0.089 0.356-0.356 0.267-0.534s-0.178-0.445-0.267-0.534c-0.356-0.445-0.712-0.712-1.157-0.979-0.801-0.445-1.512-0.623-2.313-0.623zM10.85 22.642c0.089-0.267 0.089-0.445 0-0.712-0.267-0.801-0.712-1.512-1.246-2.046-0.178-0.178-0.356-0.267-0.534-0.356 0 0.089 0 0.178 0 0.267 0.089 0.801 0.267 1.512 0.712 2.135 0.178 0.267 0.445 0.623 0.801 0.712 0 0.089 0.089 0.089 0.267 0z"></path>
</symbol>
<symbol id="icon-svg4" viewBox="0 0 27 32">
<path d="M15.005 11.593c0 0.127 0.253 0.253 0.38 0.253 0.887 0.38 1.774 0.633 2.787 0.887 1.394 0.253 2.914 0.507 4.308 0.507 0.38 0 0.633 0.127 1.014 0.253s0.507 0.507 0.38 0.76c0 0.253-0.127 0.507-0.253 0.633-0.253 0.507-0.634 0.887-1.014 1.267-0.76 0.76-1.52 1.394-2.28 2.027-0.127 0.127-0.253 0.127-0.38 0.38 0.634 0 1.14 0 1.774 0 1.394-0.127 2.787-0.253 4.181-0.507 0.253 0 0.507 0 0.76 0 0.38 0 0.507 0.127 0.633 0.507s0.127 0.76 0 1.267c-0.507 1.014-1.14 2.027-2.027 2.914-1.14 1.394-2.407 2.534-4.054 3.421-0.38 0.253-0.76 0.38-1.14 0.633-0.127 0.127-0.253 0.127-0.38 0.253 0 0.127 0 0.38 0.127 0.507 0.127 0.633 0.253 1.267 0.38 1.774 0 0.127 0 0.127 0 0.253 0.127 0.507 0 0.76-0.507 1.014s-1.014 0.38-1.52 0.38c-0.76 0.127-1.52 0.253-2.281 0.38-1.014 0.127-2.027 0.38-3.041 0.507-0.253 0-0.507 0.127-0.76 0.127-0.507 0-0.887-0.253-1.014-0.76 0-0.253-0.127-0.507-0.127-0.76 0-0.38-0.127-0.887-0.127-1.394-0.127 0-0.253 0-0.38 0-0.887 0-1.774 0-2.787 0-1.14 0-2.154-0.127-3.167-0.253-1.14-0.253-2.154-0.633-3.167-1.267-0.127-0.127-0.38-0.253-0.507-0.38-0.253-0.253-0.253-0.634 0.127-0.887 0.127-0.127 0.253-0.127 0.38-0.253 1.267-0.76 2.407-1.647 3.547-2.787 0.253-0.253 0.507-0.633 0.887-0.887 0.127-0.127 0.127-0.127 0.253-0.253-0.127 0-0.127 0-0.253 0-0.76-0.127-1.647-0.127-2.407-0.253s-1.52-0.253-2.28-0.633c-0.253-0.127-0.38-0.127-0.633-0.38-0.507-0.38-0.507-0.76-0.127-1.267 0.127-0.127 0.38-0.38 0.507-0.507 1.9-1.394 3.294-3.294 4.434-5.448 0-0.127 0-0.127 0.127-0.253-0.253 0-0.38-0.127-0.507-0.127-0.887-0.253-1.774-0.633-2.661-1.014-0.38-0.127-0.76-0.38-1.014-0.76-0.507-0.507-0.38-1.014 0.253-1.267 1.14-0.38 1.9-1.14 2.534-2.027 0.76-1.014 1.394-2.154 1.774-3.421 0.253-0.507 0.38-1.14 0.633-1.647 0.253-0.633 0.507-1.394 0.507-2.027 0-0.253 0-0.38 0.127-0.633 0.127-0.38 0.507-0.507 0.887-0.253 0.127 0.127 0.253 0.253 0.38 0.253 1.014 1.014 2.154 1.774 3.421 2.534 1.267 0.633 2.407 1.394 3.674 1.9 0.633 0.253 1.14 0.38 1.774 0.507 0.253 0 0.507 0 0.76 0.127 0.253 0 0.38 0 0.634 0.127s0.38 0.253 0.38 0.507c0 0.127 0 0.38-0.127 0.507-0.127 0.253-0.253 0.507-0.38 0.76-0.887 1.647-2.027 2.914-3.547 3.928 0.253 0.127 0.253 0.253 0.127 0.253zM1.955 19.955c0.127 0.127 0.127 0.127 0.253 0.127 0.38 0.127 0.76 0.253 1.14 0.38 0.633 0.127 1.267 0.253 1.9 0.253s1.267 0 1.9 0c0.127 0 0.253 0 0.38 0 0.253 0 0.507 0.253 0.507 0.507s0 0.507-0.253 0.76c-1.267 1.774-2.661 3.294-4.434 4.434-0.127 0.127-0.253 0.127-0.253 0.253 0.76 0.253 1.394 0.38 2.154 0.507 0.507 0.127 1.014 0.253 1.52 0.253 1.647 0.127 3.421 0 5.068-0.253 1.394-0.253 2.787-0.507 4.181-0.887 1.267-0.253 2.534-0.633 3.674-1.14 1.52-0.634 2.914-1.394 3.927-2.534 0.887-0.887 1.647-1.9 2.28-3.041 0 0 0 0 0-0.127-0.127 0-0.127 0-0.253 0-0.38 0-0.76 0.127-1.14 0.127-1.647 0.127-3.167 0.127-4.814 0.127-0.253 0-0.38 0-0.634 0s-0.507-0.127-0.633-0.127c-0.507-0.253-0.633-0.633-0.253-1.014 0.127-0.127 0.253-0.253 0.38-0.38 0.38-0.253 0.76-0.507 1.014-0.887 0.76-0.76 1.52-1.647 2.28-2.534 0 0 0.127-0.127 0.127-0.253-0.507 0-1.014-0.127-1.52-0.127-1.014-0.127-2.027-0.253-3.041-0.507-1.267-0.38-2.534-0.887-3.801-1.52-0.127 0-0.127-0.127-0.253-0.127-0.127-0.127-0.253-0.127-0.253-0.253-0.127-0.253-0.127-0.507 0.127-0.633 0.127-0.127 0.253-0.253 0.38-0.253 0.38-0.253 0.887-0.507 1.267-0.76 0.633-0.38 1.267-0.76 1.774-1.267s0.887-1.014 1.14-1.52c0-0.127 0.127-0.253 0.127-0.38-0.127 0-0.38-0.127-0.507-0.127-0.38-0.127-0.76-0.127-1.14-0.253-1.52-0.38-3.041-1.014-4.434-1.9-0.38-0.253-0.633-0.507-1.014-0.633-0.887-0.633-1.647-1.267-2.534-1.9-0.127 0-0.127-0.127-0.253-0.127 0 0 0 0.127-0.127 0.127-0.253 0.76-0.38 1.394-0.633 2.154-0.507 2.027-1.52 3.801-2.914 5.321-0.38 0.38-0.76 0.76-1.014 1.14 0 0.127-0.127 0.127-0.127 0.253 0.127 0 0.253 0.127 0.38 0.127 0.633 0.253 1.394 0.38 2.027 0.507 0.38 0 0.76 0.127 1.014 0.253 0.507 0.127 0.76 0.507 0.633 1.014 0 0.253-0.127 0.38-0.253 0.633s-0.253 0.38-0.38 0.633c-0.633 1.267-1.52 2.407-2.407 3.547-0.507 0.634-1.14 1.394-1.774 1.9-0.253-0.127-0.38-0-0.507 0.127zM18.045 27.557c-0.127 0-0.253 0-0.38 0.127-1.52 0.507-3.167 0.887-4.814 1.14-0.127 0-0.38 0-0.507 0.127 0 0.253 0 0.507 0.127 0.76 0 0.253 0 0.634 0.127 0.887 0.253 0 0.38 0 0.633-0.127 0.507-0.127 1.014-0.127 1.647-0.253 1.14-0.253 2.407-0.38 3.547-0.507 0.127 0 0.127-0.127 0.253-0.127-0.253-0.634-0.253-1.394-0.633-2.027z"></path>
</symbol>
<symbol id="icon-svg5" viewBox="0 0 48 32">
<path d="M24.035 7.372c-0.329-0.329-0.658-0.329-0.986-0.329-3.123-0.329-5.754 0.658-7.891 3.123-0.822 0.986-1.48 2.137-1.808 3.288-0.164 0.164-0.164 0.493-0.164 0.822 0.329 0.164 0.493 0.329 0.658 0.493 3.617 2.137 6.083 5.096 7.562 8.713 0.493 1.315 0.822 2.63 0.822 3.945 0 0.658-0.164 1.151-0.329 1.808-0.493 1.808-2.301 2.959-4.11 2.63-0.986-0.164-1.973-0.493-2.795-1.151-0.822-0.493-1.48-1.315-2.137-1.973-2.63-3.123-3.945-6.74-3.945-10.85 0-0.329 0-0.822 0-1.151-0.329 0-0.493 0-0.658 0-1.315 0.329-2.301 0.986-2.959 2.137-0.493 0.986-0.986 1.973-1.315 3.123-0.329 1.315-0.493 2.63-0.493 3.945s0 2.795 0 4.11c0 0.164 0 0.329 0 0.329 0 0.493-0.164 0.986-0.822 1.151-0.493 0.164-1.151 0.164-1.48-0.329-0.164-0.329-0.493-0.657-0.493-0.986-0.493-2.63-0.822-5.261-0.493-8.055 0.164-2.137 0.986-4.274 2.301-5.918 1.48-1.973 3.452-2.959 6.083-2.959 0.329 0 0.493 0 0.822 0 0.164-0.329 0.329-0.493 0.329-0.822 0.986-2.795 2.795-4.767 5.261-6.411 1.644-0.986 3.288-1.808 5.096-2.137 1.48-0.329 2.795-0.164 4.274 0.164 0.329 0.164 0.658 0.164 1.151 0.329 0.164-0.164 0.493-0.329 0.658-0.658 1.808-1.973 4.274-2.959 6.904-3.452 1.315-0.164 2.63-0.329 4.11-0.164s2.795 0.822 4.11 1.644c2.137 1.644 3.945 3.781 5.096 6.247 0.657 1.644 1.151 3.288 0.986 4.932 0 0.493-0.164 0.986-0.329 1.315s-0.493 0.658-0.822 0.986c-0.822 0.493-1.808 0-1.808-0.986 0-0.164 0-0.329 0-0.493 0.164-0.822 0-1.48-0.164-2.302-0.658-2.63-1.973-4.932-4.11-6.74s-4.603-2.466-7.398-1.644c-1.48 0.329-2.63 0.986-3.781 1.973-0.164 0.164-0.329 0.329-0.493 0.493 0.493 0.329 0.822 0.658 1.151 0.986 2.795 2.466 4.11 5.589 4.439 9.206 0.164 1.151 0 2.301-0.493 3.288-0.329 0.658-0.658 1.151-1.151 1.644-1.808 1.973-4.603 1.808-6.247 0.822-0.986-0.657-1.808-1.48-2.302-2.466-1.315-2.301-1.808-4.603-1.315-7.233 0.164-1.315 0.658-2.795 1.151-3.945 0.164-0.164 0.329-0.329 0.329-0.493zM26.665 8.358c0 0-0.164 0.164-0.164 0.329-0.658 1.315-1.151 2.63-1.315 4.274 0 1.808 0.493 3.617 1.48 5.096 0.493 0.658 0.986 1.151 1.644 1.48 0.986 0.493 1.973 0.164 2.466-0.822 0.329-0.493 0.493-0.986 0.493-1.48 0.164-0.822 0-1.644-0.164-2.466-0.493-2.302-1.644-4.11-3.452-5.754-0.164-0.329-0.493-0.658-0.986-0.658zM12.692 17.4c0 0.164-0.164 0.329-0.164 0.493 0 1.973 0.329 3.945 0.986 5.918 0.493 1.315 1.315 2.63 2.466 3.617 0.493 0.493 0.986 0.822 1.644 0.986 1.151 0.493 1.808 0 1.973-1.151 0-0.329 0-0.658 0-0.986-0.164-0.658-0.164-1.151-0.329-1.808-1.151-3.123-3.123-5.425-5.918-7.069-0.329 0-0.493 0-0.658 0z"></path>
</symbol>
<symbol id="icon-svg6" viewBox="0 0 33 32">
<path d="M10.084 21.264c-0.296 0-0.74-0.148-1.036-0.148-1.776-0.296-3.552-0.444-5.18-0.74-0.592-0.148-1.184-0.296-1.776-0.444-0.444-0.148-0.888-0.444-1.184-0.74-0.592-0.444-0.888-0.888-0.888-1.628 0-1.48 0.296-2.812 1.48-3.7 0.592-0.444 1.332-0.888 2.072-1.184 1.48-0.74 3.108-1.036 4.884-1.332 0.296 0 0.444-0.148 0.74-0.148-0.148-0.444-0.296-0.74-0.592-1.036-1.036-1.776-1.776-3.7-2.072-5.772-0.148-0.592-0.148-1.184-0.148-1.776 0-0.296 0.148-0.74 0.148-1.036 0.444-1.184 1.332-1.628 2.516-1.48 0.888 0.148 1.776 0.592 2.664 1.184 1.924 1.184 3.7 2.368 5.328 3.996 0.296 0.296 0.592 0.444 0.888 0.74 0.148-0.148 0.296-0.296 0.444-0.592 0.444-0.592 0.74-1.332 1.184-1.924s0.888-1.332 1.48-1.924c0.444-0.444 0.888-0.74 1.332-1.036 1.48-0.74 2.96-0.296 3.848 1.036 0.592 0.888 0.888 1.776 1.036 2.812 0.148 1.776-0.296 3.404-1.036 5.032-0.148 0.296-0.296 0.592-0.444 1.036 0.444 0 0.592-0.148 0.888-0.148 1.184-0.148 2.516-0.296 3.7-0.148 0.296 0 0.592 0.148 0.74 0.148 1.036 0.296 1.628 1.184 1.776 2.22 0 0.888-0.148 1.776-0.74 2.368-0.444 0.444-0.888 0.888-1.332 1.184-0.888 0.74-1.924 1.184-3.108 1.48-0.296 0.148-0.74 0.296-1.184 0.444 0.148 0.296 0.296 0.444 0.444 0.592 0.74 1.036 1.48 2.22 2.22 3.256 0.592 0.888 0.888 1.776 0.74 2.812-0.148 1.924-1.48 3.108-3.404 2.96-0.592 0-1.036-0.148-1.628-0.296-1.48-0.444-2.664-1.332-3.996-2.368-0.296-0.296-0.592-0.444-0.888-0.74-0.296 0.296-0.296 0.592-0.296 0.888-0.148 1.184-0.444 2.368-0.888 3.404-0.148 0.444-0.296 0.74-0.444 1.184-0.888 1.924-2.96 2.812-5.18 1.776-1.332-0.74-2.368-1.776-2.96-3.256s-0.74-3.108-0.592-4.588c0.148-0.74 0.148-1.48 0.296-2.22 0.148 0 0.148 0 0.148-0.148zM2.388 16.528c1.184 0.888 2.368 1.48 3.848 1.776s2.96 0.296 4.292 0.296c0.296 0 0.74 0 1.036 0 0.74 0 1.184 0.592 1.184 1.332 0 0.296 0 0.74-0.148 1.036-0.296 1.184-0.444 2.516-0.444 3.7s0.148 2.22 0.74 3.404c0.444 0.74 0.888 1.184 1.628 1.628 0.592 0.296 1.036 0.148 1.48-0.296 0.592-0.592 0.888-1.184 1.184-1.924 0.148-0.592 0.296-1.184 0.296-1.776 0.148-1.036 0.148-1.924 0.296-2.96 0-0.888 0.444-1.48 1.184-2.072 0.444-0.296 1.036-0.444 1.48 0 0.296 0.148 0.444 0.444 0.74 0.74 0.888 1.184 1.924 2.22 3.108 2.96 0.444 0.296 1.036 0.592 1.48 0.74s0.888 0.148 1.184 0.148c0.296 0 0.592-0.296 0.592-0.592 0-0.148 0-0.444 0-0.592-0.148-1.036-0.74-2.072-1.48-2.812-0.592-0.592-1.332-1.184-1.924-1.628-0.296-0.296-0.592-0.592-0.888-0.888-0.444-0.74-0.444-1.332 0.148-1.924 0.592-0.74 1.332-1.184 2.22-1.332s1.776-0.444 2.516-0.74c0.592-0.148 1.184-0.444 1.628-0.74 0.296-0.148 0.592-0.444 0.74-0.74 0.148-0.148 0-0.444-0.148-0.444-0.592-0.296-1.332-0.296-1.924-0.148-1.036 0.148-2.072 0.296-3.108 0.444-0.592 0.148-1.332 0.148-1.924 0.148-0.888 0-1.332-0.74-1.036-1.48 0.148-0.592 0.444-1.184 0.888-1.628 0.888-1.184 1.48-2.516 1.628-3.848 0.148-0.592 0.148-1.184 0.148-1.776 0-0.444-0.296-0.592-0.74-0.592-0.296 0-0.444 0.148-0.592 0.148-0.444 0.296-0.888 0.444-1.184 0.74-0.888 0.74-1.628 1.628-2.22 2.812-0.148 0.444-0.444 0.888-0.74 1.332-0.592 0.74-1.332 0.74-1.924 0-0.296-0.296-0.444-0.592-0.74-0.888-1.184-1.184-2.516-2.22-3.996-3.256-0.592-0.296-1.036-0.74-1.628-1.036-0.296-0.148-0.592-0.296-1.036-0.296-0.296-0.148-0.592 0.148-0.592 0.444 0 0.444 0 0.74 0 1.184 0.148 0.592 0.296 1.184 0.444 1.776 0.592 1.628 1.332 3.256 2.22 4.736 0.148 0.296 0.296 0.592 0.444 0.888 0.296 0.74-0.148 1.48-1.036 1.628-0.296 0-0.592 0-0.888 0-1.184 0-2.22-0-3.256 0.296-1.184 0.296-2.22 0.444-3.256 1.036-0.888 0-1.48 0.296-1.924 1.036z"></path>
</symbol>
<symbol id="icon-svg7" viewBox="0 0 23 32">
<path d="M18.864 10.609c0.182 0.912 0.274 1.733 0.456 2.553 0.182 1.094 0.365 2.189 0.547 3.374 0.274 1.824 0.456 3.648-0.091 5.471 0.182 0.365 0.456 0.456 0.73 0.547 0.547 0.274 1.003 0.73 1.368 1.277 0.638 0.912 0.821 1.824 0.547 2.918-0.365 1.368-0.912 2.553-1.733 3.648-1.003 1.185-2.189 1.824-3.83 1.459-1.185-0.274-2.462-0.638-3.648-1.003-2.189-0.821-4.377-1.641-6.657-2.553-1.915-0.73-3.648-1.915-5.015-3.465 0 0 0-0.091-0.091-0.091-1.55-1.915-1.915-3.465-0.638-5.836 0.274-0.456 0.547-0.912 0.912-1.368 0.638-0.73 1.459-1.094 2.462-1.003 0.274 0 0.456 0 0.729 0 1.003-1.094 2.006-2.189 3.009-3.283 1.003-1.003 2.006-2.006 3.1-3.009s2.28-1.915 3.374-2.827c0-0.182-0.091-0.365-0.182-0.547-0.547-1.915-0.091-3.648 1.277-5.107 0.73-0.821 1.733-1.368 2.827-1.641 2.553-0.547 4.742 1.003 5.015 3.648 0.182 1.368-0.182 2.553-1.003 3.648-0.182 0.274-0.456 0.638-0.638 0.912-0.638 1.094-1.459 1.824-2.644 2.097 0.091 0 0 0.091-0.182 0.182zM8.377 26.658c0.182 0.091 0.274 0.182 0.456 0.182 1.368 0.547 2.645 1.094 4.012 1.641 0.729 0.274 1.459 0.547 2.28 0.73 0.821 0.274 1.55 0.365 2.462 0.456 0.547 0 1.003-0.091 1.277-0.638 0.547-0.821 1.003-1.733 1.277-2.644 0.091-0.274 0.091-0.547 0.091-0.821 0-0.912-0.638-1.459-1.55-1.368-0.365 0-0.821 0.091-1.185 0.091-1.459 0.091-2.736-0.274-4.104-0.821-1.277-0.456-2.462-1.003-3.739-1.368-1.277-0.456-2.371-1.094-3.374-2.006-0.274-0.274-0.547-0.456-0.912-0.73-0.091-0.091-0.365-0.091-0.456-0.091-0.912 0.456-1.55 1.094-1.915 2.006-0.182 0.456-0.182 0.912 0.182 1.277 0.365 0.456 0.73 0.912 1.185 1.277 1.094 1.277 2.644 2.006 4.012 2.827zM16.402 9.97c-0.091 0-0.182 0.091-0.273 0.091-2.28 1.641-4.468 3.283-6.474 5.198-0.456 0.456-0.912 0.912-1.277 1.368-0.182 0.182-0.365 0.547-0.456 0.821-0.182 0.547-0.182 1.094 0.274 1.459 0.274 0.274 0.547 0.456 0.912 0.638 1.277 0.821 2.736 1.185 4.195 1.641 0.821 0.274 1.733 0.456 2.553 0.638 0.456 0.091 0.912 0.182 1.277-0.091 0.274-0.912 0.274-1.915 0.091-5.289-0.182-3.465-0.456-5.38-0.821-6.474zM19.138 3.496c-0.182 0-0.456-0.091-0.73-0.182-0.912-0.091-1.641 0.456-1.733 1.368-0.274 1.368 0.912 3.1 2.827 2.553 0.547-0.182 0.912-0.547 1.003-1.094 0.182-1.003-0.274-2.097-1.368-2.644z"></path>
</symbol>
<symbol id="icon-svg8" viewBox="0 0 27 32">
<path d="M15.003 11.573c0 0.126 0.253 0.253 0.379 0.253 0.885 0.379 1.769 0.632 2.78 0.884 1.39 0.253 2.906 0.505 4.296 0.505 0.379 0 0.632 0.126 1.011 0.253s0.505 0.506 0.379 0.758c0 0.253-0.126 0.505-0.253 0.632-0.253 0.505-0.632 0.884-1.011 1.264-0.758 0.758-1.516 1.39-2.274 2.022-0.126 0.126-0.253 0.126-0.379 0.379 0.632 0 1.137 0 1.769 0 1.39-0.126 2.78-0.253 4.17-0.505 0.253 0 0.505 0 0.758 0 0.379 0 0.505 0.126 0.632 0.505s0.126 0.758 0 1.264c-0.505 1.011-1.137 2.022-2.022 2.906-1.137 1.39-2.401 2.527-4.043 3.412-0.379 0.253-0.758 0.379-1.137 0.632-0.126 0.126-0.253 0.126-0.379 0.253 0 0.126 0 0.379 0.126 0.505 0.126 0.632 0.253 1.264 0.379 1.769 0 0.126 0 0.126 0 0.253 0.126 0.505 0 0.758-0.505 1.011s-1.011 0.379-1.516 0.379c-0.758 0.126-1.516 0.253-2.274 0.379-1.011 0.126-2.022 0.379-3.033 0.505-0.253 0-0.505 0.126-0.758 0.126-0.505 0-0.884-0.253-1.011-0.758 0-0.253-0.126-0.505-0.126-0.758 0-0.379-0.126-0.885-0.126-1.39-0.126 0-0.253 0-0.379 0-0.884 0-1.769 0-2.78 0-1.137 0-2.148-0.126-3.159-0.253-1.137-0.253-2.148-0.632-3.159-1.264-0.126-0.126-0.379-0.253-0.505-0.379-0.253-0.253-0.253-0.632 0.126-0.884 0.126-0.126 0.253-0.126 0.379-0.253 1.264-0.758 2.401-1.643 3.538-2.78 0.253-0.253 0.505-0.632 0.885-0.884 0.126-0.126 0.126-0.126 0.253-0.253-0.126 0-0.126 0-0.253 0-0.758-0.126-1.643-0.126-2.401-0.253s-1.516-0.253-2.274-0.632c-0.253-0.126-0.379-0.126-0.632-0.379-0.505-0.379-0.505-0.758-0.126-1.264 0.126-0.126 0.379-0.379 0.505-0.505 1.895-1.39 3.285-3.285 4.422-5.433 0-0.126 0-0.126 0.126-0.253-0.253 0-0.379-0.126-0.505-0.126-0.885-0.253-1.769-0.632-2.653-1.011-0.379-0.126-0.758-0.379-1.011-0.758-0.505-0.505-0.379-1.011 0.253-1.264 1.137-0.379 1.895-1.137 2.527-2.022 0.758-1.011 1.39-2.148 1.769-3.412 0.253-0.505 0.379-1.137 0.632-1.643 0.253-0.632 0.505-1.39 0.505-2.022 0-0.253 0-0.379 0.126-0.632 0.126-0.379 0.505-0.505 0.884-0.253 0.126 0.126 0.253 0.253 0.379 0.253 1.011 1.011 2.148 1.769 3.412 2.527 1.264 0.632 2.401 1.39 3.664 1.895 0.632 0.253 1.137 0.379 1.769 0.505 0.253 0 0.505-0 0.758 0.126 0.253 0 0.379-0 0.632 0.126s0.379 0.253 0.379 0.505c0 0.126 0 0.379-0.126 0.505-0.126 0.253-0.253 0.505-0.379 0.758-0.884 1.643-2.022 2.906-3.538 3.917 0.253 0.126 0.253 0.126 0.126 0.253zM1.989 19.787c0.126 0.126 0.126 0.126 0.253 0.126 0.379 0.126 0.758 0.253 1.137 0.379 0.632 0.126 1.264 0.253 1.895 0.253s1.264 0 1.895 0c0.126 0 0.253 0 0.379 0 0.253 0 0.505 0.253 0.505 0.505s-0 0.505-0.253 0.758c-1.264 1.769-2.653 3.285-4.422 4.422-0.126 0.126-0.253 0.126-0.253 0.253 0.758 0.253 1.39 0.379 2.148 0.505 0.505 0.126 1.011 0.253 1.516 0.253 1.643 0.126 3.412 0 5.054-0.253 1.39-0.253 2.78-0.505 4.17-0.884 1.264-0.253 2.527-0.632 3.664-1.137 1.516-0.632 2.906-1.39 3.917-2.527 0.884-0.884 1.643-1.895 2.274-3.033 0 0 0 0 0-0.126-0.126 0-0.126 0-0.253 0-0.379 0-0.758 0.126-1.137 0.126-1.643 0.126-3.159 0.126-4.802 0.126-0.253 0-0.379 0-0.632 0s-0.505-0.126-0.632-0.126c-0.505-0.253-0.632-0.632-0.253-1.011 0.126-0.126 0.253-0.253 0.379-0.379 0.379-0.253 0.758-0.505 1.011-0.884 0.758-0.758 1.516-1.643 2.274-2.527 0 0 0.126-0.126 0.126-0.253-0.505 0-1.011-0.126-1.516-0.126-1.011-0.126-2.022-0.253-3.032-0.505-1.264-0.379-2.527-0.884-3.791-1.516-0.126 0-0.126-0.126-0.253-0.126-0.126-0.126-0.253-0.126-0.253-0.253-0.126-0.253-0.126-0.505 0.126-0.632 0.126-0.126 0.253-0.253 0.379-0.253 0.379-0.253 0.884-0.505 1.264-0.758 0.632-0.379 1.264-0.758 1.769-1.264s0.884-1.011 1.137-1.516c0-0.126 0.126-0.253 0.126-0.379-0.126 0-0.379-0.126-0.505-0.126-0.379-0.126-0.758-0.126-1.137-0.253-1.516-0.379-3.033-1.011-4.422-1.895-0.379-0.253-0.632-0.505-1.011-0.632-0.884-0.632-1.643-1.264-2.527-1.895-0.126 0-0.126-0.126-0.253-0.126 0 0 0 0.126-0.126 0.126-0.253 0.758-0.379 1.39-0.632 2.148-0.505 2.022-1.516 3.791-2.906 5.307-0.379 0.379-0.758 0.758-1.011 1.137 0 0.126-0.126 0.126-0.126 0.253 0.126 0 0.253 0.126 0.379 0.126 0.632 0.253 1.39 0.379 2.022 0.505 0.379 0 0.758 0.126 1.011 0.253 0.505 0.126 0.758 0.505 0.632 1.011 0 0.253-0.126 0.379-0.253 0.632s-0.253 0.379-0.379 0.632c-0.632 1.264-1.516 2.401-2.401 3.538-0.505 0.632-1.137 1.39-1.769 1.895-0.379 0-0.379 0-0.505 0.126zM17.91 27.494c-0.126 0-0.253 0-0.379 0.126-1.516 0.505-3.159 0.884-4.802 1.137-0.126 0-0.379 0-0.505 0.126 0 0.253 0 0.505 0.126 0.758 0 0.253 0 0.632 0.126 0.884 0.253 0 0.379 0 0.632-0.126 0.505-0.126 1.011-0.126 1.643-0.253 1.137-0.253 2.401-0.379 3.538-0.505 0.126 0 0.126-0.126 0.253-0.126-0.126-0.758-0.126-1.39-0.632-2.022z"></path>
</symbol>
</defs>
</svg>
