<svg aria-hidden="true" style="position: absolute; width: 0; height: 0; overflow: hidden;" version="1.1" xmlns="http://www.w3.org/2000/svg" xmlns:xlink="http://www.w3.org/1999/xlink">
<defs>
<symbol id="icon-twinkle1" viewBox="0 0 31 32">
<path d="M21.802 25.47c-1.508 0.162-3.010-0.053-4.505-0.644-0.934-0.393-1.125-0.208-1.706 0.723-0.584 1.119-1.168 2.237-1.749 3.168s-1.35 1.858-2.303 2.594c-1.904 1.284-4.339 0.676-5.052-1.594-0.541-1.327-0.518-2.643-0.307-3.957 0.218-1.69 0.62-3.188 0.838-4.877 0.211-1.313 0.215-1.502-0.901-2.274s-2.419-1.548-3.531-2.508c-0.743-0.578-1.294-1.34-1.845-2.102-1.28-2.092-0.313-3.581 1.396-4.491 0.759-0.363 1.891-0.531 2.835-0.703 1.508-0.162 3.198 0.056 4.696 0.459 0.373 0.195 0.749 0.201 0.937 0.205 1.122 0.396 1.502 0.215 1.709-0.911 0.409-1.874 1.191-3.554 2.158-5.042 0.581-0.931 1.35-1.858 2.303-2.594 2.287-1.653 4.91-1.043 5.412 2.541 0.165 1.32 0.139 2.825-0.076 4.326s-0.614 2.812-1.016 4.31c-0.205 0.937-0.208 1.125 0.723 1.706 1.492 0.779 3.171 1.561 4.663 2.34 1.119 0.584 2.231 1.544 2.967 2.498 1.653 2.287 1.049 4.534-1.607 5.805-1.139 0.544-2.462 0.898-3.779 0.874-1.135 0.356-1.696 0.158-2.261 0.148z"></path>
</symbol>
<symbol id="icon-twinkle2" viewBox="0 0 34 32">
<path d="M20.53 15.566c0.994 0.017 1.492 0.026 1.989 0.035 2.486 0.044 4.964 0.585 7.45 0.628 0.994 0.018 1.483 0.523 1.98 0.532 1.483 0.523 1.945 2.521 0.933 3.498-0.515 0.986-1.509 0.968-2.504 0.951-1.492-0.026-2.975-0.55-4.466-0.576-1.989-0.035-3.472-0.558-5.461-0.593 0 0-0.497-0.009-0.994-0.018-0.009 0.497-0.017 0.995-0.523 1.483-0.044 2.486-0.576 4.466-0.619 6.953-0.009 0.497-0.523 1.483-0.532 1.98-0.515 0.986-1.012 0.977-2.006 0.96s-1.483-0.523-1.466-1.518c-0.48-1.003-0.462-1.998-0.445-2.992 0.035-1.989 0.070-3.978 0.611-6.455 0.009-0.497 0.009-0.497 0.018-0.995-0.995-0.017-1.98-0.532-2.975-0.55s-2.486-0.044-3.481-0.061c-0.994-0.017-1.98-0.532-2.975-0.55s-1.492-0.026-2.477-0.541c-1.989-0.035-2.957-1.544-2.425-3.524 0.009-0.497 1.012-0.977 1.509-0.968 0.994 0.017 1.989 0.035 2.983 0.052s1.989 0.035 2.983 0.052 3.472 0.558 5.461 0.593c0.995 0.017 1.492 0.026 1.518-1.466 0.035-1.989 0.061-3.481 0.593-5.461 0.026-1.492 0.044-2.486 0.567-3.969 0.018-0.994 1.038-2.469 2.53-2.443 0.497 0.009 1.492 0.026 1.483 0.523 0.488 0.506 0.471 1.501 0.462 1.998-0.052 2.983-0.114 6.464-0.166 9.447 0.462 1.998 0.454 2.495 0.445 2.992z"></path>
</symbol>
<symbol id="icon-twinkle3" viewBox="0 0 28 32">
<path d="M8.934 17.71c-1.153-0.311-1.73-0.467-2.307-0.623-1.73-0.467-2.884-0.778-4.614-1.245-1.153-0.311-2.151-1.199-1.84-2.353-0.11-1.886 0.778-2.883 2.664-2.993s4.193 0.513 6.078 0.403c0.577 0.156 1.73 0.467 2.307 0.623 0.156-0.577 0.156-0.577 0.311-1.153 0.623-2.307 0.824-5.346 1.447-7.653 0.467-1.73 1.932-2.572 3.085-2.261s1.574 1.044 1.419 1.62c0.11 1.886 0.219 3.771-0.092 4.925 0.265 1.309-0.202 3.039-0.669 4.769-0.156 0.577 0.265 1.309 0.842 1.465s0.577 0.156 1.153 0.311c2.307 0.623 4.037 1.090 6.188 2.289 0.577 0.156 1.73 0.467 2.151 1.199 0.998 0.888 1.263 2.197 0.375 3.195-0.732 0.421-2.041 0.686-2.774 1.107-2.462-0.046-4.769-0.669-6.499-1.136-0.577-0.156-1.153-0.311-2.307-0.623-0.623 2.307-0.669 4.769-1.291 7.076-0.311 1.153-0.467 1.73-0.778 2.883-0.467 1.73-2.508 2.416-4.238 1.95-1.574-1.044-1.84-2.353-1.95-4.238 0.046-2.462 0.669-4.769 1.291-7.076-0.265-1.309-0.11-1.886 0.046-2.462z"></path>
</symbol>
<symbol id="icon-twinkle4" viewBox="0 0 30 32">
<path d="M13.024 0.307c1.924 0.034 2.956 1.102 3.628 2.689 0.841 1.94 1.507 3.877 2.17 5.988 0.331 1.056 0.503 1.234 1.559 0.902 1.756-0.319 3.511-0.638 5.258-0.433 1.222 0.196 2.268 0.39 2.953 1.277 0.856 1.065 1.188 2.121 0.641 3.336-0.371 1.219-1.087 2.081-2.149 2.762-1.771 1.194-3.708 1.86-5.816 2.348-1.931 0.316-1.931 0.316-1.614 2.247 0.141 1.928 0.632 3.861 0.423 5.783-0.19 0.872-0.206 1.746-0.571 2.615-0.912 2.084-3.017 2.397-4.742 0.967-1.206-1.071-1.885-2.308-2.56-3.72s-1.35-2.824-2.026-4.236c-0.503-1.234-1.369-1.774-2.597-1.621-1.403 0.15-2.977 0.123-4.368-0.427-0.869-0.365-1.737-0.73-2.425-1.443-0.856-1.065-1.010-2.293-0.463-3.508s1.608-1.897 2.667-2.403c1.768-1.019 3.702-1.51 5.638-2.176 0.175 0.003 0.175 0.003 0.35 0.006 0.878-0.16 1.056-0.331 0.896-1.209-0.157-1.053-0.491-1.934-0.648-2.986-0.15-1.403-0.129-2.627 0.246-4.021 0.737-2.087 1.799-2.769 3.548-2.738z"></path>
</symbol>
<symbol id="icon-twincle5" viewBox="0 0 32 32">
<path d="M18.598 13.25c0.586 0.010 1.172 0.021 1.757 0.031 2.929 0.051 5.282-0.493 8.211-0.442 1.171 0.021 1.747 0.617 2.322 1.213 1.151 1.192 0.545 2.353-0.637 2.918s-2.364 1.131-3.535 1.11c-2.343-0.041-4.686-0.082-7.040 0.462-0.586-0.010-0.586-0.010-1.172-0.021-0.596 0.576-0.031 1.757-0.041 2.343 0.545 2.353 0.504 4.697 0.462 7.040s-1.819 3.484-3.576 3.453c-0.586-0.010-1.161-0.606-1.737-1.202-0.555-1.767-1.1-4.121-1.069-5.878-0.555-1.767-0.534-2.939-0.504-4.696-0.586-0.010-0.586-0.010-0.586-0.010-1.757-0.031-4.111 0.514-5.868 0.483-0.586-0.010-1.757-0.031-2.343-0.041-1.757-0.031-2.322-1.213-1.716-2.374 0.617-1.747 1.798-2.312 3.566-2.867 2.353-0.545 4.111-0.514 6.464-1.058 0.031-1.757-0.524-3.525-0.493-5.282s-0.534-2.939-0.504-4.696c0.031-1.757 1.223-2.908 2.394-2.888 1.182-0.565 2.343 0.041 2.908 1.223 0.555 1.768 1.12 2.949 1.089 4.707s0.524 3.525 0.493 5.282c0.586 0.010 0.576 0.596 1.151 1.192z"></path>
</symbol>
<symbol id="icon-twinkle6" viewBox="0 0 35 32">
<path d="M20.102 14.247c0.954-0.438 1.431-0.658 1.908-0.877 2.385-1.096 4.989-1.716 7.374-2.812 0.954-0.438 1.65-0.181 2.127-0.4 1.65-0.181 3.004 1.508 2.489 2.9-0.038 1.173-0.992 1.612-1.946 2.050-1.431 0.658-3.081 0.839-4.512 1.497-1.908 0.877-3.558 1.058-5.466 1.935 0 0-0.477 0.219-0.954 0.439 0.219 0.477 0.439 0.954 0.181 1.65 1.096 2.385 1.497 4.512 2.593 6.897 0.219 0.477 0.181 1.65 0.4 2.127-0.038 1.173-0.515 1.392-1.469 1.831s-1.65 0.181-2.089-0.773c-0.916-0.735-1.354-1.689-1.793-2.642-0.877-1.908-1.754-3.816-2.373-6.42-0.219-0.477-0.219-0.477-0.439-0.954-0.954 0.439-2.127 0.4-3.081 0.839s-2.385 1.096-3.339 1.535c-0.954 0.439-2.127 0.4-3.081 0.839s-1.431 0.658-2.604 0.619c-1.908 0.877-3.52-0.115-3.92-2.242-0.219-0.477 0.515-1.392 0.992-1.612 0.954-0.439 1.908-0.877 2.862-1.316s1.908-0.877 2.862-1.316 3.558-1.058 5.466-1.935c0.954-0.438 1.431-0.658 0.773-2.089-0.877-1.908-1.535-3.339-1.935-5.466-0.658-1.431-1.096-2.385-1.277-4.035-0.439-0.954-0.143-2.823 1.288-3.481 0.477-0.219 1.431-0.658 1.65-0.181 0.696 0.258 1.135 1.212 1.354 1.689 1.316 2.862 2.85 6.2 4.166 9.062 1.354 1.689 1.573 2.166 1.793 2.643z"></path>
</symbol>
</defs>
</svg>
