<svg aria-hidden="true" style="position: absolute; width: 0; height: 0; overflow: hidden;" version="1.1" xmlns="http://www.w3.org/2000/svg" xmlns:xlink="http://www.w3.org/1999/xlink">
<defs>
<symbol id="icon-decor-left" viewBox="0 0 25 32">
<path fill="#fff" style="fill: var(--color1, #fff)" d="M9.176 5.997c-0.337-0.091-0.506-0.136-0.674-0.182-0.506-0.136-0.843-0.228-1.349-0.364-0.337-0.091-0.629-0.351-0.538-0.688-0.032-0.551 0.228-0.843 0.779-0.875s1.226 0.15 1.777 0.118c0.169 0.045 0.506 0.136 0.674 0.182 0.046-0.169 0.046-0.169 0.091-0.337 0.182-0.674 0.241-1.563 0.423-2.237 0.136-0.506 0.565-0.752 0.902-0.661s0.46 0.305 0.415 0.474c0.032 0.551 0.064 1.102-0.027 1.44 0.078 0.383-0.059 0.888-0.195 1.394-0.046 0.169 0.078 0.383 0.246 0.428s0.169 0.045 0.337 0.091c0.674 0.182 1.18 0.319 1.809 0.669 0.169 0.045 0.506 0.137 0.629 0.351 0.292 0.26 0.369 0.642 0.11 0.934-0.214 0.123-0.597 0.201-0.811 0.324-0.72-0.013-1.394-0.195-1.9-0.332-0.169-0.045-0.337-0.091-0.674-0.182-0.182 0.674-0.195 1.394-0.377 2.068-0.091 0.337-0.136 0.506-0.227 0.843-0.137 0.506-0.733 0.706-1.239 0.57-0.46-0.305-0.538-0.688-0.57-1.239 0.013-0.72 0.195-1.394 0.377-2.068-0.078-0.383-0.032-0.551 0.013-0.72z"></path>
<path fill="#f7c979" style="fill: var(--color2, #f7c979)" d="M22.544 28.797c0.194 0.003 0.291 0.005 0.388 0.007 0.484 0.009 0.967 0.114 1.452 0.122 0.194 0.003 0.289 0.102 0.386 0.104 0.289 0.102 0.379 0.491 0.182 0.682-0.1 0.192-0.294 0.189-0.488 0.185-0.291-0.005-0.58-0.107-0.87-0.112-0.388-0.007-0.677-0.109-1.064-0.116 0 0-0.097-0.002-0.194-0.003-0.002 0.097-0.003 0.194-0.102 0.289-0.009 0.484-0.112 0.87-0.121 1.355-0.002 0.097-0.102 0.289-0.104 0.386-0.1 0.192-0.197 0.19-0.391 0.187s-0.289-0.102-0.286-0.296c-0.093-0.196-0.090-0.389-0.087-0.583 0.007-0.388 0.014-0.775 0.119-1.258 0.002-0.097 0.002-0.097 0.003-0.194-0.194-0.003-0.386-0.104-0.58-0.107s-0.485-0.009-0.678-0.012c-0.194-0.003-0.386-0.104-0.58-0.107s-0.291-0.005-0.483-0.105c-0.388-0.007-0.576-0.301-0.473-0.687 0.002-0.097 0.197-0.191 0.294-0.189 0.194 0.003 0.388 0.007 0.581 0.010s0.388 0.007 0.581 0.010 0.677 0.109 1.064 0.116c0.194 0.003 0.291 0.005 0.296-0.286 0.007-0.388 0.012-0.678 0.116-1.064 0.005-0.291 0.008-0.484 0.11-0.773 0.003-0.194 0.202-0.481 0.493-0.476 0.097 0.002 0.291 0.005 0.289 0.102 0.095 0.099 0.092 0.292 0.090 0.389-0.010 0.581-0.022 1.26-0.032 1.841 0.090 0.389 0.088 0.486 0.087 0.583z"></path>
<path fill="#f7c979" style="fill: var(--color2, #f7c979)" d="M10.338 27.312c-0.704 0.076-1.405-0.025-2.102-0.3-0.436-0.183-0.525-0.097-0.796 0.337-0.273 0.522-0.545 1.044-0.816 1.478s-0.63 0.867-1.075 1.211c-0.889 0.599-2.025 0.316-2.358-0.744-0.253-0.619-0.242-1.234-0.143-1.846 0.102-0.788 0.29-1.488 0.391-2.276 0.099-0.613 0.1-0.701-0.42-1.061s-1.129-0.722-1.648-1.171c-0.347-0.269-0.604-0.625-0.861-0.981-0.598-0.976-0.146-1.671 0.651-2.096 0.354-0.169 0.882-0.248 1.323-0.328 0.704-0.075 1.492 0.026 2.191 0.214 0.174 0.091 0.35 0.094 0.437 0.096 0.524 0.185 0.701 0.1 0.798-0.425 0.191-0.875 0.556-1.659 1.007-2.353 0.271-0.434 0.63-0.867 1.075-1.21 1.067-0.772 2.292-0.487 2.526 1.186 0.077 0.616 0.065 1.318-0.035 2.019s-0.286 1.312-0.474 2.011c-0.095 0.437-0.097 0.525 0.337 0.796 0.696 0.363 1.48 0.728 2.176 1.092 0.522 0.273 1.041 0.721 1.384 1.166 0.772 1.067 0.49 2.116-0.75 2.709-0.531 0.254-1.149 0.419-1.763 0.408-0.53 0.166-0.792 0.074-1.055 0.069z"></path>
</symbol>
<symbol id="icon-decor-right" viewBox="0 0 26 32">
<path fill="#fff" style="fill: var(--color1, #fff)" d="M2.472 27.483c0.078 0.001 0.156 0.003 0.234 0.004 0.389 0.007 0.702-0.066 1.091-0.059 0.156 0.003 0.232 0.082 0.309 0.161 0.153 0.158 0.072 0.313-0.085 0.388s-0.314 0.15-0.47 0.147c-0.311-0.005-0.623-0.011-0.936 0.062-0.078-0.001-0.078-0.001-0.156-0.003-0.079 0.077-0.004 0.234-0.005 0.311 0.072 0.313 0.067 0.624 0.061 0.936s-0.242 0.463-0.475 0.459c-0.078-0.001-0.154-0.080-0.231-0.16-0.074-0.235-0.146-0.548-0.142-0.781-0.074-0.235-0.071-0.391-0.067-0.624-0.078-0.001-0.078-0.001-0.078-0.001-0.234-0.004-0.546 0.068-0.78 0.064-0.078-0.001-0.234-0.004-0.311-0.005-0.234-0.004-0.309-0.161-0.228-0.316 0.082-0.232 0.239-0.307 0.474-0.381 0.313-0.073 0.546-0.068 0.859-0.141 0.004-0.234-0.070-0.468-0.066-0.702s-0.071-0.391-0.067-0.624c0.004-0.234 0.163-0.386 0.318-0.384 0.157-0.075 0.311 0.005 0.387 0.163 0.074 0.235 0.149 0.392 0.145 0.626s0.070 0.468 0.066 0.702c0.078 0.001 0.076 0.079 0.153 0.159z"></path>
<path fill="#f7c979" style="fill: var(--color2, #f7c979)" d="M11.871 4.664c0.217-0.1 0.326-0.15 0.435-0.2 0.543-0.25 1.137-0.391 1.68-0.641 0.217-0.1 0.376-0.041 0.485-0.091 0.376-0.041 0.684 0.344 0.567 0.661-0.009 0.267-0.226 0.367-0.443 0.467-0.326 0.15-0.702 0.191-1.028 0.341-0.435 0.2-0.811 0.241-1.245 0.441 0 0-0.109 0.050-0.217 0.1 0.050 0.109 0.1 0.217 0.041 0.376 0.25 0.543 0.341 1.028 0.591 1.571 0.050 0.109 0.041 0.376 0.091 0.485-0.009 0.267-0.117 0.317-0.335 0.417s-0.376 0.041-0.476-0.176c-0.209-0.167-0.309-0.385-0.408-0.602-0.2-0.435-0.4-0.869-0.541-1.463-0.050-0.109-0.050-0.109-0.1-0.217-0.217 0.1-0.485 0.091-0.702 0.191s-0.543 0.25-0.761 0.35c-0.217 0.1-0.485 0.091-0.702 0.191s-0.326 0.15-0.593 0.141c-0.435 0.2-0.802-0.026-0.893-0.511-0.050-0.109 0.117-0.317 0.226-0.367 0.217-0.1 0.435-0.2 0.652-0.3s0.435-0.2 0.652-0.3 0.811-0.241 1.245-0.441c0.217-0.1 0.326-0.15 0.176-0.476-0.2-0.435-0.35-0.761-0.441-1.245-0.15-0.326-0.25-0.543-0.291-0.919-0.1-0.217-0.032-0.643 0.294-0.793 0.109-0.050 0.326-0.15 0.376-0.041 0.159 0.059 0.259 0.276 0.309 0.385 0.3 0.652 0.649 1.413 0.949 2.065 0.309 0.385 0.358 0.493 0.408 0.602z"></path>
<path fill="#f7c979" style="fill: var(--color2, #f7c979)" d="M16.090 13.546c1.121 0.020 1.721 0.642 2.112 1.566 0.49 1.13 0.878 2.257 1.264 3.487 0.193 0.615 0.293 0.718 0.908 0.525 1.022-0.186 2.045-0.372 3.061-0.252 0.711 0.114 1.321 0.227 1.719 0.744 0.499 0.62 0.692 1.235 0.373 1.943-0.216 0.709-0.633 1.212-1.251 1.608-1.031 0.695-2.159 1.083-3.387 1.367-1.124 0.184-1.124 0.184-0.94 1.308 0.082 1.122 0.368 2.248 0.247 3.367-0.111 0.508-0.12 1.017-0.332 1.523-0.531 1.214-1.757 1.396-2.761 0.563-0.702-0.624-1.097-1.344-1.491-2.166s-0.786-1.644-1.18-2.466c-0.293-0.718-0.797-1.033-1.512-0.944-0.817 0.087-1.734 0.071-2.543-0.248-0.506-0.213-1.012-0.425-1.412-0.84-0.499-0.62-0.588-1.335-0.27-2.043s0.937-1.104 1.553-1.399c1.029-0.593 2.155-0.879 3.283-1.267 0.102 0.002 0.102 0.002 0.204 0.004 0.511-0.093 0.615-0.193 0.522-0.704-0.091-0.613-0.286-1.126-0.377-1.739-0.088-0.817-0.075-1.53 0.143-2.341 0.429-1.215 1.047-1.612 2.066-1.594z"></path>
</symbol>
<symbol id="icon-gift" viewBox="0 0 32 32">
<path d="M30.632 8.588v0-0.015h-2.867l-2.442-0.013c2.14-1.311 3.096-3.85 2.145-5.938-0.728-1.6-2.437-2.622-4.248-2.622-0.768 0-1.554 0.184-2.292 0.585-1.627 0.885-2.883 2.127-3.844 3.389-0.015 0.020-0.031 0.040-0.047 0.061-0.148 0.196-0.288 0.391-0.421 0.586-0.054 0.079-0.109 0.157-0.163 0.237-0.056 0.085-0.107 0.168-0.16 0.252-0.099 0.155-0.2 0.306-0.296 0.467-1.021-1.74-2.601-3.728-4.923-4.991-0.738-0.401-1.524-0.585-2.292-0.585-1.811 0-3.52 1.022-4.248 2.622-0.792 1.741-0.257 3.794 1.183 5.189 0.285 0.281 0.604 0.538 0.959 0.761h-5.307v7.061c0 0.137 0.111 0.248 0.248 0.248h3.319v12.628c0 1.928 1.563 3.49 3.49 3.49h15.148c1.927 0 3.49-1.563 3.49-3.49v-12.628h3.319c0.137 0 0.248-0.111 0.248-0.248v-7.045zM7.263 3.865c0.228-0.502 0.867-0.865 1.518-0.865 0.301 0 0.589 0.074 0.858 0.22 1.427 0.776 2.503 1.957 3.287 3.112 0.12 0.18 0.238 0.365 0.352 0.558-0.28 0.019-0.57 0.029-0.867 0.029-1.469 0-2.773-0.255-3.877-0.757-0.559-0.254-1.006-0.689-1.227-1.193-0.1-0.229-0.239-0.676-0.045-1.103zM13.5 30h-5.074c-0.822 0-1.49-0.668-1.49-1.49v-12.339h6.564v13.829zM3.368 13.882v-3.309h10.132v3.309h-10.132zM23.219 3c0.651 0 1.289 0.364 1.517 0.865 0.195 0.428 0.056 0.875-0.045 1.103-0.221 0.504-0.668 0.939-1.227 1.193-1.104 0.503-2.409 0.757-3.877 0.757-0.263 0-0.517-0.011-0.767-0.026-0.035-0.004-0.070-0.005-0.106-0.010 0.803-1.317 1.988-2.762 3.645-3.663 0.269-0.146 0.558-0.22 0.859-0.22zM18.5 30v-13.829h6.564v12.339c0 0.822-0.668 1.49-1.49 1.49h-5.074zM18.5 13.882v-3.309h10.132v3.309h-10.132z"></path>
</symbol>
<symbol id="icon-question" viewBox="0 0 32 32">
<path d="M15.568 0c5.535 0 10.985 2.549 10.985 8.647 0 5.623-6.443 7.785-7.827 9.817-1.039 1.511-0.692 3.635-3.546 3.635-1.859 0-2.768-1.512-2.768-2.896 0-5.149 7.566-6.315 7.566-10.555 0-2.334-1.553-3.718-4.149-3.718-5.535 0-3.374 5.707-7.566 5.707-1.513 0-2.813-0.908-2.813-2.637-0.001-4.241 4.841-8 10.118-8zM15.352 24.906c1.943 0 3.546 1.598 3.546 3.547s-1.6 3.547-3.546 3.547c-1.946 0-3.547-1.596-3.547-3.547 0-1.948 1.601-3.547 3.547-3.547z"></path>
</symbol>
<symbol id="icon-santa" viewBox="0 0 26 32">
<path d="M23.302 18.246c-0.091 0.061-0.212 0.121-0.333 0.182-0.333 0.151-0.666 0.182-0.999 0.091-0.242-0.061-0.454-0.212-0.545-0.454-0.030-0.091-0.061-0.151-0.151-0.182-0.394-0.182-0.666-0.515-0.878-0.878-0.030-0.061-0.061-0.091-0.091-0.121h-0.030c-0.212 0.151-0.212 0.273-0.091 0.424 0.485 0.606 0.939 1.241 1.302 1.908 0.303 0.575 0.575 1.211 0.727 1.847 0.242 0.939 0.242 1.908 0.121 2.877-0.061 0.545-0.151 1.090-0.272 1.605-0.182 0.666-0.424 1.302-0.848 1.847-0.545 0.757-1.272 1.272-2.18 1.514-0.151 0.030-0.303 0.061-0.484 0.091-0.273 0.061-0.545 0.030-0.787-0.030-0.061 0-0.121-0.030-0.182-0.030-0.030 0.061-0.061 0.091-0.061 0.121-0.484 1.211-1.393 1.877-2.695 2.029-0.908 0.121-1.756-0.091-2.544-0.606-0.030-0.030-0.091-0.030-0.151-0.091-0.030 0.061-0.091 0.121-0.121 0.212-0.484 0.939-1.605 1.484-2.604 1.363-0.848-0.121-1.575-0.485-2.15-1.12-0.121-0.121-0.212-0.242-0.333-0.394-0.061-0.061-0.121-0.091-0.212-0.091-0.545 0-1.060-0.030-1.605-0.121-0.787-0.121-1.544-0.394-2.18-0.908-0.333-0.272-0.606-0.606-0.848-0.939-0.333-0.454-0.666-0.939-0.908-1.454-0.212-0.454-0.363-0.939-0.333-1.453 0-0.152 0.030-0.303 0.061-0.454 0.030-0.121 0-0.212-0.061-0.333-0.151-0.303-0.273-0.606-0.394-0.908-0.242-0.696-0.394-1.393-0.424-2.119 0-0.575 0.061-1.181 0.212-1.726 0.394-1.363 1.030-2.574 1.938-3.634 0.091-0.121 0.091-0.121 0-0.273-0.363-0.485-0.575-1.030-0.757-1.605-0.030-0.121 0-0.242 0.091-0.363s0.212-0.121 0.363-0.061c0.242 0.121 0.485 0.242 0.727 0.333 0.424 0.182 0.908 0.242 1.363 0.182 0.061 0 0.121-0.030 0.182-0.030 0.061-0.030 0.091-0.061 0.091-0.121 0-0.030 0-0.061 0-0.091-0.091-1.363 0.030-2.695 0.394-3.997 0.091-0.363 0.242-0.727 0.394-1.090 0.030-0.121 0.061-0.212 0-0.333-0.151-0.303-0.212-0.666-0.242-0.999-0.061-0.666-0.030-1.302 0.182-1.938 0.091-0.273 0.182-0.515 0.303-0.757 0.182-0.394 0.484-0.666 0.818-0.908 0.394-0.273 0.787-0.454 1.241-0.606 0.151-0.061 0.273-0.121 0.363-0.242 1.030-0.939 2.089-1.817 3.27-2.574 0.545-0.333 1.12-0.606 1.756-0.727 0.545-0.091 1.090-0.121 1.635-0.091 0.424 0.030 0.848 0.061 1.241 0.091 1.181 0.121 2.362 0.333 3.482 0.787 0.787 0.303 1.363 0.818 1.786 1.544 0.394 0.666 0.666 1.363 0.908 2.089 0.363 1.12 0.606 2.271 0.818 3.422 0.212 1.272 0.363 2.513 0.363 3.785 0 0.030 0 0.091 0.030 0.151 0.061 0 0.121 0 0.182 0 0.363-0.030 0.697 0 1.030 0.151 0.182 0.091 0.363 0.212 0.484 0.363 0.212 0.303 0.485 0.575 0.787 0.818 0.303 0.273 0.545 0.575 0.666 0.969 0.242 0.666 0.091 1.575-0.545 2.059-0.030 0.030-0.061 0.061-0.121 0.091-0.091 0.061-0.121 0.151-0.151 0.273-0.121 0.727-0.484 1.272-1.151 1.605-0.151 0.091-0.363 0.121-0.545 0.061-0.091 0.061-0.182 0-0.303-0.030zM1.349 23.636c0.030 0 0.030 0.030 0.061 0.030 0-0.030 0.030-0.061 0.030-0.091 0.273-0.454 0.515-0.908 0.878-1.272 0.061-0.061 0.121-0.121 0.212-0.091s0.151 0.091 0.151 0.182c0 0.061-0.030 0.151-0.061 0.212s-0.091 0.121-0.121 0.182c-0.151 0.212-0.303 0.424-0.394 0.666-0.303 0.636-0.454 1.272-0.484 1.968-0.030 0.363 0.030 0.727 0.182 1.090 0.454 0.999 1.211 1.726 2.15 2.301 0.606 0.363 1.241 0.636 1.938 0.727 0.182 0.030 0.363 0.030 0.545-0.030 0.091-0.030 0.121-0.061 0.091-0.152 0-0.060-0.030-0.091-0.030-0.151-0.030-0.151 0.030-0.272 0.151-0.363s0.273-0.091 0.363 0.030c0.121 0.151 0.212 0.333 0.333 0.484 0.363 0.575 0.848 1.030 1.453 1.363 0.515 0.303 1.060 0.424 1.635 0.303 0.515-0.121 0.939-0.363 1.272-0.787 0.121-0.151 0.091-0.151-0.030-0.303-0.273-0.303-0.545-0.575-0.818-0.878-0.121-0.121-0.182-0.303-0.273-0.454-0.061-0.121-0.030-0.242 0.061-0.303s0.151-0.030 0.303 0.061c0.454 0.333 0.908 0.666 1.393 0.999 0.757 0.485 1.575 0.666 2.453 0.575 0.575-0.061 1.060-0.303 1.393-0.757 0.151-0.212 0.273-0.424 0.394-0.636 0.091-0.151 0.151-0.303 0.242-0.454 0.121-0.182 0.242-0.212 0.424-0.091 0.121 0.061 0.242 0.152 0.363 0.212 0.878 0.303 1.635 0.121 2.332-0.485 0.303-0.242 0.515-0.575 0.696-0.908 0.394-0.697 0.636-1.423 0.818-2.18 0.212-0.939 0.272-1.877 0.091-2.816-0.272-1.605-0.939-2.998-2.059-4.209-0.091-0.091-0.121-0.182-0.121-0.303 0-0.091 0-0.151 0.030-0.242 0.061-0.424 0.030-0.848-0.061-1.241-0.151-0.727-0.515-1.332-0.969-1.908-0.030-0.030-0.030-0.030-0.091-0.061-0.030 0.061-0.030 0.091-0.030 0.121-0.091 0.333-0.242 0.636-0.454 0.939-0.091 0.151-0.182 0.333-0.424 0.303-0.030 0.061-0.030 0.121-0.030 0.151-0.061 0.333-0.212 0.636-0.394 0.908-0.061 0.091-0.121 0.182-0.182 0.303-0.121 0.242-0.303 0.424-0.485 0.606-0.303 0.242-0.666 0.424-1.030 0.545-0.545 0.212-1.090 0.333-1.665 0.303-0.424-0.030-0.848-0.121-1.272-0.242-0.606-0.151-1.12-0.454-1.635-0.818-0.030-0.030-0.061-0.030-0.091-0.061-0.515 0.333-1.030 0.394-1.544 0-0.061 0.061-0.091 0.091-0.151 0.121-0.636 0.636-1.393 0.908-2.241 0.908-0.606 0-1.211-0.121-1.787-0.303-0.636-0.212-1.242-0.454-1.817-0.848-0.030-0.030-0.061-0.030-0.091-0.061-0.030 0.030-0.061 0.061-0.091 0.091-0.424 0.515-0.818 1.060-1.151 1.635-0.515 0.939-0.818 1.938-0.757 3.028 0.030 0.575 0.151 1.151 0.303 1.696 0 0.182 0.061 0.333 0.091 0.454zM17.398 14.431c0.061-0.030 0.091-0.061 0.091-0.091 0.242-0.333 0.303-0.696 0.182-1.090-0.061-0.182-0.121-0.394-0.151-0.575-0.061-0.485-0.091-0.969-0.151-1.453s-0.182-0.969-0.333-1.423c-0.061-0.151-0.151-0.303-0.303-0.363-0.242-0.121-0.485-0.242-0.727-0.333-1.363-0.515-2.786-0.787-4.239-0.878-0.878-0.061-1.756-0.091-2.634-0.061-0.696 0.030-1.363 0.061-2.059 0.182-0.394 0.091-0.787 0.212-1.12 0.424-0.121 0.061-0.212 0.182-0.242 0.303-0.121 0.363-0.242 0.727-0.363 1.12-0.394 1.151-0.545 2.332-0.484 3.512 0 0.121 0.030 0.273 0.061 0.424 0.091-0.061 0.121-0.091 0.182-0.121 0.151-0.091 0.273-0.212 0.424-0.303 0.666-0.454 1.363-0.878 2.18-1.060 0.182-0.061 0.303-0.121 0.363-0.333 0.151-0.424 0.454-0.727 0.908-0.908 0.333-0.121 0.666-0.151 0.999-0.151 0.606 0.030 1.030 0.333 1.181 0.939 0.030 0.121 0.061 0.273 0.091 0.394 0.030 0 0.061 0.030 0.091 0.030 0.515 0 0.969 0.212 1.393 0.515 0.212 0.151 0.424 0.333 0.606 0.484 0.303 0.212 0.575 0.424 0.939 0.575 0.757 0.303 1.453 0.273 2.089-0.273 0.121-0.091 0.242-0.182 0.394-0.273 0.091-0.061 0.212-0.061 0.303 0 0.121 0.091 0.212 0.182 0.242 0.333s0.061 0.273 0.091 0.454zM2.924 15.158c-0.061 0.273 0 0.454 0.212 0.666 0.485 0.454 1.030 0.848 1.665 1.151s1.332 0.485 2.059 0.454c0.787-0.030 1.484-0.303 1.968-0.939 0.212-0.303 0.394-0.606 0.515-0.969 0.030-0.091 0.061-0.212 0.121-0.303 0.061-0.121 0.182-0.151 0.303-0.091s0.212 0.151 0.273 0.273c0.696 0.969 1.605 1.605 2.755 1.938 0.878 0.242 1.665 0.121 2.422-0.394 0.333-0.242 0.606-0.484 0.848-0.818 0.303-0.394 0.515-0.818 0.606-1.302 0-0.061 0-0.091 0-0.151-0.061 0-0.091 0-0.151 0-0.121 0.030-0.242 0.091-0.363 0.121-0.394 0.182-0.787 0.242-1.211 0.151-0.606-0.121-1.151-0.333-1.665-0.666-0.394-0.242-0.757-0.454-1.151-0.696-0.242-0.151-0.545-0.242-0.818-0.303-0.151-0.030-0.273-0.030-0.394 0.121-0.121 0.121-0.242 0.212-0.394 0.273-0.394 0.212-0.818 0.303-1.272 0.273-0.394 0-0.696-0.182-0.969-0.454-0.212-0.242-0.242-0.273-0.545-0.151-0.030 0-0.030-0-0.061 0.030-0.606 0.242-1.12 0.575-1.635 0.969-0.394 0.303-0.818 0.545-1.242 0.757-0.121 0.061-0.273 0.121-0.394 0.151-0.454 0.121-0.878 0.091-1.332-0.030-0.030-0.061-0.091-0.061-0.151-0.061zM14.764 7.255c0.030-0.151 0.061-0.273 0.091-0.394 0.030-0.091 0.030-0.182 0.091-0.272 0.030-0.121 0.121-0.182 0.242-0.151 0.091 0.030 0.151 0.091 0.151 0.242 0 0.061 0 0.121-0.030 0.151-0.030 0.091-0.030 0.151-0.061 0.242-0.061 0.303-0.061 0.303 0.212 0.394 0.030 0 0.030 0.030 0.061 0.030 0.121 0.030 0.151 0.030 0.182-0.091 0.030-0.091 0.061-0.182 0.091-0.242 0.061-0.121 0.151-0.151 0.273-0.121 0.091 0.030 0.151 0.151 0.121 0.272-0.030 0.061-0.061 0.121-0.061 0.212 0 0.030-0.030 0.091-0.030 0.121 0.151 0.061 0.273 0.091 0.394 0.151 0.061 0.030 0.121-0 0.151-0.091 0.030-0.121 0.091-0.212 0.121-0.333 0.030-0.061 0.061-0.121 0.091-0.182 0.061-0.061 0.121-0.091 0.212-0.061s0.121 0.091 0.151 0.182c0 0.061 0 0.091-0.030 0.151-0.030 0.121-0.091 0.212-0.121 0.333-0.030 0.061-0.030 0.121-0.030 0.182 0.273 0.121 0.515 0.242 0.787 0.363 0.091-0.273 0.182-0.515 0.151-0.757-0.030-0.424-0.121-0.818-0.454-1.090-0.091-0.091-0.182-0.182-0.273-0.273-1.544-1.363-3.331-2.15-5.36-2.362-1.393-0.151-2.755 0-4.088 0.424-0.606 0.182-1.151 0.484-1.665 0.848-0.212 0.151-0.363 0.333-0.424 0.575-0.182 0.606-0.242 1.211-0.182 1.847 0 0.061 0.030 0.151 0.030 0.212 0.061-0.030 0.091-0.030 0.151-0.061 0.273-0.121 0.545-0.242 0.818-0.363 0.424-0.182 0.878-0.303 1.332-0.394 0.303-0.061 0.606-0.061 0.908-0.091 0.606-0.061 1.181-0.091 1.787-0.121 0.878-0.030 1.756 0.061 2.634 0.182 0.485 0.091 0.939 0.151 1.423 0.273 0 0.061 0.061 0.061 0.151 0.061zM22.788 17.55c0.030 0 0.030 0 0.061 0 0.212 0.030 0.394 0 0.515-0.212 0.030-0.030 0.091-0.061 0.151-0.061s0.121 0 0.182 0c0.303 0 0.575-0.091 0.787-0.363 0.030-0.061 0.091-0.091 0.121-0.151 0.152-0.182 0.212-0.394 0.121-0.636-0.061-0.182-0.030-0.333 0.091-0.485 0.060-0.091 0.121-0.151 0.182-0.242 0.242-0.394 0.303-0.818 0.152-1.242-0.061-0.182-0.152-0.363-0.363-0.424-0.151-0.030-0.242-0.121-0.333-0.212-0.061-0.061-0.091-0.121-0.151-0.182-0.424-0.394-0.908-0.515-1.484-0.363-0.121 0.030-0.242 0.091-0.363 0.091-0.151 0-0.303 0.061-0.424 0.121-0.394 0.242-0.697 0.545-0.908 0.939s-0.333 0.787-0.363 1.211c-0.030 0.696 0.151 1.272 0.787 1.665 0.121 0.091 0.242 0.212 0.363 0.303 0.061 0.061 0.121 0.091 0.182 0.121 0.182 0.061 0.424 0.121 0.697 0.121zM14.552 8.163c0.030-0.151 0.061-0.242 0.091-0.363 0-0.061 0-0.121-0.091-0.121-0.454-0.091-0.878-0.212-1.332-0.273-0.333-0.061-0.666-0.121-0.999-0.151-0.394-0.030-0.818-0.061-1.211-0.061-0.575 0-1.12-0.030-1.696 0.061-0.303 0.030-0.575 0.061-0.878 0.091-0.212 0.030-0.424 0.061-0.606 0.091-0.273 0.061-0.545 0.121-0.818 0.182-0.363 0.091-0.727 0.182-1.029 0.363-0.091 0.061-0.212 0.121-0.273 0.212-0.061 0.061-0.091 0.151 0 0.242 0.030-0.030 0.091-0.030 0.121-0.061 0.363-0.212 0.757-0.363 1.181-0.454 0.666-0.151 1.302-0.182 1.968-0.212 0.969-0.030 1.908-0.030 2.877 0.061 0.818 0.061 1.605 0.182 2.392 0.333 0.091 0.030 0.182 0.061 0.303 0.061zM18.942 13.553c0.061 0.091 0.121 0.151 0.182 0.212 0.273 0.303 0.485 0.666 0.666 1.030 0.030 0.091 0.061 0.182 0.121 0.273 0.030 0.030 0.061 0.061 0.091 0.061s0.091-0.030 0.091-0.061c0.030-0.030 0.030-0.091 0.030-0.151 0.030-0.151 0.061-0.303 0.121-0.485 0.182-0.636 0.454-1.181 0.969-1.635 0.121-0.121 0.121-0.121 0.030-0.242-0.424-0.545-0.848-1.12-1.302-1.665-0.030-0.061-0.091-0.091-0.121-0.151-0.030 0.030-0.030 0.030-0.030 0.061s0.030 0.091 0.030 0.121c0.091 0.394 0.182 0.787 0.151 1.211-0.061 0.575-0.303 1.030-0.848 1.302-0.061 0.061-0.091 0.091-0.182 0.121zM9.525 13.341c0.333-0.030 0.666-0.121 0.848-0.515 0.212-0.424-0.091-0.999-0.575-1.030-0.303 0-0.575 0.061-0.818 0.242-0.333 0.242-0.394 0.727-0.121 1.030 0.182 0.212 0.394 0.273 0.666 0.273zM18.639 12.342c0 0.061 0 0.121 0 0.182 0 0.091 0 0.151 0.091 0.182s0.151 0 0.212-0.091c0.121-0.182 0.242-0.333 0.303-0.515 0.212-0.484 0.091-0.939-0.242-1.302-0.151-0.182-0.363-0.303-0.636-0.303-0.091 0-0.182 0.030-0.242 0.121-0.151 0.212-0.091 0.454-0.030 0.696 0 0.030 0.030 0.061 0.061 0.091 0.363 0.242 0.485 0.575 0.485 0.939zM17.882 10.010c0.484-0.091 0.908 0.030 1.363 0.212-0.030-0.061-0.030-0.091-0.061-0.091-0.212-0.242-0.454-0.454-0.696-0.666-0.061-0.061-0.121-0.091-0.212-0.151-0.121-0.061-0.182-0.061-0.242 0.061-0.061 0.091-0.121 0.182-0.182 0.242-0.061 0.121-0.061 0.242 0.030 0.394zM17.61 8.829c-0.242-0.182-0.515-0.273-0.787-0.394-0.061 0.121-0.121 0.242-0.151 0.363-0.030 0.061 0 0.091 0.061 0.121 0.151 0.091 0.333 0.182 0.485 0.273 0.061 0.030 0.151 0.030 0.182-0.030 0.061-0.121 0.121-0.212 0.212-0.333zM9.374 16.581c0.242 0.212 0.666 0.212 0.848 0-0.061-0.091-0.151-0.182-0.212-0.242-0.061-0.091-0.151-0.091-0.242-0.061-0.182 0.061-0.273 0.182-0.394 0.303zM16.429 8.254c-0.091-0.030-0.151-0.061-0.212-0.091-0.303-0.121-0.363-0.091-0.424 0.242v0.030c0.030 0.030 0.030 0.091 0.061 0.121 0.091 0.030 0.182 0.061 0.273 0.091 0.061 0.030 0.121-0 0.151-0.061 0.030-0.091 0.091-0.182 0.151-0.333zM15.369 8.405c0.030-0.121 0.091-0.242 0.121-0.333s0-0.151-0.091-0.151c-0.091-0.030-0.182-0.061-0.303-0.091-0.030 0.151-0.091 0.303-0.121 0.454 0.121 0.030 0.242 0.061 0.394 0.121z"></path>
<path d="M15.399 24.999c-0.091 0.121-0.182 0.272-0.151 0.454 0 0.545 0.121 1.060 0.303 1.575 0.030 0.121 0.030 0.242 0.061 0.333 0 0.061-0.061 0.121-0.121 0.061-0.030-0.030-0.061-0.061-0.091-0.121-0.182-0.303-0.303-0.636-0.363-0.969-0.030-0.182-0.061-0.333-0.091-0.545-0.151 0.152-0.303 0.272-0.363 0.424-0.030 0.061 0 0.212 0.030 0.303 0.091 0.454 0.273 0.878 0.515 1.242 0 0 0.030 0.030 0.030 0.061 0.030 0.061 0.061 0.121 0 0.151-0.061 0.061-0.121 0-0.182-0.061-0.273-0.333-0.454-0.727-0.545-1.151-0.030-0.091-0.061-0.212-0.091-0.333-0.121 0.091-0.242 0.182-0.363 0.272-0.030 0.030-0.030 0.091-0.030 0.152 0.091 0.333 0.212 0.636 0.484 0.878 0.030 0.030 0.061 0.061 0.061 0.091 0.030 0.061-0 0.121-0.061 0.121-0.182 0-0.333-0-0.424-0.182s-0.151-0.363-0.212-0.515c-0.030-0.091-0.061-0.212-0.091-0.333-0.091 0.060-0.182 0.091-0.273 0.151-0.121 0.061-0.212 0.121-0.333 0.182-0.091 0.030-0.121 0.091-0.091 0.182 0.030 0.212 0.061 0.394 0.061 0.606 0 0.121-0 0.272-0.061 0.394-0.030 0.121-0.151 0.182-0.303 0.182s-0.273-0.030-0.394-0.121c-0.787-0.697-1.575-1.393-2.301-2.15-0.303-0.303-0.545-0.636-0.818-0.969-0.030-0.030-0.061-0.061-0.121-0.091 0 0.061 0 0.121 0 0.182 0 0.424 0 0.818-0.091 1.241-0.091 0.485-0.273 0.939-0.636 1.302-0.121 0.152-0.303 0.242-0.484 0.303s-0.273 0.030-0.394-0.121c-0.030-0.030-0.061-0.091-0.061-0.121-0.333-0.666-0.787-1.241-1.272-1.786-0.424-0.454-0.878-0.939-1.242-1.454-0.636-0.878-1.090-1.877-1.332-2.937-0.182-0.727-0.242-1.484-0.212-2.21 0.030-0.394 0.091-0.757 0.182-1.12 0.030-0.121 0.091-0.242 0.182-0.303 0.091-0.091 0.212-0.061 0.303 0.030 0.121 0.151 0.182 0.333 0.182 0.545 0 0.121 0 0.242-0.030 0.363-0.151 1.030 0 1.998 0.303 2.998 0.212 0.666 0.454 1.332 0.818 1.938 0.303 0.485 0.666 0.939 1.030 1.393 0.454 0.545 0.878 1.090 1.241 1.696 0.091 0.152 0.182 0.333 0.273 0.515 0.030 0.061 0.061 0.091 0.091 0.152 0.091-0.091 0.151-0.152 0.212-0.242 0.242-0.303 0.363-0.697 0.424-1.060 0.121-0.636 0.061-1.272-0.061-1.908-0.091-0.515-0.212-1.030-0.333-1.514-0.030-0.182-0.091-0.363-0.121-0.575-0.030-0.121 0-0.273 0-0.394 0-0.091 0.061-0.182 0.151-0.182 0.091-0.030 0.182 0.030 0.212 0.121 0.061 0.151 0.121 0.303 0.151 0.424 0.242 1.030 0.757 1.938 1.363 2.786 0.696 0.939 1.453 1.787 2.301 2.574 0.030 0.030 0.061 0.061 0.151 0.121 0-0.091 0.030-0.121 0.030-0.182-0.030-0.363-0.061-0.727-0.091-1.090-0.121-0.939-0.242-1.847-0.363-2.755 0-0.061 0-0.152 0-0.212 0-0.091 0.091-0.151 0.182-0.182s0.151 0.030 0.212 0.121c0.030 0.061 0.061 0.121 0.061 0.182 0.121 0.818 0.242 1.635 0.363 2.453 0.030 0.151 0.061 0.333 0.091 0.515 0.091-0.030 0.151-0.061 0.212-0.091 0.545-0.333 0.999-0.787 1.393-1.302 0.575-0.757 0.939-1.575 1.030-2.513 0.030-0.303 0.030-0.606 0.061-0.878 0-0.061 0-0.121 0-0.182 0.030-0.091 0.091-0.151 0.182-0.182s0.182 0.030 0.212 0.121c0.030 0.061 0.061 0.152 0.061 0.242 0.030 0.485 0 0.969-0.121 1.454-0.091 0.333-0.182 0.636-0.273 0.939-0.091 0.242-0.061 0.485-0.030 0.727 0.030 0.212 0.061 0.454 0.121 0.666 0.091 0.363 0.182 0.727 0.303 1.060 0.121 0.303 0.273 0.606 0.424 0.878 0.030 0.030 0.030 0.091 0.030 0.121 0 0.060-0.061 0.091-0.121 0.060-0.030-0.030-0.061-0.061-0.091-0.091-0.242-0.424-0.454-0.878-0.575-1.363-0.061-0.575-0.182-1.060-0.273-1.544z"></path>
<path d="M17.428 22.455c0.030-0.030 0.061-0.061 0.061-0.091 0.333-0.636 0.606-1.272 0.666-1.998 0.061-0.575-0.061-1.090-0.242-1.605-0.061-0.182-0.151-0.363-0.212-0.545-0.030-0.061-0.030-0.121-0.061-0.182-0.030-0.121 0-0.212 0.091-0.273s0.212-0.030 0.303 0.061c0.030 0.030 0.061 0.091 0.091 0.151 0.182 0.333 0.333 0.696 0.394 1.060 0.273 1.484-0.061 2.816-0.969 3.997-0.091 0.151-0.242 0.272-0.363 0.394-0.061 0.061-0.091 0.151-0.091 0.242 0 0.303 0 0.575 0 0.878 0 0.061 0 0.091 0 0.151s-0.030 0.152-0.091 0.152c-0.030 0-0.091-0.061-0.121-0.121-0.030-0.091-0.061-0.212-0.061-0.303 0-0.182 0-0.363 0-0.545 0-0.091-0-0.152-0.121-0.212s-0.151-0.182-0.091-0.333c0.061-0.242 0.151-0.454 0.212-0.696 0.151-0.636 0.182-1.272 0.061-1.908 0-0.061-0.030-0.121-0.061-0.212-0.030-0.121 0.030-0.242 0.151-0.303s0.242-0 0.303 0.121c0.030 0.061 0.030 0.121 0.061 0.182 0.121 0.575 0.151 1.151 0.061 1.756 0 0.061 0 0.121 0 0.182 0.030 0 0.030 0 0.030 0z"></path>
<path d="M2.47 24.969c0-0.424 0.091-0.878 0.212-1.332 0.030-0.121 0.121-0.182 0.242-0.182 0.091 0 0.151 0.091 0.151 0.212s-0.030 0.212-0.030 0.333c-0.030 0.272-0.091 0.545-0.121 0.817-0.061 0.697 0.151 1.332 0.606 1.877 0.212 0.272 0.424 0.515 0.636 0.787 0.061 0.061 0.091 0.121 0.121 0.182 0.030 0.091 0.030 0.152-0.030 0.242-0.061 0.061-0.151 0.061-0.242 0.030-0.030-0.030-0.061-0.030-0.091-0.061-0.394-0.424-0.787-0.878-1.090-1.393-0.273-0.485-0.363-0.969-0.363-1.514z"></path>
<path d="M21.032 22.516c-0.030 0.666-0.121 1.332-0.242 1.999-0.030 0.182-0.060 0.363-0.121 0.575-0.030 0.061-0.030 0.152-0.091 0.212-0.030 0.061-0.121 0.121-0.182 0.091s-0.121-0.091-0.151-0.151 0-0.152 0-0.212c0.091-0.515 0.212-1.030 0.272-1.544 0.091-0.606 0.152-1.242-0.030-1.847-0.030-0.121-0.091-0.242-0.121-0.363 0-0.030-0.030-0.061-0.030-0.091-0.030-0.091 0-0.151 0.061-0.212s0.152-0.061 0.212 0 0.151 0.151 0.182 0.242c0.152 0.333 0.182 0.666 0.212 1.029 0.030 0.091 0.030 0.182 0.030 0.273z"></path>
<path d="M5.407 20.184c0-0.061 0.030-0.091 0.030-0.151 0.061-0.091 0.121-0.151 0.212-0.121s0.151 0.091 0.182 0.182c0 0.030 0 0.061 0 0.061-0.091 0.969 0.182 1.847 0.545 2.695 0.061 0.121 0.121 0.272 0.182 0.394 0.030 0.061 0.061 0.121 0.061 0.182 0.030 0.121-0.030 0.212-0.121 0.242s-0.182 0-0.242-0.091c-0.030-0.030-0.030-0.061-0.061-0.091-0.303-0.636-0.575-1.302-0.727-1.999-0.030-0.303-0.061-1.181-0.061-1.302z"></path>
<path d="M7.194 18.579c-0.424 0.091-0.848 0.091-1.302-0.030-0.151-0.030-0.333-0.091-0.424-0.182-0.182-0.182 0.030-0.182 0.182-0.121 1.12 0.333 2.513 0.030 3.391-0.757 0 0 0.030-0 0.030-0.030 0.061-0.030 0.091-0.091 0.151-0.030s0.030 0.121-0.030 0.151c-0.121 0.151-0.273 0.333-0.454 0.424-0.545 0.273-1.030 0.485-1.544 0.575z"></path>
<path d="M20.093 26.301c-0.030 0.030-0.061 0.121-0.121 0.182-0.151 0.151-0.303 0.272-0.454 0.394-0.454 0.303-0.969 0.515-1.484 0.666-0.030 0-0.091 0.030-0.151 0.030-0.091 0-0.151-0.061-0.151-0.151-0.030-0.091 0-0.152 0.091-0.212 0.061-0.030 0.121-0.061 0.182-0.091 0.363-0.121 0.727-0.272 1.090-0.485 0.212-0.121 0.424-0.272 0.606-0.454 0.030-0.030 0.061-0.091 0.121-0.091 0.121-0.091 0.273 0 0.273 0.212z"></path>
<path d="M11.372 25.362c0 0.151-0.061 0.242-0.151 0.272-0.091 0-0.212-0.061-0.242-0.212-0.030-0.182-0.091-0.363-0.121-0.575-0.091-0.424-0.182-0.878-0.273-1.332 0-0.061-0.030-0.151 0-0.212 0.030-0.151 0.212-0.182 0.303-0.091 0.030 0.061 0.091 0.121 0.091 0.182 0.121 0.606 0.242 1.211 0.363 1.817 0.030 0.061 0.030 0.121 0.030 0.152z"></path>
<path d="M4.801 18.912c-0.030 0.212-0.030 0.424-0.091 0.636-0.151 0.575 0 1.181 0.151 1.756s0.363 1.090 0.636 1.605c0.030 0.061 0.061 0.091 0.061 0.151 0 0.030-0.030 0.091-0.061 0.121 0 0-0.091-0.030-0.121-0.061-0.121-0.212-0.242-0.394-0.333-0.606-0.212-0.424-0.363-0.878-0.454-1.363-0.061-0.363-0.151-0.757-0.182-1.12-0.030-0.394 0.061-0.818 0.121-1.211 0-0.061 0.030-0.121 0.061-0.121 0.061-0.030 0.121 0.030 0.121 0.061 0.091 0.061 0.091 0.121 0.091 0.151z"></path>
<path d="M9.949 21.819c0 0.030 0 0.091-0.030 0.121-0.030 0.061-0.091 0.091-0.151 0.121s-0.151-0.030-0.182-0.091c-0.030-0.091-0.061-0.151-0.061-0.242-0.030-0.273-0.061-0.545-0.091-0.787 0-0.061 0-0.151 0-0.212 0.030-0.121 0.091-0.151 0.182-0.182 0.091 0 0.182 0.061 0.182 0.152 0.030 0.121 0.030 0.242 0.061 0.363 0.030 0.242 0.061 0.515 0.091 0.757z"></path>
<path d="M18.7 16.248c0 0.091-0 0.151-0.030 0.242s-0.091 0.121-0.151 0.151c-0.091 0-0.151-0.030-0.182-0.121-0.030-0.061-0.030-0.121-0.030-0.182-0.061-0.273-0.091-0.545-0.151-0.818 0-0.061-0.030-0.151-0.030-0.212 0-0.091 0.030-0.151 0.151-0.182 0.091-0.030 0.182 0 0.212 0.091s0.091 0.182 0.091 0.273c0.061 0.242 0.091 0.485 0.121 0.757 0.030-0.030 0.030-0.030 0 0z"></path>
<path d="M6.739 21.062c0-0.030 0.030-0.091 0.061-0.151 0.061-0.121 0.242-0.121 0.303 0 0.030 0.061 0.061 0.151 0.091 0.242 0.030 0.272 0.091 0.545 0.182 0.787 0 0.030 0.030 0.091 0.030 0.121 0 0.091-0.030 0.151-0.121 0.212-0.091 0.030-0.151 0-0.212-0.061-0.030-0.030-0.061-0.061-0.061-0.121-0.182-0.333-0.212-0.666-0.272-1.030z"></path>
<path d="M13.189 18.458c0.030-0.030 0.061-0.061 0.091-0.061 0.121-0.030 0.273-0.061 0.394-0.061 0.303 0 0.606-0.030 0.878-0.091 0.212-0.030 0.424-0.121 0.606-0.182 0.030 0 0.091-0.030 0.121-0.030 0.061 0 0.121 0.030 0.121 0.061s-0.030 0.121-0.061 0.151c-0.061 0.030-0.121 0.061-0.182 0.091-0.273 0.091-0.575 0.182-0.878 0.242-0.273 0.061-0.545 0.061-0.848 0.061-0.030-0.030-0.151-0.061-0.242-0.182z"></path>
<path d="M15.036 23.454c0 0.061 0 0.121-0.030 0.182-0.030 0.091-0.091 0.151-0.182 0.151s-0.151-0.061-0.182-0.151c-0.030-0.061-0.030-0.121-0.030-0.182-0.030-0.212-0.061-0.424-0.091-0.636-0.030-0.151 0.030-0.242 0.121-0.272s0.212 0.030 0.273 0.151c0.030 0.061 0.030 0.152 0.061 0.212 0.030 0.212 0.030 0.394 0.061 0.545z"></path>
<path d="M2.076 19.246c0-0.030 0-0.091 0.030-0.121 0.091-0.212 0.151-0.394 0.242-0.606 0.061-0.121 0.151-0.151 0.273-0.121 0.091 0.030 0.151 0.151 0.121 0.273-0.091 0.242-0.182 0.454-0.273 0.696-0.061 0.121-0.151 0.151-0.242 0.121-0.121 0-0.151-0.091-0.151-0.242z"></path>
<path d="M7.829 26.119c-0.030 0.030-0.030 0.091-0.061 0.091s-0.091-0.030-0.121-0.061c-0.030-0.061-0.061-0.121-0.121-0.212-0.182-0.363-0.333-0.697-0.515-1.060-0.061-0.121-0.061-0.212-0.030-0.333 0.030-0.091 0.091-0.091 0.151-0.030 0.030 0.030 0.061 0.061 0.091 0.121 0.182 0.454 0.363 0.878 0.545 1.332 0.061 0.061 0.061 0.091 0.061 0.151z"></path>
<path d="M13.673 24.787c0-0.121 0-0.212 0-0.333s0.061-0.212 0.151-0.212c0.121-0.030 0.182 0.030 0.242 0.182 0.030 0.061 0.030 0.091 0.030 0.151 0 0.182-0.030 0.394-0.061 0.575 0 0.030 0 0.030 0 0.061-0.030 0.121-0.121 0.182-0.212 0.152-0.091 0-0.182-0.061-0.182-0.182 0-0.151 0-0.272 0.030-0.394z"></path>
<path d="M18.579 22.183c0-0.061-0.061-0.121 0.030-0.182 0.061-0.030 0.182 0 0.212 0.061 0.030 0.030 0.030 0.061 0.061 0.091 0.091 0.333 0.121 0.666 0.091 0.999 0 0.061-0.030 0.152-0.061 0.212-0.030 0.030-0.091 0.061-0.121 0.061s-0.061-0.061-0.061-0.091c0-0.121 0-0.212 0-0.333-0.030-0.030-0.091-0.545-0.151-0.817z"></path>
<path d="M2.076 21.607c0 0.121-0.061 0.212-0.151 0.242s-0.212-0.030-0.242-0.151c-0.030-0.212-0.061-0.424-0.061-0.606 0-0.091 0.061-0.182 0.182-0.182 0.091 0 0.151 0.061 0.212 0.151 0 0.030 0.030 0.061 0.030 0.091 0 0.121 0.030 0.303 0.030 0.454z"></path>
<path d="M10.222 27.785c0 0.030 0 0.091 0 0.091-0.030 0.030-0.061 0.091-0.091 0.091s-0.091-0.030-0.091-0.061c-0.121-0.272-0.242-0.515-0.363-0.787-0.030-0.091-0.061-0.182-0.091-0.303 0-0.030 0.030-0.091 0.030-0.091 0.030 0 0.091 0 0.121 0.030 0.030 0 0.030 0.030 0.061 0.061 0.151 0.272 0.273 0.545 0.394 0.848 0.030 0.030 0.030 0.091 0.030 0.121z"></path>
<path d="M8.95 29.511c-0.061-0.061 0-0.152 0.061-0.182 0.030 0 0.061 0 0.121 0.061 0.182 0.182 0.363 0.363 0.545 0.545 0.061 0.061 0.091 0.121 0.030 0.212-0.030 0.061-0.151 0.091-0.242 0.030-0.061-0.030-0.121-0.091-0.182-0.151-0.121-0.182-0.212-0.333-0.333-0.515z"></path>
<path d="M3.62 25.907c0-0.091 0-0.182 0.030-0.242 0-0.030 0.061-0.091 0.091-0.091s0.091 0.061 0.091 0.091c0 0.242 0.151 0.424 0.242 0.666 0.030 0.061 0.091 0.151 0 0.212-0.061 0.030-0.182 0.030-0.242-0.061-0.121-0.182-0.212-0.363-0.212-0.575z"></path>
<path d="M18.337 23.666c0 0.061-0.061 0.121-0.091 0.121-0.030 0.030-0.091 0-0.121-0.030-0.030 0-0.030-0.061-0.030-0.121 0.061-0.272 0.121-0.545 0.091-0.818 0-0.030 0-0.061 0-0.121s0-0.151 0.091-0.151 0.121 0.061 0.121 0.151c0 0.091 0 0.182 0 0.273 0 0.061-0.030 0.484-0.061 0.696z"></path>
<path d="M8.98 29.965c0.030 0.030 0.030 0.091 0 0.121 0 0 0 0-0.030 0-0.061 0-0.121 0-0.182-0.030-0.182-0.091-0.333-0.242-0.454-0.424-0.091-0.121-0.182-0.273-0.273-0.424-0.030-0.030-0.030-0.061-0.030-0.091s0-0.091 0.030-0.091 0.091 0 0.121 0.030c0.030 0.030 0.061 0.061 0.061 0.091 0.091 0.121 0.151 0.272 0.273 0.394 0.121 0.152 0.273 0.303 0.454 0.394 0 0 0 0.030 0.030 0.030z"></path>
<path d="M16.066 24.393c0-0.152 0.030-0.212 0.091-0.212 0.091 0.030 0.091 0.091 0.091 0.182s0 0.152 0 0.242c0 0.242 0.061 0.484 0.121 0.727 0.030 0.061 0.061 0.182-0.030 0.212s-0.121-0.061-0.151-0.152c-0.030-0.121-0.061-0.212-0.091-0.333 0.030-0.212 0-0.454-0.030-0.666z"></path>
<path d="M19.275 20.063c-0.091 0-0.182-0.061-0.182-0.121 0-0.091 0.061-0.121 0.121-0.151 0.151-0.061 0.333-0.121 0.485-0.182 0.061-0.030 0.121-0.030 0.182-0.030s0.091 0.091 0.061 0.121c-0.182 0.182-0.394 0.333-0.666 0.363z"></path>
<path d="M5.377 28.239c0 0.152-0.121 0.272-0.273 0.272s-0.273-0.151-0.273-0.303c0-0.152 0.121-0.242 0.303-0.242 0.151 0.030 0.242 0.151 0.242 0.272z"></path>
<path d="M9.162 28.178c0 0.091-0.030 0.242-0.061 0.394 0 0.061-0.030 0.121-0.121 0.121-0.061 0-0.091-0.030-0.121-0.121-0.061-0.182-0.030-0.394 0-0.575 0-0.030-0-0.030 0.030-0.061s0.091-0.121 0.121-0.091c0.061 0.030 0.091 0.091 0.121 0.121 0.030 0.091 0.030 0.121 0.030 0.212z"></path>
<path d="M3.53 24.090c0.030-0.030 0.061-0.030 0.091 0 0.061 0.030 0.091 0.121 0.091 0.182 0 0.182 0 0.333 0 0.515 0 0.030-0.030 0.091-0.061 0.121-0.061 0.061-0.091 0.061-0.151 0-0.091-0.273-0.091-0.545 0.030-0.818z"></path>
<path d="M3.227 17.398c0.030 0.061 0.030 0.151 0 0.212-0.061 0.121-0.121 0.273-0.182 0.394-0.030 0.061-0.091 0.091-0.151 0.061-0.091-0.030-0.091-0.121-0.061-0.182 0.061-0.151 0.121-0.303 0.212-0.454 0.030-0.061 0.091-0.121 0.151-0.091 0 0.030-0 0.030 0.030 0.061z"></path>
<path d="M19.336 21.759c0 0.061 0 0.121 0 0.151s-0.061 0.061-0.061 0.061c-0.030 0-0.061-0.030-0.061-0.061-0.030-0.303-0.151-0.575-0.242-0.878-0.030-0.061-0.030-0.121 0.030-0.121 0.030 0 0.091 0.030 0.121 0.061 0.061 0.242 0.182 0.515 0.212 0.787z"></path>
<path d="M19.79 19.003c-0.030 0.030-0.030 0.061-0.061 0.091-0.121 0.121-0.273 0.212-0.424 0.303-0.030 0.030-0.121 0.030-0.151 0-0.061-0.030-0.061-0.121-0.030-0.182 0.030-0.030 0.061-0.061 0.091-0.061 0.151-0.091 0.273-0.151 0.424-0.242 0.091-0.030 0.151 0 0.151 0.091z"></path>
<path d="M2.379 20.336c0.030 0.151-0.212 0.212-0.273 0.061s-0.061-0.333-0.030-0.424c0.030-0.030 0.061-0.061 0.121-0.061 0.030 0 0.091 0.030 0.091 0.061 0.061 0.121 0.091 0.242 0.091 0.363z"></path>
<path d="M17.731 23.787c0.030 0.030 0.030 0.091 0.030 0.121-0.030 0.121-0.061 0.242-0.091 0.363-0.030 0.091-0.030 0.182-0.061 0.242s-0.061 0.121-0.121 0.061c-0.030-0.030-0.030-0.091-0.030-0.152 0.030-0.182 0.091-0.333 0.121-0.515 0-0.030 0.030-0.091 0.030-0.121 0 0.030 0.061-0.030 0.121 0z"></path>
<path d="M10.645 29.722c-0.030 0.182-0.121 0.394-0.242 0.575l-0.030 0.030c-0.061 0-0.091-0.030-0.091-0.091 0 0 0 0 0-0.030 0.030-0.121 0.121-0.212 0.151-0.333 0.030-0.091 0.061-0.182 0.061-0.242s0-0.121 0.091-0.121c0.030 0 0.061 0.061 0.091 0.121-0.030 0-0.030 0.030-0.030 0.091z"></path>
<path d="M9.707 28.481c0 0.030-0 0.091-0.030 0.121l-0.030 0.030c-0.030 0-0.061-0.030-0.091-0.061 0 0 0-0.030-0.030-0.030-0.030-0.242-0.091-0.454-0.121-0.697 0-0.030 0-0.091 0.061-0.091 0 0 0.061 0.030 0.091 0.061 0.061 0.212 0.121 0.424 0.151 0.666z"></path>
<path d="M14.279 21.093c0 0.121-0.091 0.212-0.182 0.212s-0.212-0.091-0.212-0.212c0-0.121 0.091-0.212 0.182-0.212 0.121 0 0.212 0.091 0.212 0.212z"></path>
<path d="M19.094 18.822c-0.061 0-0.121-0.061-0.061-0.121 0.091-0.121 0.212-0.242 0.303-0.363 0.030-0.030 0.091-0.030 0.121 0 0.030 0 0.030 0.061 0 0.091-0.091 0.121-0.212 0.242-0.303 0.363-0.030 0.030-0.061 0.030-0.061 0.030z"></path>
<path d="M17.156 18.337c0 0.091-0.061 0.151-0.151 0.151s-0.151-0.061-0.151-0.151c0-0.091 0.061-0.151 0.151-0.151 0.061 0 0.151 0.061 0.151 0.151z"></path>
<path d="M7.012 19.791c0 0.091-0.061 0.151-0.151 0.151s-0.151-0.061-0.151-0.151c0-0.091 0.061-0.151 0.151-0.151 0.061 0 0.151 0.061 0.151 0.151z"></path>
<path d="M7.405 10.101c-0.273 0-0.545 0.030-0.818 0.030-0.363 0-0.484-0.121-0.454-0.484 0-0.030 0-0.030 0-0.061 0-0.242 0.121-0.394 0.363-0.484 0.636-0.303 1.302-0.363 1.998-0.394 0.061 0 0.121 0 0.151 0 0.212 0.030 0.333 0.182 0.333 0.394 0 0.182-0.030 0.363-0.061 0.545-0.030 0.212-0.182 0.363-0.394 0.394-0.091 0.030-0.212 0.030-0.303 0.030-0.273 0-0.545 0-0.818 0.030 0-0.030 0-0.030 0 0z"></path>
<path d="M12.674 9.586c0-0.121 0.030-0.303 0.061-0.454 0.030-0.182 0.151-0.303 0.363-0.303 0.182 0 0.363 0 0.515 0.061 0.545 0.151 1.060 0.333 1.605 0.515 0.061 0.030 0.121 0.061 0.182 0.091 0.151 0.091 0.212 0.212 0.151 0.394-0.030 0.151-0.091 0.273-0.121 0.394-0.061 0.182-0.212 0.242-0.394 0.212-0.091 0-0.151-0.030-0.242-0.030-0.545-0.121-1.090-0.273-1.635-0.394-0.061-0.030-0.121-0.030-0.182-0.061-0.242-0.061-0.303-0.151-0.303-0.424z"></path>
<path d="M13.795 11.191c-0.030 0.182-0.061 0.363-0.182 0.515-0.212 0.303-0.575 0.273-0.727-0.061-0.151-0.303-0.030-0.757 0.242-0.969 0.212-0.151 0.485-0.121 0.575 0.121 0.030 0.121 0.061 0.273 0.091 0.394z"></path>
<path d="M7.617 11.13c-0.030 0.182-0.061 0.363-0.151 0.545-0.061 0.121-0.151 0.212-0.303 0.182-0.151 0-0.212-0.091-0.273-0.212-0.151-0.303-0.061-0.787 0.151-0.999 0.151-0.182 0.394-0.151 0.484 0.061 0.030 0.151 0.061 0.303 0.091 0.424z"></path>
<path d="M16.278 12.614c0.212 0.030 0.454 0.061 0.696 0.121 0.061 0 0.121 0.061 0.182 0.091 0.091 0.061 0.121 0.182 0.061 0.242-0.030 0.091-0.121 0.121-0.212 0.091s-0.212-0.061-0.303-0.091c-0.121-0.030-0.273-0.030-0.394-0.061-0.061 0-0.151-0.030-0.212-0.061s-0.121-0.091-0.121-0.182c0-0.091 0.061-0.151 0.151-0.182 0.030 0.030 0.061 0.030 0.151 0.030z"></path>
<path d="M16.671 12.342c-0.091 0-0.182 0-0.242 0s-0.121-0.030-0.182-0.061c-0.061-0.030-0.121-0.091-0.121-0.182s0.061-0.151 0.151-0.151c0.242-0.030 0.484-0.030 0.727 0.061 0.091 0.030 0.121 0.121 0.121 0.212s-0.091 0.151-0.182 0.151c-0.061 0-0.151-0.030-0.273-0.030z"></path>
<path d="M15.097 13.946c-0.030 0-0.061 0-0.091 0-0.182 0-0.394-0.091-0.575-0.151-0.030-0.030-0.091-0.030-0.121-0.061-0.061-0.030-0.091-0.121-0.091-0.182 0.030-0.061 0.091-0.061 0.151-0.030 0.121 0.030 0.212 0.091 0.333 0.121 0.212 0.061 0.424 0.061 0.666 0.030 0.061 0 0.121-0.030 0.182-0.030 0.030 0 0.121 0 0.121 0.121 0 0-0.061 0.061-0.091 0.091-0.182 0.061-0.333 0.091-0.485 0.091z"></path>
<path d="M16.611 10.252c0.121 0 0.242 0.061 0.333 0.091 0.061 0.030 0.121 0.091 0.091 0.182-0.030 0.061-0.061 0.151-0.121 0.182-0.091 0.061-0.363-0.030-0.454-0.121-0.061-0.091-0.091-0.212 0-0.303 0.030-0.030 0.091-0.030 0.151-0.030z"></path>
<path d="M16.823 11.524c-0.030 0-0.091-0-0.182-0.030s-0.151-0.091-0.151-0.182c0-0.091 0.061-0.182 0.151-0.182 0.121 0 0.212 0 0.333 0 0.121 0.030 0.182 0.121 0.151 0.212 0 0.091-0.091 0.151-0.212 0.151 0 0.030-0.030 0.030-0.091 0.030z"></path>
<path d="M13.885 13.25c0 0.091-0.091 0.182-0.182 0.121-0.061-0.030-0.121-0.091-0.182-0.121-0.030-0.030-0.091-0.091-0.121-0.121s-0.030-0.091 0-0.121 0.091-0.061 0.151-0.061c0.151 0.061 0.212 0.151 0.303 0.273 0.030 0 0.030 0.030 0.030 0.030z"></path>
<path d="M7.708 15.854c0 0.030-0.030 0.121-0.061 0.182-0.121 0.212-0.273 0.424-0.394 0.636-0.030 0.030-0.061 0.061-0.091 0.091-0.061 0.061-0.151 0.061-0.212 0s-0.091-0.121-0.061-0.212c0.030-0.061 0.061-0.121 0.091-0.182 0.121-0.212 0.242-0.424 0.394-0.636 0-0.030 0-0.030 0.030-0.061 0.061-0.091 0.121-0.121 0.242-0.091 0 0.061 0.061 0.151 0.061 0.273z"></path>
<path d="M14.067 15.915c0.030 0 0.061 0.030 0.091 0.030 0.242 0.091 0.485 0.182 0.696 0.242 0.061 0.030 0.091 0.030 0.151 0.061 0.091 0.061 0.121 0.121 0.091 0.212s-0.091 0.121-0.182 0.151h-0.030c-0.303-0.091-0.606-0.151-0.878-0.303-0.121-0.061-0.151-0.182-0.121-0.303 0.030-0.061 0.091-0.091 0.182-0.091z"></path>
<path d="M12.129 16.278c0 0.182-0.151 0.273-0.303 0.212-0.030-0.030-0.091-0.061-0.091-0.091-0.121-0.242-0.242-0.485-0.363-0.696-0.030-0.061-0.030-0.121-0.030-0.182 0-0.091 0.061-0.121 0.121-0.151 0.091-0.030 0.151 0 0.212 0.061 0.030 0.030 0.061 0.061 0.061 0.091 0.121 0.212 0.212 0.424 0.333 0.636 0.030 0.030 0.061 0.091 0.061 0.121z"></path>
<path d="M6.225 15.975c0.091 0.061 0.091 0.212 0.030 0.303 0 0 0 0 0 0.030-0.061 0.061-0.091 0.121-0.182 0.151-0.182 0.121-0.394 0.212-0.575 0.303-0.030 0-0.061 0.030-0.091 0.030-0.121 0.030-0.212 0-0.242-0.091s-0.030-0.151 0.030-0.212c0.061-0.030 0.091-0.091 0.151-0.121 0.212-0.121 0.454-0.212 0.636-0.363 0.091-0.061 0.182-0.091 0.242-0.030z"></path>
<path d="M8.677 15.46c-0.091 0.273-0.182 0.575-0.303 0.848-0.030 0.121-0.151 0.151-0.242 0.121s-0.121-0.121-0.121-0.242c0-0.030 0.030-0.091 0.030-0.121 0.061-0.212 0.121-0.424 0.182-0.636 0-0.030 0-0.030 0-0.061 0.061-0.121 0.121-0.182 0.242-0.182 0.121 0.030 0.182 0.121 0.212 0.273z"></path>
<path d="M13.189 16.732c-0.030 0-0.061-0.030-0.121-0.061-0.212-0.151-0.394-0.333-0.515-0.575-0.030-0.061-0.061-0.121-0.061-0.182 0-0.091 0.030-0.182 0.121-0.212s0.151 0 0.242 0.091c0.030 0.030 0.030 0.061 0.061 0.091 0.091 0.182 0.212 0.333 0.363 0.454 0.061 0.061 0.121 0.121 0.151 0.182 0.030 0.091-0.061 0.242-0.242 0.212z"></path>
<path d="M7.133 5.165c0.030-0.182 0.121-0.273 0.242-0.242s0.182 0.121 0.151 0.333c-0.030 0.212-0.061 0.424-0.091 0.606-0.030 0.212-0.030 0.394-0.030 0.606 0 0.061 0 0.091 0 0.151-0.030 0.121-0.091 0.182-0.182 0.182s-0.212-0.061-0.212-0.182c0-0.121 0.061-1.090 0.121-1.453z"></path>
<path d="M8.102 6.407c0.061-0.242 0.091-0.484 0.151-0.727 0.030-0.121 0.061-0.242 0.091-0.333 0.061-0.121 0.121-0.182 0.242-0.151 0.091 0.030 0.182 0.121 0.151 0.242-0.030 0.212-0.091 0.424-0.121 0.636-0.030 0.121-0.061 0.273-0.061 0.394-0.030 0.182-0.121 0.303-0.242 0.273-0.121 0-0.212-0.151-0.212-0.333z"></path>
<path d="M10.857 6.134c0 0.121-0.091 0.242-0.212 0.242s-0.212-0.091-0.212-0.182c0-0.121 0.121-0.242 0.242-0.242 0.121-0.030 0.182 0.061 0.182 0.182z"></path>
<path d="M9.798 6.134c0 0.121-0.091 0.212-0.212 0.242-0.121 0-0.182-0.091-0.182-0.182 0-0.121 0.091-0.212 0.212-0.212 0.091-0.030 0.182 0.030 0.182 0.151z"></path>
<path d="M23.091 16.914c-0.091-0.030-0.182-0.061-0.272-0.121-0.061-0.030-0.091-0.091-0.061-0.182 0.030-0.061 0.061-0.091 0.151-0.091 0.363 0 0.666-0.151 0.939-0.363 0.212-0.182 0.363-0.394 0.424-0.696 0.030-0.121 0.061-0.151 0.182-0.151 0.091 0 0.151 0.030 0.151 0.121s0 0.182-0.061 0.273c-0.242 0.454-0.606 0.818-1.060 1.060-0.121 0.091-0.242 0.121-0.394 0.151z"></path>
<path d="M21.516 14.31c0.030-0.061 0.030-0.151 0.091-0.212 0.151-0.182 0.303-0.363 0.454-0.515 0.061-0.061 0.151-0.091 0.242-0.061 0.061 0 0.121 0.061 0.151 0.121s0 0.151-0.061 0.182l-0.030 0.030c-0.212 0.121-0.363 0.273-0.424 0.515-0.030 0.091-0.182 0.151-0.272 0.151-0.091-0.030-0.121-0.121-0.151-0.212z"></path>
<path d="M21.577 16.157c0-0.030 0-0.061 0.030-0.091 0.030-0.061 0.061-0.121 0.121-0.121 0.030 0 0.121 0.030 0.151 0.061 0.091 0.121 0.182 0.242 0.272 0.363 0.061 0.061 0.121 0.121 0.152 0.151 0.061 0.061 0.091 0.121 0.030 0.182-0.030 0.030-0.091 0.061-0.151 0.061-0.212 0-0.545-0.363-0.575-0.575l-0.030-0.030z"></path>
<path d="M21.334 15.339c0-0.091 0-0.182 0.030-0.273 0-0.061 0.030-0.121 0.091-0.182 0.030-0.061 0.121-0.061 0.182-0.061 0.091 0.030 0.091 0.091 0.091 0.151-0.030 0.212-0.061 0.424-0.091 0.606 0 0.091-0.091 0.151-0.151 0.151-0.091 0-0.121-0.061-0.121-0.151 0-0.061-0.030-0.121-0.030-0.242z"></path>
<path d="M24.029 14.582c0-0.151 0.061-0.212 0.212-0.212 0.121 0 0.212 0.091 0.212 0.242 0 0.121-0.091 0.242-0.212 0.212-0.121 0-0.212-0.121-0.212-0.242z"></path>
</symbol>
</defs>
</svg>
